# Blender 4.5.4 LTS
# www.blender.org
mtllib enemy_cat_0.mtl
o cat1
v -0.560606 0.011344 -0.036104
v 0.560606 0.011344 -0.036104
v -0.560606 1.011344 -0.036104
v 0.560606 1.011344 -0.036104
v -0.560606 0.011344 0.041425
v 0.560606 0.011344 0.041425
v -0.560606 1.011344 0.041425
v 0.560606 1.011344 0.041425
v -0.560606 1.011344 -0.036104
v -0.560606 0.011344 -0.036104
v 0.560606 0.011344 -0.036104
v 0.560606 1.011344 -0.036104
v -0.560606 1.011344 0.041425
v -0.560606 0.011344 0.041425
v 0.560606 0.011344 0.041425
v 0.560606 1.011344 0.041425
vn -0.0000 -0.0000 -1.0000
vn -0.0000 -0.0000 1.0000
vn 1.0000 -0.0000 -0.0000
vn -1.0000 -0.0000 -0.0000
vn -0.0000 1.0000 -0.0000
vn -0.0000 -1.0000 -0.0000
vt 0.000000 0.000000
vt 0.000000 1.000000
vt 1.000000 1.000000
vt 1.000000 0.000000
s 0
usemtl cat1_front
f 1/1/1 3/2/1 4/3/1 2/4/1
f 5/1/2 6/4/2 8/3/2 7/2/2
f 2/4/3 4/3/3 8/3/3 6/4/3
f 3/2/4 1/1/4 5/1/4 7/2/4
f 4/3/5 3/2/5 7/2/5 8/3/5
f 1/1/6 2/4/6 6/4/6 5/1/6
f 14/1/2 15/4/2 16/3/2 13/2/2
f 11/4/3 12/3/3 16/3/3 15/4/3
f 9/2/4 10/1/4 14/1/4 13/2/4
f 12/3/5 9/2/5 13/2/5 16/3/5
f 10/1/6 11/4/6 15/4/6 14/1/6
usemtl cat1_back
f 10/4/1 9/3/1 12/2/1 11/1/1
