# Blender 4.5.4 LTS
# www.blender.org
mtllib Cat_01.mtl
o Cube.004
v 0.232293 0.422655 0.073908
v 0.202916 0.774407 -0.000606
v 0.152698 0.774406 0.152091
v 0.174804 0.422655 0.322621
v -0.232293 0.422655 0.073908
v -0.202916 0.774406 -0.000606
v -0.152698 0.774406 -0.166530
v -0.174805 0.422655 -0.190348
v 0.174805 -0.002995 0.322621
v 0.174804 0.062272 0.322621
v 0.042432 0.114269 0.373270
v 0.042432 -0.002995 0.360479
v 0.000000 0.774406 -0.194089
v -0.038191 0.774406 -0.194089
v -0.058975 0.891469 -0.314034
v 0.000000 0.920071 -0.314034
v -0.313344 0.920071 -0.015225
v -0.235797 0.920071 -0.240743
v -0.045008 0.422655 -0.221493
v -0.232293 0.062272 0.073908
v -0.174804 0.062272 -0.095072
v 0.045008 0.422655 -0.221493
v 0.038191 0.774406 -0.194089
v 0.152698 0.774406 -0.166530
v 0.174804 0.422655 -0.190348
v 0.232293 0.062272 0.073908
v 0.108618 -0.002995 -0.230085
v 0.108960 0.045742 -0.240823
v 0.174804 0.045742 -0.205918
v 0.174804 -0.002995 -0.191478
v -0.108960 0.062272 -0.114847
v -0.043116 0.062272 -0.134621
v 0.042432 0.422655 0.360479
v -0.042432 0.114269 0.373270
v -0.042432 0.422655 0.360479
v -0.174804 0.422655 0.322621
v -0.174804 0.062272 0.322621
v 0.058974 0.891469 -0.314034
v 0.235797 0.920071 -0.240743
v 0.108960 0.062272 -0.114847
v 0.174804 0.062272 -0.095072
v 0.043116 0.062272 -0.134621
v -0.174804 -0.002995 0.322621
v -0.232293 -0.002995 0.073908
v 0.174804 -0.002995 -0.080633
v 0.232293 -0.002995 0.073908
v -0.042432 -0.002995 0.360479
v 0.042432 -0.002995 0.094339
v 0.108618 -0.002995 -0.104109
v -0.174804 -0.002995 -0.080633
v -0.042432 -0.002995 0.094339
v 0.042432 0.168666 0.445147
v 0.042432 0.073670 0.495645
v 0.000000 0.062272 -0.134621
v 0.000000 -0.002995 -0.127586
v -0.042432 -0.002995 -0.127586
v 0.313344 0.920071 -0.015225
v 0.000000 -0.002995 0.094339
v 0.042432 -0.002995 -0.127586
v 0.000000 0.422655 -0.221493
v 0.000000 0.774406 0.185162
v 0.000000 0.422655 0.360479
v 0.037066 0.774406 0.185162
v 0.235797 0.920071 0.192318
v 0.057237 0.920071 0.237266
v 0.000000 -0.002995 0.360479
v 0.000000 0.114269 0.373270
v 0.042432 -0.002995 -0.208145
v 0.043116 0.045742 -0.215180
v 0.000000 0.920071 0.237266
v -0.108618 -0.002995 -0.104109
v -0.193340 0.207630 0.130777
v -0.187951 0.234070 -0.073849
v -0.187951 0.389042 -0.028973
v -0.193340 0.441922 0.130777
v -0.193340 0.058609 0.130777
v -0.187951 0.059510 -0.002686
v -0.173464 0.058927 0.334048
v -0.173464 0.216962 0.334048
v -0.187951 0.387487 0.261541
v -0.173464 -0.001951 0.334048
v -0.193340 -0.001951 0.130777
v -0.187951 -0.001951 0.012093
v -0.193742 -0.000509 -0.128330
v -0.193742 0.036319 -0.142223
v -0.307747 0.207934 0.130777
v -0.307747 0.442227 0.130777
v -0.272287 0.389347 -0.028922
v -0.272287 0.234374 -0.073797
v -0.307747 0.058913 0.130777
v -0.286463 0.059815 -0.002635
v -0.272287 0.059231 0.349307
v -0.272287 0.217266 0.349307
v -0.272287 0.387791 0.261592
v -0.272287 -0.001646 0.349307
v -0.307747 -0.001646 0.130777
v -0.286463 -0.001646 0.012144
v -0.298343 0.035181 -0.109233
v -0.292921 -0.001646 -0.095340
v -0.256359 0.043132 -0.150317
v -0.250937 -0.001798 -0.136424
v -0.230119 -0.001798 0.355949
v -0.230119 0.059079 0.355949
v -0.230119 -0.001798 0.012118
v -0.236386 -0.001798 0.130777
v -0.230119 0.217114 0.356056
v -0.230119 0.399396 0.261567
v -0.265579 0.453831 0.130777
v -0.230119 0.400951 -0.028948
v -0.230119 0.234222 -0.082913
v -0.230119 0.059663 -0.002660
v 0.193340 0.207630 0.130777
v 0.193340 0.441923 0.130777
v 0.187951 0.389042 -0.028973
v 0.187951 0.234070 -0.073849
v 0.193340 0.058609 0.130777
v 0.187951 0.059510 -0.002686
v 0.173464 0.058927 0.334048
v 0.173464 0.216962 0.334048
v 0.187951 0.387487 0.261541
v 0.173464 -0.001951 0.334048
v 0.193340 -0.001951 0.130777
v 0.187951 -0.001951 0.012093
v 0.193742 0.036319 -0.142223
v 0.193742 -0.000509 -0.128330
v 0.307747 0.207934 0.130777
v 0.272287 0.234374 -0.073797
v 0.272287 0.389347 -0.028922
v 0.307747 0.442227 0.130777
v 0.307747 0.058913 0.130777
v 0.286463 0.059815 -0.002635
v 0.272287 0.059231 0.349307
v 0.272287 0.217266 0.349307
v 0.272287 0.387791 0.261592
v 0.272287 -0.001646 0.349307
v 0.307747 -0.001646 0.130777
v 0.286463 -0.001646 0.012144
v 0.292921 -0.001646 -0.095340
v 0.298343 0.035181 -0.109233
v 0.256359 0.043132 -0.150317
v 0.250937 -0.001798 -0.136424
v 0.230119 -0.001798 0.355948
v 0.230119 0.059079 0.355948
v 0.230119 -0.001798 0.012118
v 0.236386 -0.001798 0.130777
v 0.230119 0.217114 0.356056
v 0.230119 0.399396 0.261567
v 0.265579 0.453831 0.130777
v 0.230119 0.400951 -0.028948
v 0.230119 0.234222 -0.082913
v 0.230119 0.059663 -0.002660
v 0.000000 0.073670 0.513577
v 0.042432 0.238992 0.596246
v 0.000000 0.238992 0.614179
v -0.042432 0.073670 0.495645
v -0.042432 0.168666 0.445147
v 0.000000 0.172802 0.435250
v 0.042432 0.295729 0.504839
v 0.042432 0.480560 0.483932
v 0.042432 0.460795 0.589685
v -0.042432 0.295729 0.504839
v 0.000000 0.299865 0.494942
v -0.042432 0.238992 0.596246
v -0.042432 0.460795 0.589685
v -0.042432 0.480560 0.483932
v 0.000000 0.460795 0.599626
v 0.000000 0.481939 0.474323
v 0.206592 1.018856 -0.212251
v 0.050353 1.036661 -0.225775
v 0.038827 1.192541 -0.186815
v 0.167545 1.150931 -0.174156
v 0.267539 1.036661 -0.014563
v 0.206298 1.192541 -0.013679
v 0.000000 1.036661 0.201018
v 0.048870 1.036661 0.201018
v 0.037683 1.192541 0.152555
v 0.000000 1.192541 0.152555
v -0.206592 1.018856 -0.212251
v -0.267539 1.036661 -0.014563
v -0.206298 1.192541 -0.013679
v -0.167545 1.150931 -0.174156
v -0.201328 1.036661 0.162641
v -0.048870 1.036661 0.201018
v -0.037684 1.192541 0.152555
v -0.155243 1.192541 0.122962
v 0.201328 1.036661 0.162641
v 0.155243 1.192541 0.122962
v -0.152698 0.774406 0.152092
v -0.037066 0.774406 0.185162
v -0.057237 0.920071 0.237266
v -0.235797 0.920071 0.192318
v -0.037684 1.253887 0.001669
v -0.038827 1.192541 -0.186815
v -0.109227 1.384796 0.065877
v 0.000000 1.253887 0.001669
v 0.000000 1.192541 -0.186815
v 0.037683 1.253887 0.001669
v 0.000000 1.036661 -0.225775
v -0.050354 1.036661 -0.225775
v 0.218563 0.978366 0.177479
v 0.290442 0.978366 -0.014894
v -0.290442 0.978366 -0.014894
v -0.218563 0.978366 0.177479
v -0.054664 0.978366 -0.316467
v -0.221195 0.969463 -0.226497
v 0.000000 0.978366 -0.316467
v 0.053054 0.978366 0.219142
v -0.053054 0.978366 0.219142
v 0.000000 0.978366 0.219142
v 0.221194 0.969463 -0.226497
v 0.054664 0.978366 -0.316467
v -0.057900 1.259743 0.005782
v -0.111376 1.357592 0.053775
v -0.183933 1.213889 -0.005690
v 0.045769 0.978699 -0.326361
v 0.045769 0.978699 -0.234824
v 0.000000 0.930255 -0.234824
v 0.000000 0.930255 -0.326361
v 0.000000 0.978699 -0.234824
v 0.000000 0.978699 -0.326361
v -0.045769 0.978699 -0.234824
v -0.045769 0.978699 -0.326361
v 0.057900 1.259743 0.005782
v 0.111376 1.357592 0.053775
v 0.110561 1.352555 0.064952
v 0.057085 1.254706 0.016959
v -0.110561 1.352555 0.064952
v -0.183118 1.208852 0.005487
v -0.057085 1.254706 0.016959
v 0.183117 1.208852 0.005487
v 0.183932 1.213889 -0.005690
v 0.159432 0.795063 0.157322
v 0.211865 0.785378 -0.001816
v 0.211865 0.739810 0.000957
v 0.159432 0.749496 0.160095
v 0.153537 0.775436 -0.167439
v 0.000000 0.773106 -0.194894
v 0.000000 0.727538 -0.192121
v 0.153537 0.728731 -0.164769
v 0.000000 0.774219 -0.215419
v 0.000000 0.723944 -0.212359
v -0.169399 0.725232 -0.181401
v -0.169399 0.776762 -0.184347
v -0.153537 0.775436 -0.167439
v -0.211865 0.785378 -0.001816
v -0.211865 0.739810 0.000957
v -0.153537 0.728731 -0.164769
v 0.038700 0.751593 0.194560
v 0.038700 0.797161 0.191787
v -0.038700 0.797161 0.191787
v -0.038700 0.751593 0.194560
v -0.159433 0.795063 0.157322
v -0.159433 0.749496 0.160095
v 0.175904 0.798445 0.174070
v 0.175904 0.748170 0.177130
v 0.233753 0.737484 0.001551
v 0.233753 0.787759 -0.001509
v 0.169399 0.776762 -0.184347
v 0.169399 0.725232 -0.181401
v -0.233754 0.737484 0.001551
v -0.233754 0.787759 -0.001509
v 0.042699 0.800759 0.212096
v 0.042699 0.750484 0.215156
v -0.042699 0.800759 0.212096
v -0.042699 0.750484 0.215156
v -0.175904 0.798445 0.174070
v -0.175904 0.748170 0.177130
v -0.046584 0.683722 -0.204002
v 0.000000 0.683722 -0.204002
v -0.032940 0.716469 -0.200438
v 0.000000 0.637412 -0.209043
v -0.032940 0.650976 -0.207567
v 0.046584 0.683722 -0.204002
v 0.032940 0.650976 -0.207567
v 0.000000 0.730033 -0.198961
v 0.032940 0.716469 -0.200438
v -0.046584 0.685757 -0.222694
v -0.032940 0.718504 -0.219129
v 0.000000 0.685757 -0.222694
v 0.000000 0.639446 -0.227735
v -0.032940 0.653010 -0.226258
v 0.046584 0.685757 -0.222694
v 0.032940 0.653010 -0.226258
v 0.000000 0.732068 -0.217653
v 0.032940 0.718504 -0.219129
v -0.125882 1.110867 -0.214872
v -0.118154 1.107366 -0.217437
v -0.126970 1.099938 -0.218544
v -0.138349 1.100363 -0.216437
v -0.134247 1.107966 -0.214458
v -0.128057 1.089009 -0.222216
v -0.135785 1.092510 -0.219651
v -0.115590 1.099513 -0.220651
v -0.119692 1.091910 -0.222631
v -0.123454 1.105882 -0.200753
v -0.124542 1.094952 -0.204425
v -0.115726 1.102380 -0.203318
v -0.135921 1.095377 -0.202318
v -0.131819 1.102981 -0.200339
v -0.125629 1.084023 -0.208097
v -0.133357 1.087524 -0.205532
v -0.113162 1.094528 -0.206532
v -0.117264 1.086924 -0.208512
v 0.104438 1.110543 -0.215478
v 0.105974 1.098864 -0.219326
v 0.096395 1.106702 -0.218720
v 0.117986 1.099458 -0.216335
v 0.113381 1.107543 -0.214490
v 0.107511 1.087185 -0.223173
v 0.115554 1.091026 -0.219931
v 0.093963 1.098269 -0.222316
v 0.098568 1.090185 -0.224161
v 0.100988 1.105173 -0.200554
v 0.092945 1.101332 -0.203796
v 0.102524 1.093494 -0.204402
v 0.114535 1.094088 -0.201411
v 0.109931 1.102173 -0.199566
v 0.104060 1.081815 -0.208249
v 0.112104 1.085656 -0.205007
v 0.090513 1.092899 -0.207393
v 0.095117 1.084815 -0.209237
v -0.043116 0.045742 -0.215180
v -0.108960 0.045742 -0.240823
v -0.108618 -0.002995 -0.230085
v -0.042432 -0.002995 -0.208145
v -0.174804 0.045742 -0.205918
v -0.174804 -0.002995 -0.191478
v 0.042432 0.619474 0.623524
v 0.000000 0.619474 0.633465
v 0.042432 0.689547 0.712404
v 0.000000 0.677791 0.712404
v -0.042432 0.673431 0.530448
v 0.000000 0.674809 0.520839
v 0.042432 0.673431 0.530448
v -0.042432 0.619474 0.623524
v 0.042432 0.775344 0.647496
v 0.042432 0.779996 0.815619
v 0.042432 0.684137 0.766779
v -0.042432 0.775344 0.647496
v 0.000000 0.788720 0.647496
v -0.042432 0.689547 0.712404
v 0.000000 0.672381 0.766779
v 0.042432 0.634609 0.792497
v 0.000000 0.634609 0.778378
v -0.042432 0.684137 0.766779
v -0.042432 0.779996 0.815619
v 0.000000 0.793371 0.815619
v 0.000000 0.659305 0.904592
v -0.042432 0.659305 0.897208
v -0.042432 0.544278 0.924338
v 0.000000 0.544278 0.931722
v 0.042432 0.659305 0.897208
v -0.042432 0.634609 0.792497
v 0.042432 0.519582 0.819626
v 0.042432 0.544278 0.924338
v 0.033873 0.509492 0.921394
v 0.033873 0.489777 0.837804
v -0.042432 0.519582 0.819626
v 0.000000 0.519582 0.805507
v 0.000000 0.505268 0.921394
v 0.000000 0.485552 0.823685
v -0.033873 0.489777 0.837804
v -0.033873 0.509492 0.921394
v 0.109227 1.384796 0.065877
v -0.113634 1.116778 -0.210529
v -0.092426 1.107169 -0.217569
v -0.116619 1.086786 -0.220607
v -0.147847 1.087951 -0.214825
v -0.136590 1.108817 -0.209393
v -0.119603 1.056794 -0.230684
v -0.140811 1.066402 -0.223644
v -0.085390 1.085621 -0.226388
v -0.096647 1.064754 -0.231821
v -0.106971 1.103096 -0.171783
v -0.109956 1.073104 -0.181861
v -0.085763 1.093488 -0.178823
v -0.141184 1.074269 -0.176080
v -0.129927 1.095135 -0.170647
v -0.112941 1.043111 -0.191939
v -0.134148 1.052720 -0.184899
v -0.078727 1.071938 -0.187643
v -0.089985 1.051072 -0.193075
v 0.113772 1.116783 -0.208600
v 0.117711 1.086831 -0.218467
v 0.093144 1.106932 -0.216914
v 0.148515 1.088356 -0.210797
v 0.136707 1.109088 -0.206066
v 0.121651 1.056879 -0.228334
v 0.142278 1.066730 -0.220020
v 0.086908 1.085306 -0.226137
v 0.098716 1.064573 -0.230868
v 0.104923 1.103011 -0.170327
v 0.084296 1.093160 -0.178640
v 0.108863 1.073059 -0.180194
v 0.139666 1.074583 -0.172523
v 0.127858 1.095316 -0.167793
v 0.112802 1.043107 -0.190060
v 0.133430 1.052958 -0.181747
v 0.078059 1.071534 -0.187864
v 0.089867 1.050801 -0.192594
vn 0.7269 -0.6868 -0.0000
vn -0.0000 1.0000 -0.0000
vn -0.7269 -0.6868 -0.0000
vn -0.0000 -0.0000 -1.0000
vn 0.8953 -0.4269 -0.1271
vn 0.9038 -0.3616 -0.2289
vn -0.0663 0.4099 -0.9097
vn 0.0663 0.4099 -0.9097
vn -0.3448 0.8461 0.4064
vn -0.8953 -0.4269 -0.1271
vn -0.9038 -0.3616 -0.2289
vn 0.3448 0.8461 0.4064
vn 0.3448 0.8461 0.4065
vn -0.1600 0.3287 -0.9308
vn -0.1601 0.3287 -0.9308
vn 0.1600 -0.3286 0.9308
vn 0.1601 -0.3287 0.9308
vn 0.1601 -0.3286 0.9308
vn 0.4628 0.8579 0.2233
vn -0.8719 0.3950 0.2894
vn -0.8719 0.3951 0.2894
vn -0.4628 -0.8579 -0.2234
vn 0.8719 -0.3950 -0.2894
vn 0.9438 0.3273 -0.0467
vn -0.2893 0.8859 0.3625
vn -0.9438 -0.3273 0.0467
vn 0.2892 -0.8859 -0.3626
vn 0.2126 0.3309 -0.9194
vn 0.2125 0.3308 -0.9194
vn 0.2126 0.3308 -0.9194
vn 0.2125 0.3308 -0.9195
vn 0.2125 0.3309 -0.9194
vn -0.2126 -0.3309 0.9194
vn -0.2126 -0.3308 0.9194
vn -0.4854 0.8524 0.1945
vn 0.8480 0.4050 0.3418
vn 0.8481 0.4049 0.3418
vn 0.4854 -0.8524 -0.1945
vn 0.4854 -0.8524 -0.1944
vn -0.8480 -0.4050 -0.3418
vn -0.9429 0.3163 -0.1042
vn 0.2564 0.8891 0.3792
vn 0.9429 -0.3164 0.1042
vn 0.9429 -0.3163 0.1042
vn -0.2564 -0.8891 -0.3792
vn -0.0106 0.9855 -0.1693
vn 0.0177 0.9883 -0.1512
vn 0.0506 0.9902 -0.1299
vn -0.2476 0.4352 0.8656
vn -0.9480 0.1524 0.2794
vn -0.9561 0.1621 0.2442
vn -0.9605 0.1680 0.2220
vn 0.9707 0.0492 -0.2351
vn 0.9640 0.0624 -0.2585
vn 0.9765 0.0366 -0.2124
vn 0.3391 -0.1730 -0.9247
vn 0.3294 -0.1580 -0.9309
vn 0.3119 -0.1314 -0.9410
vn -1.0000 -0.0000 -0.0000
vn -0.0000 -1.0000 -0.0000
vn 0.9999 0.0116 -0.0010
vn 0.9999 0.0123 -0.0016
vn 0.9999 0.0136 -0.0028
vn -0.4780 -0.2286 -0.8481
vn -0.4705 -0.2144 -0.8560
vn -0.4881 -0.2479 -0.8368
vn -0.0524 0.9885 -0.1415
vn -0.0614 0.9889 -0.1351
vn -0.0443 0.9881 -0.1474
vn 0.2233 -0.2033 0.9533
vn 0.1601 -0.7794 0.6058
vn 0.1973 -0.7834 0.5894
vn 0.2175 -0.7851 0.5800
vn -0.2221 0.2286 -0.9479
vn 1.0000 -0.0000 -0.0000
vn -0.1813 0.7398 -0.6480
vn -0.2198 0.7269 -0.6506
vn -0.2282 0.7239 -0.6511
vn 0.2041 -0.3838 -0.9006
vn 0.2121 -0.3759 -0.9020
vn 0.3031 -0.2797 -0.9110
vn 0.2658 -0.9593 -0.0954
vn -0.3005 0.9534 -0.0264
vn -0.1670 0.2263 0.9596
vn -0.1673 0.5462 0.8208
vn -0.1482 0.5525 0.8202
vn -0.1717 0.5447 0.8208
vn 0.9683 -0.2431 0.0573
vn 0.3081 -0.2184 -0.9259
vn 0.1014 -0.9700 0.2208
vn 0.0554 -0.9775 0.2036
vn 0.1205 -0.9662 0.2279
vn -0.9683 -0.2431 0.0573
vn 0.3297 -0.5062 -0.7969
vn 0.3241 -0.4999 -0.8031
vn 0.2816 -0.4521 -0.8463
vn -0.1029 -0.1897 0.9764
vn -0.1040 -0.1887 0.9765
vn -0.0319 -0.2558 0.9662
vn 0.8901 0.3118 0.3326
vn -0.8973 0.4089 0.1662
vn 0.2307 0.3273 0.9163
vn 0.1029 -0.1897 0.9764
vn 0.1040 -0.1887 0.9765
vn 0.1701 -0.1246 0.9775
vn -0.3297 -0.5062 -0.7969
vn -0.3241 -0.4999 -0.8031
vn -0.3775 -0.5588 -0.7384
vn -0.0554 -0.9775 0.2036
vn -0.1014 -0.9700 0.2208
vn -0.1205 -0.9662 0.2279
vn -0.3081 -0.2184 -0.9259
vn 0.1673 0.5462 0.8208
vn 0.1482 0.5525 0.8202
vn 0.1427 0.5543 0.8200
vn 0.1670 0.2263 0.9596
vn 0.3005 0.9534 -0.0264
vn -0.2658 -0.9593 -0.0954
vn -0.2041 -0.3838 -0.9006
vn -0.2121 -0.3759 -0.9020
vn -0.1266 -0.4571 -0.8803
vn 0.1813 0.7398 -0.6480
vn 0.2198 0.7269 -0.6506
vn 0.1707 0.7431 -0.6470
vn 0.2221 0.2286 -0.9479
vn -0.1601 -0.7794 0.6058
vn -0.1973 -0.7834 0.5894
vn -0.1435 -0.7772 0.6127
vn -0.2233 -0.2033 0.9533
vn 0.4629 0.8578 0.2233
vn -0.9429 0.3164 -0.1042
vn -0.0603 0.9778 -0.2006
vn -0.9400 0.1440 0.3092
vn 0.9541 0.0795 -0.2888
vn 0.3557 -0.1987 -0.9132
vn 0.9999 0.0105 -0.0000
vn -0.4595 -0.1942 -0.8667
vn -0.0688 0.9892 -0.1298
vn 0.1435 -0.7772 0.6127
vn -0.1707 0.7431 -0.6470
vn 0.1266 -0.4571 -0.8803
vn -0.1427 0.5543 0.8200
vn 0.0398 -0.9795 0.1976
vn 0.3775 -0.5588 -0.7384
vn -0.1701 -0.1246 0.9775
vn 0.0319 -0.2558 0.9662
vn -0.2816 -0.4521 -0.8463
vn -0.0398 -0.9795 0.1976
vn 0.1717 0.5447 0.8208
vn -0.3031 -0.2797 -0.9110
vn 0.2282 0.7239 -0.6511
vn -0.2175 -0.7851 0.5800
vn 0.1600 -0.3287 0.9308
vn -0.2893 0.8859 0.3626
vn 0.2893 -0.8859 -0.3626
vn -0.2125 -0.3309 0.9194
vn 0.4855 -0.8524 -0.1945
vn -0.4628 -0.8578 -0.2233
vn 0.8719 -0.3951 -0.2894
vn -0.0000 -0.1082 0.9941
vn -0.0000 0.1082 -0.9941
vn -0.9239 0.3804 0.0414
vn -0.3827 -0.9185 -0.0999
vn 0.9239 -0.3804 -0.0414
vn 0.3827 0.9185 0.1000
vn -0.3827 0.9185 0.1000
vn -0.9239 -0.3804 -0.0414
vn 0.3827 -0.9185 -0.0999
vn 0.9239 0.3804 0.0414
vn 0.9561 0.1621 0.2442
vn 0.9480 0.1524 0.2794
vn 0.9605 0.1680 0.2220
vn -0.9640 0.0624 -0.2585
vn -0.9707 0.0492 -0.2351
vn -0.9765 0.0366 -0.2124
vn 0.2941 -0.0427 0.9548
vn 0.3080 -0.0745 0.9485
vn 0.2750 -0.0000 0.9615
vn 0.0664 -0.6976 -0.7134
vn 0.2603 -0.6239 -0.7369
vn 0.2946 -0.6075 -0.7377
vn -0.7693 -0.5873 -0.2514
vn -0.7687 -0.5892 -0.2489
vn -0.7728 -0.5763 -0.2657
vn -0.2331 0.0801 -0.9692
vn -0.2327 0.0802 -0.9692
vn -0.2326 0.0802 -0.9693
vn -0.9688 -0.0398 -0.2447
vn -0.9598 -0.0219 -0.2798
vn -0.9467 -0.0000 -0.3221
vn 0.2327 0.0802 -0.9692
vn 0.2331 0.0801 -0.9692
vn 0.2326 0.0802 -0.9693
vn 0.9743 -0.0000 0.2252
vn 0.4705 -0.2144 -0.8560
vn 0.4780 -0.2286 -0.8481
vn 0.4881 -0.2479 -0.8368
vn -0.2689 -0.2291 -0.9355
vn -0.2330 -0.2377 -0.9430
vn -0.2802 -0.2263 -0.9329
vn 0.2977 0.0290 0.9542
vn 0.3396 0.0087 0.9405
vn 0.3574 -0.0000 0.9340
vn -0.3396 0.0087 0.9405
vn -0.2977 0.0290 0.9542
vn -0.3574 -0.0000 0.9340
vn 0.2836 -0.6552 -0.7002
vn 0.3041 -0.6426 -0.7032
vn 0.3895 -0.5847 -0.7116
vn 0.0524 0.9885 -0.1415
vn 0.0614 0.9889 -0.1351
vn 0.0688 0.9892 -0.1298
vn 0.9598 -0.0219 -0.2798
vn 0.9688 -0.0398 -0.2447
vn 0.9467 -0.0000 -0.3221
vn -0.9743 -0.0000 0.2252
vn 0.2689 -0.2291 -0.9355
vn 0.2330 -0.2377 -0.9430
vn 0.2266 -0.2392 -0.9442
vn 0.9433 -0.0560 -0.3272
vn 0.9395 -0.0171 -0.3423
vn 0.9373 -0.0000 -0.3487
vn -0.3080 -0.0745 0.9485
vn -0.2941 -0.0427 0.9548
vn -0.2750 -0.0000 0.9615
vn -0.9395 -0.0171 -0.3423
vn -0.9433 -0.0560 -0.3272
vn -0.9373 -0.0000 -0.3487
vn -0.0000 -0.1072 -0.9942
vn 0.7693 -0.5873 -0.2514
vn 0.7687 -0.5892 -0.2489
vn 0.7640 -0.6024 -0.2312
vn -0.0000 0.0777 -0.9970
vn -0.0000 0.4461 0.8950
vn 0.2406 -0.3676 0.8983
vn 0.2389 -0.3687 0.8983
vn 0.2569 -0.3568 0.8982
vn -0.0000 0.0414 0.9991
vn -0.0000 -0.2343 -0.9722
vn -0.9999 0.0116 -0.0010
vn -0.9999 0.0123 -0.0016
vn -0.9999 0.0105 -0.0000
vn -0.2788 -0.2455 -0.9284
vn 0.2476 0.4352 0.8656
vn 0.0106 0.9855 -0.1693
vn -0.0177 0.9883 -0.1512
vn 0.0603 0.9778 -0.2006
vn -0.0000 -0.3368 0.9416
vn -0.3294 -0.1580 -0.9309
vn -0.3391 -0.1730 -0.9247
vn -0.3119 -0.1314 -0.9410
vn 0.2788 -0.2455 -0.9284
vn 0.9995 -0.0034 0.0300
vn 0.9995 -0.0034 0.0299
vn 0.9994 -0.0000 0.0337
vn 0.9991 0.0067 0.0413
vn 0.9991 0.0015 0.0421
vn 0.9953 -0.0000 -0.0973
vn 0.9968 0.0249 -0.0753
vn 0.9976 0.0185 -0.0665
vn 0.9942 0.0423 -0.0992
vn 0.9991 0.0072 0.0417
vn 0.9990 -0.0000 0.0454
vn 0.9991 -0.0136 -0.0396
vn 0.9991 -0.0108 -0.0409
vn 0.9991 -0.0099 -0.0413
vn -0.9813 0.0235 -0.1912
vn -0.9810 0.0223 -0.1925
vn -0.9852 0.0477 -0.1646
vn -0.9864 0.0062 -0.1642
vn -0.9864 0.0063 -0.1644
vn -0.9875 -0.0000 -0.1575
vn -0.9871 -0.0000 0.1602
vn -0.9762 0.0370 0.2137
vn -0.9785 0.0466 0.2011
vn -0.9844 0.0804 0.1563
vn -0.9852 -0.0114 -0.1710
vn -0.9863 -0.0281 -0.1626
vn -0.9843 -0.0000 -0.1766
vn -0.9970 -0.0106 0.0765
vn -0.9919 -0.0625 0.1105
vn -0.9981 0.0144 0.0600
vn -0.6456 -0.3166 -0.6950
vn -0.6492 -0.3274 -0.6866
vn -0.6386 -0.2966 -0.7100
vn -0.1556 -0.0003 0.9878
vn -0.1556 -0.0000 0.9878
vn -0.0029 -1.0000 -0.0000
vn -0.0026 -1.0000 -0.0000
vn -0.0016 -1.0000 -0.0023
vn -0.1373 0.4535 0.8806
vn -0.1268 0.4562 0.8808
vn -0.1393 0.4530 0.8806
vn -0.0031 -1.0000 0.0004
vn -0.0032 -1.0000 0.0004
vn -0.0034 -1.0000 0.0001
vn -0.0021 -1.0000 -0.0000
vn -0.2398 0.8715 0.4277
vn -0.2397 0.8716 0.4277
vn -0.2396 0.8716 0.4277
vn -0.1829 0.2785 -0.9429
vn -0.1016 0.3023 -0.9478
vn -0.0850 0.3068 -0.9480
vn -0.1576 -0.0001 0.9875
vn -0.1558 -0.0003 0.9878
vn -0.0681 0.9810 -0.1817
vn -0.1967 0.9755 -0.0982
vn 0.0025 0.9743 -0.2254
vn -0.2482 0.9018 -0.3537
vn -0.2483 0.9018 -0.3537
vn -0.0290 -0.3829 -0.9233
vn -0.1617 -0.4054 -0.8997
vn -0.1942 -0.4098 -0.8913
vn 0.1651 -0.4067 -0.8985
vn 0.0254 -0.3831 -0.9234
vn 0.1903 -0.4101 -0.8920
vn 0.1726 0.9438 -0.2818
vn 0.2357 0.9269 -0.2920
vn 0.1562 0.9475 -0.2790
vn 0.1037 0.9850 -0.1377
vn 0.0332 0.9871 -0.1565
vn 0.0035 0.9864 -0.1641
vn 0.3617 -0.0005 0.9323
vn 0.3607 -0.0001 0.9327
vn 0.3606 -0.0000 0.9327
vn 0.1026 0.3022 -0.9477
vn 0.1838 0.2784 -0.9427
vn 0.0861 0.3068 -0.9479
vn 0.1715 0.9217 0.3479
vn 0.2267 0.9057 0.3582
vn 0.2535 0.8967 0.3628
vn -0.0028 -1.0000 0.0001
vn -0.0036 -1.0000 0.0001
vn 0.0185 -0.9998 -0.0044
vn 0.0230 -0.9997 -0.0032
vn 0.1631 0.4474 0.8793
vn 0.3037 0.4036 0.8631
vn 0.3339 0.3927 0.8569
vn -0.0036 -1.0000 -0.0052
vn 0.1194 -0.3221 -0.9391
vn 0.1091 -0.3075 -0.9453
vn 0.0925 -0.2839 -0.9544
vn -0.9995 -0.0034 0.0300
vn -0.9995 -0.0034 0.0299
vn -0.9996 0.0060 0.0276
vn -0.9991 0.0067 0.0413
vn -0.9991 0.0015 0.0421
vn -0.9953 -0.0000 -0.0973
vn -0.9976 0.0185 -0.0665
vn -0.9969 0.0249 -0.0753
vn -0.9942 0.0423 -0.0992
vn -0.9991 0.0072 0.0417
vn -0.9990 -0.0000 0.0454
vn -0.9991 -0.0108 -0.0409
vn -0.9991 -0.0136 -0.0396
vn -0.9991 -0.0099 -0.0413
vn 0.9813 0.0235 -0.1912
vn 0.9810 0.0223 -0.1925
vn 0.9762 -0.0000 -0.2168
vn 0.9864 0.0063 -0.1644
vn 0.9864 0.0062 -0.1642
vn 0.9875 -0.0000 -0.1575
vn 0.9871 -0.0000 0.1602
vn 0.9785 0.0466 0.2011
vn 0.9762 0.0370 0.2137
vn 0.9844 0.0804 0.1563
vn 0.9863 -0.0281 -0.1626
vn 0.9852 -0.0114 -0.1710
vn 0.9843 -0.0000 -0.1766
vn 0.9919 -0.0625 0.1105
vn 0.9970 -0.0106 0.0765
vn 0.9981 0.0144 0.0600
vn 0.6492 -0.3274 -0.6866
vn 0.6456 -0.3166 -0.6950
vn 0.6386 -0.2966 -0.7100
vn 0.1556 -0.0000 0.9878
vn 0.1556 -0.0003 0.9878
vn 0.0026 -1.0000 -0.0000
vn 0.0029 -1.0000 -0.0000
vn 0.0016 -1.0000 -0.0023
vn 0.1373 0.4535 0.8806
vn 0.1268 0.4562 0.8808
vn 0.1251 0.4566 0.8808
vn 0.0031 -1.0000 0.0004
vn 0.0032 -1.0000 0.0004
vn 0.0034 -1.0000 0.0001
vn 0.0032 -1.0000 0.0001
vn 0.2397 0.8716 0.4277
vn 0.2398 0.8715 0.4277
vn 0.2396 0.8716 0.4277
vn 0.1016 0.3023 -0.9478
vn 0.1829 0.2785 -0.9429
vn 0.0850 0.3068 -0.9480
vn 0.1558 -0.0003 0.9878
vn 0.1576 -0.0001 0.9875
vn 0.0681 0.9810 -0.1817
vn 0.1967 0.9755 -0.0982
vn 0.2463 0.9671 -0.0645
vn 0.2482 0.9018 -0.3537
vn 0.2483 0.9018 -0.3537
vn 0.2484 0.9018 -0.3537
vn 0.1617 -0.4054 -0.8997
vn 0.0290 -0.3829 -0.9233
vn 0.1942 -0.4098 -0.8913
vn -0.1651 -0.4067 -0.8985
vn -0.0254 -0.3831 -0.9234
vn 0.0019 -0.3775 -0.9260
vn -0.1726 0.9438 -0.2818
vn -0.2357 0.9269 -0.2920
vn -0.2595 0.9194 -0.2956
vn -0.0332 0.9871 -0.1565
vn -0.1037 0.9850 -0.1377
vn -0.0035 0.9864 -0.1641
vn -0.3607 -0.0001 0.9327
vn -0.3617 -0.0005 0.9323
vn -0.3606 -0.0000 0.9327
vn -0.1026 0.3022 -0.9477
vn -0.1838 0.2784 -0.9427
vn -0.2031 0.2723 -0.9405
vn -0.2267 0.9057 0.3582
vn -0.1715 0.9217 0.3479
vn -0.2535 0.8967 0.3628
vn 0.0028 -1.0000 0.0001
vn 0.0036 -1.0000 0.0001
vn -0.0185 -0.9998 -0.0044
vn 0.0036 -1.0000 -0.0052
vn -0.3037 0.4036 0.8631
vn -0.1631 0.4474 0.8793
vn -0.3339 0.3927 0.8569
vn -0.1194 -0.3221 -0.9391
vn -0.1091 -0.3075 -0.9453
vn -0.1390 -0.3495 -0.9266
vn 0.3396 -0.4889 0.8035
vn 0.0321 -0.8737 0.4855
vn 0.1605 -0.8793 0.4484
vn 0.1859 -0.8786 0.4399
vn -0.0643 0.7471 -0.6616
vn -0.1558 0.7692 -0.6198
vn -0.0000 0.7270 -0.6866
vn -0.2449 0.4123 -0.8775
vn 0.3695 0.0566 0.9275
vn 0.2492 0.0329 0.9679
vn 0.3886 0.0603 0.9194
vn -0.2157 -0.1098 -0.9703
vn -0.2161 -0.1099 -0.9702
vn 0.1449 0.2800 -0.9490
vn 0.1465 0.2786 -0.9492
vn 0.1167 0.3070 -0.9445
vn 0.8859 0.3498 -0.3046
vn -0.0000 0.2969 0.9549
vn -0.8859 0.3498 -0.3046
vn -0.2326 0.3039 0.9239
vn 0.2326 0.3039 0.9239
vn -0.2406 -0.3676 0.8983
vn -0.2389 -0.3687 0.8983
vn -0.2261 -0.3770 0.8982
vn -0.7885 -0.5479 0.2793
vn -0.7898 -0.5467 0.2781
vn -0.7764 -0.5595 0.2901
vn -0.2836 -0.6552 -0.7002
vn -0.3041 -0.6426 -0.7032
vn -0.1624 -0.7201 -0.6746
vn 0.7885 -0.5479 0.2793
vn 0.7898 -0.5467 0.2781
vn 0.8044 -0.5319 0.2645
vn -0.3091 0.9024 -0.3001
vn -0.3110 0.9023 -0.2986
vn -0.3006 0.9031 -0.3068
vn -0.2307 0.3273 0.9163
vn -0.0000 0.9509 -0.3095
vn -0.0000 0.9264 0.3766
vn 0.3091 0.9024 -0.3001
vn 0.3110 0.9023 -0.2986
vn 0.3201 0.9014 -0.2915
vn -0.0000 0.2425 -0.9702
vn -0.1449 0.2800 -0.9490
vn -0.1465 0.2786 -0.9492
vn -0.1747 0.2509 -0.9521
vn -0.8797 0.3437 0.3287
vn 0.8797 0.3437 0.3287
vn -0.8901 0.3118 0.3326
vn 0.8973 0.4089 0.1662
vn -0.2191 0.7583 -0.6140
vn -0.3794 0.5294 -0.7588
vn -0.1412 0.8358 -0.5305
vn -0.0000 0.8412 -0.5407
vn 0.2191 0.7583 -0.6140
vn 0.3794 0.5294 -0.7588
vn 0.4570 0.3686 -0.8095
vn 0.4505 0.0624 -0.8906
vn 0.3575 0.2623 -0.8963
vn 0.3106 0.3471 -0.8849
vn 0.0087 -0.0335 -0.9994
vn 0.0069 -0.0353 -0.9994
vn -0.0000 -0.0417 -0.9991
vn -0.4505 0.0624 -0.8906
vn -0.3575 0.2623 -0.8963
vn -0.4753 -0.0011 -0.8798
vn -0.0087 -0.0335 -0.9994
vn -0.0069 -0.0353 -0.9994
vn -0.0139 -0.0287 -0.9995
vn 0.2157 -0.1098 -0.9703
vn 0.2161 -0.1099 -0.9702
vn 0.2156 -0.1098 -0.9703
vn -0.3695 0.0566 0.9275
vn -0.2492 0.0329 0.9679
vn -0.2280 0.0288 0.9732
vn 0.2449 0.4123 -0.8775
vn 0.0643 0.7471 -0.6616
vn 0.1558 0.7692 -0.6198
vn 0.2134 0.7790 -0.5896
vn -0.0321 -0.8737 0.4855
vn -0.1605 -0.8793 0.4484
vn -0.0000 -0.8698 0.4934
vn -0.3396 -0.4889 0.8035
vn -0.0664 -0.6976 -0.7134
vn -0.2603 -0.6239 -0.7369
vn -0.0000 -0.7157 -0.6985
vn 0.9400 0.1440 0.3092
vn -0.9541 0.0795 -0.2888
vn 0.3200 -0.1027 0.9418
vn -0.7640 -0.6024 -0.2312
vn -0.2332 0.0800 -0.9691
vn -0.9756 -0.0561 -0.2122
vn 0.2332 0.0800 -0.9691
vn 0.4595 -0.1942 -0.8667
vn -0.2266 -0.2392 -0.9442
vn 0.2748 0.0398 0.9607
vn -0.2748 0.0398 0.9607
vn 0.1624 -0.7201 -0.6746
vn 0.0443 0.9881 -0.1474
vn 0.9756 -0.0561 -0.2122
vn 0.2802 -0.2263 -0.9329
vn 0.9443 -0.0711 -0.3213
vn -0.3200 -0.1027 0.9418
vn -0.9443 -0.0711 -0.3213
vn 0.7728 -0.5763 -0.2657
vn 0.2261 -0.3770 0.8982
vn -0.9999 0.0136 -0.0028
vn -0.0506 0.9902 -0.1299
vn -0.3557 -0.1987 -0.9132
vn 0.9996 0.0060 0.0276
vn 0.9992 -0.0000 -0.0412
vn 0.9991 -0.0147 -0.0390
vn -0.9762 -0.0000 -0.2168
vn -0.9855 0.0110 -0.1694
vn -0.9652 -0.0000 0.2616
vn -0.9868 -0.0379 -0.1577
vn -0.9866 -0.0955 0.1320
vn -0.6561 -0.3490 -0.6691
vn -0.1251 0.4566 0.8808
vn -0.0032 -1.0000 0.0001
vn -0.2024 0.2724 -0.9407
vn -0.1580 -0.0000 0.9874
vn -0.2463 0.9671 -0.0645
vn -0.2484 0.9018 -0.3537
vn -0.0014 -0.3774 -0.9260
vn -0.0019 -0.3775 -0.9260
vn 0.2595 0.9194 -0.2956
vn 0.1241 0.9834 -0.1322
vn 0.3621 -0.0006 0.9321
vn 0.2031 0.2723 -0.9405
vn 0.1527 0.9264 0.3442
vn 0.1294 0.4563 0.8803
vn 0.1390 -0.3495 -0.9266
vn -0.9994 -0.0000 0.0337
vn -0.9992 -0.0000 -0.0412
vn -0.9991 -0.0147 -0.0390
vn 0.9852 0.0477 -0.1646
vn 0.9855 0.0110 -0.1694
vn 0.9652 -0.0000 0.2616
vn 0.9868 -0.0379 -0.1577
vn 0.9866 -0.0955 0.1320
vn 0.6561 -0.3490 -0.6691
vn 0.0021 -1.0000 -0.0000
vn 0.1393 0.4530 0.8806
vn 0.2024 0.2724 -0.9407
vn 0.1580 -0.0000 0.9874
vn -0.0025 0.9743 -0.2254
vn 0.0014 -0.3774 -0.9260
vn -0.1903 -0.4101 -0.8920
vn -0.1562 0.9475 -0.2790
vn -0.1241 0.9834 -0.1322
vn -0.3621 -0.0006 0.9321
vn -0.0861 0.3068 -0.9479
vn -0.1527 0.9264 0.3442
vn -0.0230 -0.9997 -0.0032
vn -0.1294 0.4563 0.8803
vn -0.0925 -0.2839 -0.9544
vn -0.2134 0.7790 -0.5896
vn 0.2280 0.0288 0.9732
vn -0.2156 -0.1098 -0.9703
vn 0.1747 0.2509 -0.9521
vn -0.2569 -0.3568 0.8982
vn -0.8044 -0.5319 0.2645
vn -0.3895 -0.5847 -0.7116
vn 0.7764 -0.5595 0.2901
vn -0.3201 0.9014 -0.2915
vn 0.3006 0.9031 -0.3068
vn -0.1167 0.3070 -0.9445
vn -0.4570 0.3686 -0.8095
vn 0.1412 0.8358 -0.5305
vn 0.4753 -0.0011 -0.8798
vn 0.0139 -0.0287 -0.9995
vn -0.3106 0.3471 -0.8849
vn -0.3886 0.0603 0.9194
vn -0.1859 -0.8786 0.4399
vn -0.2946 -0.6074 -0.7377
vn -0.9499 -0.0190 -0.3118
vn -0.1757 0.0591 0.9827
vn -0.1764 0.0568 0.9827
vn -0.1766 0.0562 0.9827
vn -0.1801 -0.0591 -0.9819
vn -0.1808 -0.0568 -0.9819
vn -0.1809 -0.0561 -0.9819
vn 0.9435 0.0191 0.3308
vn 0.9434 0.0199 0.3310
vn 0.9435 0.0189 0.3308
vn -0.2750 -0.0584 -0.9597
vn -0.0000 -0.0607 -0.9982
vn -0.9435 0.0191 0.3308
vn -0.9434 0.0199 0.3310
vn -0.9434 0.0201 0.3310
vn 0.2750 -0.0584 -0.9597
vn 0.9499 -0.0190 -0.3118
vn 0.9499 0.0190 0.3118
vn 0.1808 -0.0568 -0.9819
vn 0.1801 -0.0591 -0.9819
vn 0.1809 -0.0561 -0.9819
vn 0.0248 0.9982 0.0542
vn 0.0250 0.9982 0.0548
vn 0.0248 0.9982 0.0541
vn -0.9436 -0.0191 -0.3307
vn -0.9435 -0.0199 -0.3308
vn -0.9435 -0.0201 -0.3309
vn 0.2750 0.0584 0.9597
vn -0.0000 0.0608 0.9982
vn 0.9435 -0.0199 -0.3308
vn 0.9436 -0.0191 -0.3307
vn 0.9435 -0.0201 -0.3309
vn -0.2750 0.0584 0.9597
vn -0.9499 0.0190 0.3118
vn -0.0250 0.9982 0.0548
vn -0.0248 0.9982 0.0542
vn -0.0248 0.9982 0.0541
vn -0.1063 0.9898 -0.0953
vn -0.0000 -0.9986 -0.0538
vn -0.0310 0.9852 -0.1685
vn 0.1068 0.9940 -0.0222
vn 0.1077 0.9939 -0.0217
vn 0.1078 0.9939 -0.0217
vn 0.0310 -0.9984 -0.0477
vn 0.0310 -0.9984 -0.0478
vn 0.0257 -0.9830 0.1817
vn 0.0237 -0.9842 0.1754
vn 0.0235 -0.9843 0.1748
vn -0.1077 0.9939 -0.0217
vn -0.1068 0.9940 -0.0222
vn -0.1078 0.9939 -0.0217
vn -0.0257 -0.9830 0.1817
vn -0.0237 -0.9842 0.1754
vn -0.0258 -0.9829 0.1822
vn -0.1063 -0.9940 0.0255
vn 0.1063 0.9898 -0.0953
vn -0.0310 -0.9984 -0.0478
vn -0.0310 -0.9984 -0.0477
vn 0.1080 -0.9887 0.1041
vn 0.1086 -0.9886 0.1044
vn 0.1079 -0.9887 0.1041
vn -0.1086 -0.9886 0.1044
vn -0.1080 -0.9887 0.1041
vn -0.1079 -0.9887 0.1041
vn -0.0000 0.9847 -0.1744
vn -0.0000 0.9847 -0.1745
vn 0.1063 -0.9940 0.0255
vn 0.0310 0.9852 -0.1685
vn 0.1757 0.0591 0.9827
vn 0.1764 0.0568 0.9827
vn 0.1755 0.0598 0.9827
vn -0.1755 0.0598 0.9827
vn -0.1799 -0.0598 -0.9819
vn 0.9434 0.0201 0.3310
vn -0.9435 0.0189 0.3308
vn 0.1799 -0.0598 -0.9819
vn -0.9436 -0.0189 -0.3306
vn 0.9436 -0.0189 -0.3306
vn 0.0258 -0.9829 0.1822
vn -0.0235 -0.9843 0.1748
vn 0.1766 0.0562 0.9827
vt 1.000000 0.000000
vt 0.000000 1.000000
vt 0.000000 0.000000
vt 1.000000 1.000000
s 1
usemtl F06292.001
f 216/1/1 218/2/1 215/3/1
f 219/3/2 215/4/2 220/2/2
f 219/1/2 222/2/2 221/3/2
f 218/1/3 221/2/3 222/3/3
f 220/3/4 218/1/4 222/4/4
f 215/3/4 218/1/4 220/4/4
f 224/1/5 226/2/5 223/3/5
f 214/3/6 227/4/6 228/2/6
f 229/3/7 228/1/7 227/4/7
f 230/3/8 226/1/8 225/4/8
f 214/1/9 229/2/9 212/3/9
f 213/3/10 229/4/10 227/2/10
f 231/1/11 225/2/11 224/3/11
f 231/3/12 226/4/12 230/2/12
f 216/1/1 217/4/1 218/2/1
f 219/3/2 216/1/2 215/4/2
f 219/1/2 220/4/2 222/2/2
f 218/1/3 217/4/3 221/2/3
f 224/1/5 225/4/5 226/2/5
f 214/3/6 213/1/6 227/4/6
f 214/1/9 228/4/9 229/2/9
f 213/3/10 212/1/10 229/4/10
f 231/1/11 230/4/11 225/2/11
f 231/3/12 223/1/13 226/4/12
usemtl FFFFFF.001
f 286/3/14 287/1/14 288/4/15
f 289/3/15 290/1/15 288/4/15
f 291/3/15 292/1/15 288/4/15
f 293/3/15 294/1/15 288/4/15
f 287/3/14 293/1/15 288/4/15
f 290/3/15 286/1/14 288/4/15
f 292/3/15 289/1/15 288/4/15
f 294/3/15 291/1/15 288/4/15
f 295/3/16 296/1/17 297/4/17
f 298/3/18 296/1/17 299/4/18
f 300/3/17 296/1/17 301/4/17
f 302/3/17 296/1/17 303/4/17
f 297/3/17 296/1/17 302/4/17
f 299/3/18 296/1/17 295/4/16
f 301/3/17 296/1/17 298/4/18
f 303/3/17 296/1/17 300/4/17
f 295/1/19 287/2/19 286/3/19
f 298/1/20 290/2/20 289/3/21
f 300/1/22 292/2/22 291/3/22
f 302/1/23 294/2/23 293/3/23
f 297/1/24 293/2/24 287/3/24
f 299/1/25 286/2/25 290/3/25
f 301/1/26 289/2/26 292/3/26
f 303/1/27 291/2/27 294/3/27
f 304/3/28 305/1/28 306/4/29
f 307/3/30 305/1/28 308/4/28
f 309/3/30 305/1/28 310/4/30
f 311/3/31 305/1/28 312/4/32
f 306/3/29 305/1/28 311/4/31
f 308/3/28 305/1/28 304/4/28
f 310/3/30 305/1/28 307/4/30
f 312/3/32 305/1/28 309/4/30
f 313/3/33 314/1/33 315/4/34
f 316/3/34 317/1/33 315/4/34
f 318/3/34 319/1/34 315/4/34
f 320/3/34 321/1/34 315/4/34
f 314/3/33 320/1/34 315/4/34
f 317/3/33 313/1/33 315/4/34
f 319/3/34 316/1/34 315/4/34
f 321/3/34 318/1/34 315/4/34
f 304/3/35 314/4/35 313/2/35
f 307/3/36 317/4/36 316/2/37
f 310/1/38 318/2/38 309/3/39
f 311/3/40 321/4/40 320/2/40
f 311/1/41 314/2/41 306/3/41
f 308/3/42 313/4/42 317/2/42
f 310/3/43 316/4/44 319/2/44
f 312/3/45 318/4/45 321/2/45
f 31/3/46 322/4/47 323/2/48
f 189/1/49 36/2/49 35/3/49
f 188/1/50 5/2/51 36/3/52
f 25/3/53 2/4/54 1/2/55
f 324/3/56 322/4/57 325/2/58
f 21/1/59 327/2/59 50/3/59
f 71/3/60 327/4/60 324/2/60
f 32/3/61 325/4/62 322/2/63
f 56/3/60 324/4/60 325/2/60
f 326/1/64 324/2/65 327/3/66
f 31/1/67 326/2/68 21/3/69
f 166/3/70 328/4/70 329/2/70
f 329/3/71 330/4/72 331/2/73
f 165/1/74 333/2/74 167/3/74
f 159/1/75 328/2/75 160/3/75
f 165/3/59 335/4/59 332/2/59
f 330/3/75 337/4/75 338/2/75
f 333/3/76 339/4/77 340/2/78
f 328/3/75 336/4/75 330/2/75
f 335/1/59 339/2/59 332/3/59
f 342/3/79 343/4/80 344/2/81
f 341/1/59 346/2/59 339/3/59
f 331/3/82 338/4/82 342/2/82
f 340/3/83 346/4/83 347/2/83
f 348/3/84 350/4/84 351/2/84
f 346/1/85 348/2/86 347/3/87
f 338/3/75 352/4/75 343/2/75
f 345/1/59 349/2/59 346/3/59
f 354/3/88 356/4/88 357/2/88
f 352/1/75 354/2/75 343/3/75
f 353/1/59 350/2/59 349/3/59
f 343/1/89 359/2/89 344/3/89
f 360/3/90 357/4/91 356/2/92
f 358/1/93 363/2/93 350/3/93
f 354/1/94 361/2/95 359/3/96
f 351/3/97 363/4/98 360/2/99
f 187/3/100 173/1/100 364/4/100
f 197/3/101 176/1/101 364/4/101
f 176/3/102 187/1/102 364/4/102
f 197/3/8 224/4/8 223/2/8
f 364/3/8 231/4/8 224/2/8
f 351/1/103 356/2/104 355/3/105
f 358/3/106 361/4/107 362/2/108
f 362/1/109 360/2/110 363/3/111
f 353/3/112 359/4/112 358/2/112
f 337/3/113 348/4/114 352/2/115
f 348/1/116 355/2/116 352/3/116
f 340/1/117 337/2/117 336/3/117
f 331/1/118 345/2/118 341/3/118
f 342/1/119 353/2/120 345/3/121
f 333/1/122 336/2/123 334/3/124
f 159/3/125 333/4/125 334/2/125
f 329/1/126 341/2/127 335/3/128
f 166/1/129 335/2/129 164/3/129
f 197/1/8 231/2/8 173/3/8
f 295/1/19 297/4/130 287/2/19
f 298/1/20 299/4/20 290/2/20
f 300/1/22 301/4/22 292/2/22
f 302/1/23 303/4/23 294/2/23
f 297/1/24 302/4/24 293/2/24
f 299/1/25 295/4/25 286/2/25
f 301/1/26 298/4/26 289/2/26
f 303/1/27 300/4/27 291/2/27
f 304/3/35 306/1/35 314/4/35
f 307/3/36 308/1/36 317/4/36
f 310/1/38 319/4/38 318/2/38
f 311/3/40 312/1/40 321/4/40
f 311/1/41 320/4/131 314/2/41
f 308/3/42 304/1/42 313/4/42
f 310/3/43 307/1/43 316/4/44
f 312/3/45 309/1/45 318/4/45
f 31/3/46 32/1/132 322/4/47
f 189/1/49 188/4/49 36/2/49
f 188/1/50 6/4/133 5/2/51
f 25/3/53 24/1/134 2/4/54
f 324/3/56 323/1/135 322/4/57
f 21/1/59 326/4/59 327/2/59
f 71/3/60 50/1/60 327/4/60
f 32/3/61 56/1/136 325/4/62
f 56/3/60 71/1/60 324/4/60
f 326/1/64 323/4/137 324/2/65
f 31/1/67 323/4/138 326/2/68
f 166/3/70 160/1/70 328/4/70
f 329/3/71 328/1/139 330/4/72
f 165/1/74 332/4/74 333/2/74
f 159/1/75 334/4/75 328/2/75
f 165/3/59 164/1/59 335/4/59
f 330/3/75 336/1/75 337/4/75
f 333/3/76 332/1/140 339/4/77
f 328/3/75 334/1/75 336/4/75
f 335/1/59 341/4/59 339/2/59
f 342/3/79 338/1/141 343/4/80
f 341/1/59 345/4/59 346/2/59
f 331/3/82 330/1/82 338/4/82
f 340/3/83 339/1/83 346/4/83
f 348/3/84 349/1/84 350/4/84
f 346/1/85 349/4/142 348/2/86
f 338/3/75 337/1/75 352/4/75
f 345/1/59 353/4/59 349/2/59
f 354/3/88 355/1/88 356/4/88
f 352/1/75 355/4/75 354/2/75
f 353/1/59 358/4/59 350/2/59
f 343/1/89 354/4/89 359/2/89
f 360/3/90 361/1/143 357/4/91
f 358/1/93 362/4/93 363/2/93
f 354/1/94 357/4/144 361/2/95
f 351/3/97 350/1/145 363/4/98
f 197/3/8 364/1/8 224/4/8
f 364/3/8 173/1/8 231/4/8
f 351/1/103 360/4/146 356/2/104
f 358/3/106 359/1/147 361/4/107
f 362/1/109 361/4/148 360/2/110
f 353/3/112 344/1/112 359/4/112
f 337/3/113 347/1/149 348/4/114
f 348/1/116 351/4/116 355/2/116
f 340/1/117 347/4/117 337/2/117
f 331/1/118 342/4/118 345/2/118
f 342/1/119 344/4/150 353/2/120
f 333/1/122 340/4/151 336/2/123
f 159/3/125 167/1/125 333/4/125
f 329/1/126 331/4/152 341/2/127
f 166/1/129 329/4/129 335/2/129
f 197/1/8 223/4/8 231/2/8
usemtl 1A1A1A.001
f 365/3/14 366/1/14 367/4/15
f 368/3/15 369/1/15 367/4/15
f 370/3/15 371/1/15 367/4/15
f 372/3/14 373/1/15 367/4/15
f 366/3/14 372/1/14 367/4/15
f 369/3/15 365/1/14 367/4/15
f 371/3/15 368/1/15 367/4/15
f 373/3/15 370/1/15 367/4/15
f 374/3/17 375/1/17 376/4/17
f 377/3/153 375/1/17 378/4/153
f 379/3/17 375/1/17 380/4/17
f 381/3/17 375/1/17 382/4/17
f 376/3/17 375/1/17 381/4/17
f 378/3/153 375/1/17 374/4/17
f 380/3/17 375/1/17 377/4/153
f 382/3/17 375/1/17 379/4/17
f 374/1/19 366/2/19 365/3/19
f 377/1/20 369/2/20 368/3/20
f 379/1/22 371/2/22 370/3/22
f 381/1/23 373/2/23 372/3/23
f 376/1/24 372/2/24 366/3/24
f 369/3/154 374/4/154 365/2/154
f 371/3/26 377/4/26 368/2/26
f 382/1/155 370/2/155 373/3/27
f 383/3/30 384/1/30 385/4/30
f 386/3/30 384/1/30 387/4/28
f 388/3/30 384/1/30 389/4/30
f 390/3/30 384/1/30 391/4/28
f 385/3/30 384/1/30 390/4/30
f 387/3/28 384/1/30 383/4/30
f 389/3/30 384/1/30 386/4/30
f 391/3/28 384/1/30 388/4/30
f 392/3/34 393/1/156 394/4/34
f 395/3/33 396/1/34 394/4/34
f 397/3/34 398/1/34 394/4/34
f 399/3/34 400/1/34 394/4/34
f 393/3/156 399/1/34 394/4/34
f 396/3/34 392/1/34 394/4/34
f 398/3/34 395/1/33 394/4/34
f 400/3/34 397/1/34 394/4/34
f 383/3/35 393/4/35 392/2/35
f 386/3/36 396/4/36 395/2/36
f 389/1/38 397/2/38 388/3/157
f 391/1/40 399/2/40 390/3/40
f 390/1/41 393/2/41 385/3/41
f 383/1/42 396/2/42 387/3/42
f 389/3/44 395/4/44 398/2/44
f 388/1/45 400/2/45 391/3/45
f 374/1/19 376/4/19 366/2/19
f 377/1/20 378/4/20 369/2/20
f 379/1/22 380/4/158 371/2/22
f 381/1/23 382/4/159 373/2/23
f 376/1/24 381/4/24 372/2/24
f 369/3/154 378/1/154 374/4/154
f 371/3/26 380/1/26 377/4/26
f 382/1/155 379/4/155 370/2/155
f 383/3/35 385/1/35 393/4/35
f 386/3/36 387/1/36 396/4/36
f 389/1/38 398/4/38 397/2/38
f 391/1/40 400/4/40 399/2/40
f 390/1/41 399/4/131 393/2/41
f 383/1/42 392/4/42 396/2/42
f 389/3/44 386/1/43 395/4/44
f 388/1/45 397/4/45 400/2/45
usemtl FF9800
f 268/3/160 269/1/160 270/4/160
f 271/3/160 269/1/160 272/4/160
f 273/3/160 269/1/160 274/4/160
f 275/3/160 269/1/160 276/4/160
f 270/3/160 269/1/160 275/4/160
f 272/3/160 269/1/160 268/4/160
f 274/3/160 269/1/160 271/4/160
f 276/3/160 269/1/160 273/4/160
f 277/3/161 278/1/161 279/4/161
f 280/3/161 281/1/161 279/4/161
f 282/3/161 283/1/161 279/4/161
f 284/3/161 285/1/161 279/4/161
f 278/3/161 284/1/161 279/4/161
f 281/3/161 277/1/161 279/4/161
f 283/3/161 280/1/161 279/4/161
f 285/3/161 282/1/161 279/4/161
f 268/3/162 278/4/162 277/2/162
f 271/3/163 281/4/163 280/2/163
f 274/1/164 282/2/164 273/3/164
f 275/3/165 285/4/165 284/2/165
f 275/1/166 278/2/166 270/3/166
f 272/3/167 277/4/167 281/2/167
f 271/1/168 283/2/168 274/3/168
f 273/1/169 285/2/169 276/3/169
f 268/3/162 270/1/162 278/4/162
f 271/3/163 272/1/163 281/4/163
f 274/1/164 283/4/164 282/2/164
f 275/3/165 276/1/165 285/4/165
f 275/1/166 284/4/166 278/2/166
f 272/3/167 268/1/167 277/4/167
f 271/1/168 280/4/168 283/2/168
f 273/1/169 282/4/169 285/2/169
usemtl 795548
f 1/3/170 3/4/171 4/2/172
f 6/1/173 8/2/174 5/3/175
f 10/1/176 12/2/177 9/3/178
f 13/3/179 15/4/180 16/2/181
f 7/3/182 17/4/183 18/2/184
f 7/1/185 19/2/186 8/3/187
f 5/1/188 21/2/189 20/3/190
f 22/3/191 24/4/192 25/2/193
f 1/1/194 10/2/194 26/3/194
f 27/3/195 29/4/196 30/2/197
f 31/3/198 19/4/199 32/2/200
f 4/1/201 11/2/202 10/3/203
f 34/3/204 36/4/205 37/2/206
f 24/3/207 38/4/208 39/2/209
f 40/3/210 29/4/211 28/2/212
f 41/3/213 1/4/214 26/2/215
f 36/1/216 20/2/216 37/3/216
f 40/1/217 22/2/218 25/3/219
f 37/1/216 44/2/216 43/3/216
f 45/3/220 26/4/221 46/2/222
f 47/3/223 37/4/224 43/2/225
f 26/1/194 9/2/194 46/3/194
f 48/1/60 45/2/60 46/3/60
f 20/1/226 50/2/227 44/3/228
f 43/1/60 51/2/60 47/3/60
f 11/1/75 53/2/75 12/3/75
f 54/3/229 56/4/229 32/2/229
f 24/1/230 57/2/231 2/3/232
f 58/3/60 59/4/60 48/2/60
f 60/1/233 14/2/233 13/3/233
f 62/1/234 63/2/234 61/3/234
f 3/1/235 65/2/236 63/3/237
f 58/1/60 12/2/60 66/3/60
f 62/3/238 11/4/238 33/2/238
f 60/3/239 32/4/239 19/2/239
f 9/3/60 48/4/60 46/2/60
f 59/1/60 27/2/60 49/3/60
f 41/3/75 30/4/75 29/2/75
f 42/1/240 68/2/241 59/3/242
f 21/3/243 8/1/243 31/4/243
f 49/1/60 30/2/60 45/3/60
f 4/3/244 63/4/244 33/2/244
f 40/1/245 69/2/246 42/3/247
f 63/1/248 70/2/248 61/3/248
f 69/1/249 27/2/250 68/3/251
f 51/3/60 50/4/60 71/2/60
f 25/3/252 41/1/252 40/4/252
f 49/3/60 48/1/60 59/4/60
f 71/3/60 56/1/60 51/4/60
f 72/3/253 74/4/254 75/2/255
f 77/1/256 72/2/253 76/3/257
f 78/3/258 72/4/258 79/2/258
f 72/1/259 80/2/260 79/3/261
f 81/3/258 76/4/258 78/2/258
f 83/1/262 76/2/257 82/3/263
f 84/1/264 77/2/265 83/3/266
f 86/3/267 88/4/268 89/2/269
f 86/1/270 91/2/271 90/3/272
f 92/3/273 86/4/273 90/2/273
f 94/1/274 86/2/275 93/3/276
f 95/3/273 90/4/273 96/2/273
f 90/1/277 97/2/278 96/3/279
f 91/1/280 99/2/281 97/3/282
f 101/1/283 98/2/284 100/3/285
f 103/1/286 95/2/287 102/3/287
f 105/1/288 97/2/289 104/3/290
f 106/3/291 94/4/292 93/2/293
f 104/1/290 99/2/294 101/3/295
f 105/3/288 95/4/296 96/2/297
f 108/1/298 94/2/299 107/3/300
f 110/1/301 88/2/302 109/3/303
f 106/1/304 92/2/305 103/3/286
f 111/3/306 98/4/307 91/2/308
f 108/3/309 88/4/310 87/2/309
f 111/1/311 89/2/312 110/3/313
f 73/3/314 111/4/315 110/2/316
f 75/3/317 109/4/318 108/2/319
f 85/1/320 111/2/321 77/3/322
f 79/1/323 103/2/324 78/3/325
f 74/3/326 110/4/327 109/2/328
f 75/1/329 107/2/330 80/3/331
f 81/1/332 105/2/288 82/3/333
f 84/3/334 104/4/290 101/2/335
f 80/1/336 106/2/337 79/3/338
f 82/1/333 104/2/290 83/3/339
f 78/1/325 102/2/325 81/3/325
f 85/3/340 101/4/341 100/2/342
f 112/3/343 114/4/344 115/2/345
f 112/1/343 117/2/346 116/3/347
f 118/3/348 112/4/348 116/2/348
f 120/1/349 112/2/350 119/3/351
f 121/3/348 116/4/348 122/2/348
f 116/1/347 123/2/352 122/3/353
f 117/1/354 125/2/355 123/3/356
f 126/3/357 128/4/358 129/2/359
f 131/1/360 126/2/361 130/3/362
f 132/3/363 126/4/363 133/2/363
f 126/1/364 134/2/365 133/3/366
f 135/3/363 130/4/363 132/2/363
f 137/1/367 130/2/368 136/3/369
f 138/1/370 131/2/371 137/3/372
f 139/1/373 141/2/374 140/3/375
f 135/1/376 143/2/377 142/3/376
f 137/1/378 145/2/379 144/3/380
f 146/3/381 134/4/382 147/2/383
f 138/1/384 144/2/380 141/3/385
f 145/3/379 135/4/386 142/2/387
f 134/1/388 148/2/389 147/3/390
f 128/1/391 150/2/392 149/3/393
f 132/1/394 146/2/395 143/3/377
f 151/3/396 139/4/397 140/2/398
f 148/3/399 128/4/400 149/2/401
f 127/1/402 151/2/403 150/3/404
f 115/3/405 151/4/406 117/2/407
f 113/3/408 149/4/409 114/2/410
f 151/1/411 124/2/412 117/3/413
f 143/1/414 119/2/415 118/3/416
f 114/3/417 150/4/418 115/2/419
f 147/1/420 113/2/421 120/3/422
f 145/1/379 121/2/423 122/3/424
f 125/3/425 144/4/380 123/2/426
f 146/1/427 120/2/428 119/3/429
f 144/1/380 122/2/424 123/3/426
f 142/1/416 118/2/416 121/3/416
f 124/3/430 141/4/431 125/2/432
f 152/3/433 153/4/433 154/2/433
f 34/3/59 155/4/59 156/2/59
f 66/3/434 53/4/435 152/2/436
f 34/1/437 157/2/438 67/3/439
f 158/1/75 160/2/75 153/3/75
f 156/1/440 162/2/440 157/3/440
f 52/1/75 153/2/75 53/3/75
f 156/3/59 163/4/59 161/2/59
f 161/3/59 164/4/59 165/2/59
f 153/1/441 166/2/442 154/3/443
f 162/3/444 165/4/445 167/2/445
f 169/1/446 171/2/447 168/3/448
f 172/3/449 171/4/449 173/2/449
f 174/3/450 176/4/450 177/2/450
f 179/1/451 181/2/451 178/3/451
f 183/1/452 185/2/452 182/3/452
f 175/3/453 187/4/453 176/2/453
f 188/3/454 190/4/455 191/2/456
f 6/3/457 191/4/458 17/2/459
f 7/1/460 15/2/461 14/3/462
f 2/1/463 64/2/464 3/3/465
f 192/1/466 181/2/467 180/3/468
f 185/3/469 184/1/469 194/4/469
f 196/1/470 192/2/470 195/3/470
f 195/1/471 184/2/471 177/3/471
f 197/3/472 171/4/473 170/2/474
f 198/3/475 193/4/475 196/2/475
f 199/3/476 181/4/477 193/2/478
f 182/1/479 180/2/479 179/3/479
f 186/3/480 173/4/480 187/2/480
f 180/3/481 185/1/481 194/4/481
f 184/3/482 192/1/482 194/4/482
f 200/3/480 172/4/480 186/2/480
f 203/1/479 179/2/479 202/3/479
f 204/3/483 178/4/484 199/2/485
f 206/3/486 199/4/486 198/2/486
f 207/3/453 186/4/453 175/2/453
f 208/1/452 182/2/452 203/3/452
f 202/1/451 178/2/451 205/3/451
f 209/3/450 175/4/450 174/2/450
f 201/3/449 168/4/449 172/2/449
f 211/1/487 168/2/488 210/3/489
f 38/1/490 210/2/491 39/3/492
f 57/3/449 210/4/449 201/2/449
f 70/3/450 207/4/450 209/2/450
f 17/1/451 205/2/451 18/3/451
f 190/1/452 203/2/452 191/3/452
f 65/3/453 200/4/453 207/2/453
f 16/3/493 204/4/494 206/2/495
f 15/3/496 205/4/497 204/2/498
f 191/1/479 202/2/479 17/3/479
f 64/3/480 201/4/480 200/2/480
f 16/1/499 211/2/500 38/3/501
f 70/1/450 208/2/450 190/3/450
f 209/1/450 183/2/450 208/3/450
f 206/1/486 169/2/486 211/3/486
f 198/1/475 170/2/475 169/3/475
f 197/1/471 177/2/471 176/3/471
f 197/3/470 196/4/470 195/2/470
f 174/1/450 184/2/450 183/3/450
f 162/1/502 159/2/503 158/3/504
f 163/3/505 166/4/506 164/2/507
f 52/3/508 162/4/508 158/2/508
f 11/3/509 157/4/510 52/2/511
f 66/1/512 155/2/513 47/3/514
f 152/1/515 163/2/515 155/3/515
f 189/3/248 70/4/248 190/2/248
f 42/1/239 60/2/239 22/3/239
f 34/1/238 62/2/238 35/3/238
f 51/1/60 66/2/60 47/3/60
f 189/3/234 62/4/234 61/2/234
f 23/3/233 60/4/233 13/2/233
f 56/1/60 58/2/60 51/3/60
f 59/1/229 54/2/229 42/3/229
f 13/1/516 38/2/517 23/3/518
f 192/1/7 213/2/7 194/3/7
f 192/3/7 214/4/7 212/2/7
f 194/1/7 214/2/7 180/3/7
f 1/3/170 2/1/519 3/4/171
f 6/1/173 7/4/520 8/2/174
f 10/1/176 11/4/521 12/2/177
f 13/3/179 14/1/518 15/4/180
f 7/3/182 6/1/522 17/4/183
f 7/1/185 14/4/523 19/2/186
f 5/1/188 8/4/524 21/2/189
f 22/3/191 23/1/525 24/4/192
f 1/1/194 4/4/194 10/2/194
f 27/3/195 28/1/526 29/4/196
f 31/3/198 8/1/527 19/4/199
f 4/1/201 33/4/528 11/2/202
f 34/3/204 35/1/529 36/4/205
f 24/3/207 23/1/530 38/4/208
f 40/3/210 41/1/531 29/4/211
f 41/3/213 25/1/532 1/4/214
f 36/1/216 5/4/216 20/2/216
f 40/1/217 42/4/533 22/2/218
f 37/1/216 20/4/216 44/2/216
f 45/3/220 41/1/534 26/4/221
f 47/3/223 34/1/535 37/4/224
f 26/1/194 10/4/194 9/2/194
f 48/1/60 49/4/60 45/2/60
f 20/1/226 21/4/536 50/2/227
f 43/1/60 44/4/60 51/2/60
f 11/1/75 52/4/75 53/2/75
f 54/3/229 55/1/229 56/4/229
f 24/1/230 39/4/537 57/2/231
f 58/3/60 55/1/60 59/4/60
f 60/1/233 19/4/233 14/2/233
f 62/1/234 33/4/234 63/2/234
f 3/1/235 64/4/538 65/2/236
f 58/1/60 48/4/60 12/2/60
f 62/3/238 67/1/238 11/4/238
f 60/3/239 54/1/239 32/4/239
f 9/3/60 12/1/60 48/4/60
f 59/1/60 68/4/60 27/2/60
f 41/3/75 45/1/75 30/4/75
f 42/1/240 69/4/539 68/2/241
f 49/1/60 27/4/60 30/2/60
f 4/3/244 3/1/244 63/4/244
f 40/1/245 28/4/540 69/2/246
f 63/1/248 65/4/248 70/2/248
f 69/1/249 28/4/541 27/2/250
f 51/3/60 44/1/60 50/4/60
f 72/3/253 73/1/542 74/4/254
f 77/1/256 73/4/542 72/2/253
f 78/3/258 76/1/258 72/4/258
f 72/1/259 75/4/543 80/2/260
f 81/3/258 82/1/258 76/4/258
f 83/1/262 77/4/256 76/2/257
f 84/1/264 85/4/544 77/2/265
f 86/3/267 87/1/545 88/4/268
f 86/1/270 89/4/546 91/2/271
f 92/3/273 93/1/273 86/4/273
f 94/1/274 87/4/547 86/2/275
f 95/3/273 92/1/273 90/4/273
f 90/1/277 91/4/548 97/2/278
f 91/1/280 98/4/549 99/2/281
f 101/1/283 99/4/550 98/2/284
f 103/1/286 92/4/305 95/2/287
f 105/1/288 96/4/297 97/2/289
f 106/3/291 107/1/551 94/4/292
f 104/1/290 97/4/289 99/2/294
f 105/3/288 102/1/552 95/4/296
f 108/1/298 87/4/298 94/2/299
f 110/1/301 89/4/553 88/2/302
f 106/1/304 93/4/554 92/2/305
f 111/3/306 100/1/555 98/4/307
f 108/3/309 109/1/556 88/4/310
f 111/1/311 91/4/557 89/2/312
f 73/3/314 77/1/558 111/4/315
f 75/3/317 74/1/559 109/4/318
f 85/1/320 100/4/560 111/2/321
f 79/1/323 106/4/561 103/2/324
f 74/3/326 73/1/562 110/4/327
f 75/1/329 108/4/563 107/2/330
f 81/1/332 102/4/552 105/2/288
f 84/3/334 83/1/339 104/4/290
f 80/1/336 107/4/564 106/2/337
f 82/1/333 105/4/288 104/2/290
f 78/1/325 103/4/324 102/2/325
f 85/3/340 84/1/565 101/4/341
f 112/3/343 113/1/566 114/4/344
f 112/1/343 115/4/345 117/2/346
f 118/3/348 119/1/348 112/4/348
f 120/1/349 113/4/567 112/2/350
f 121/3/348 118/1/348 116/4/348
f 116/1/347 117/4/346 123/2/352
f 117/1/354 124/4/568 125/2/355
f 126/3/357 127/1/569 128/4/358
f 131/1/360 127/4/570 126/2/361
f 132/3/363 130/1/363 126/4/363
f 126/1/364 129/4/571 134/2/365
f 135/3/363 136/1/363 130/4/363
f 137/1/367 131/4/572 130/2/368
f 138/1/370 139/4/573 131/2/371
f 139/1/373 138/4/574 141/2/374
f 135/1/376 132/4/394 143/2/377
f 137/1/378 136/4/575 145/2/379
f 146/3/381 133/1/576 134/4/382
f 138/1/384 137/4/378 144/2/380
f 145/3/379 136/1/575 135/4/386
f 134/1/388 129/4/389 148/2/389
f 128/1/391 127/4/577 150/2/392
f 132/1/394 133/4/578 146/2/395
f 151/3/396 131/1/579 139/4/397
f 148/3/399 129/1/399 128/4/400
f 127/1/402 131/4/580 151/2/403
f 115/3/405 150/1/581 151/4/406
f 113/3/408 148/1/582 149/4/409
f 151/1/411 140/4/583 124/2/412
f 143/1/414 146/4/584 119/2/415
f 114/3/417 149/1/585 150/4/418
f 147/1/420 148/4/586 113/2/421
f 145/1/379 142/4/387 121/2/423
f 125/3/425 141/1/587 144/4/380
f 146/1/427 147/4/588 120/2/428
f 144/1/380 145/4/379 122/2/424
f 142/1/416 143/4/414 118/2/416
f 124/3/430 140/1/589 141/4/431
f 152/3/433 53/1/433 153/4/433
f 34/3/59 47/1/59 155/4/59
f 66/3/434 12/1/514 53/4/435
f 34/1/437 156/4/590 157/2/438
f 158/1/75 159/4/75 160/2/75
f 156/1/440 161/4/440 162/2/440
f 52/1/75 158/4/75 153/2/75
f 156/3/59 155/1/59 163/4/59
f 161/3/59 163/1/59 164/4/59
f 153/1/441 160/4/591 166/2/442
f 162/3/444 161/1/592 165/4/445
f 169/1/446 170/4/593 171/2/447
f 172/3/449 168/1/449 171/4/449
f 174/3/450 175/1/450 176/4/450
f 179/1/451 180/4/451 181/2/451
f 183/1/452 184/4/452 185/2/452
f 175/3/453 186/1/453 187/4/453
f 188/3/454 189/1/594 190/4/455
f 6/3/457 188/1/595 191/4/458
f 7/1/460 18/4/596 15/2/461
f 2/1/463 57/4/597 64/2/464
f 192/1/466 193/4/598 181/2/467
f 196/1/470 193/4/470 192/2/470
f 195/1/471 192/4/471 184/2/471
f 197/3/472 173/1/599 171/4/473
f 198/3/475 199/1/475 193/4/475
f 199/3/476 178/1/600 181/4/477
f 182/1/479 185/4/479 180/2/479
f 186/3/480 172/1/480 173/4/480
f 200/3/480 201/1/480 172/4/480
f 203/1/479 182/4/479 179/2/479
f 204/3/483 205/1/601 178/4/484
f 206/3/486 204/1/486 199/4/486
f 207/3/453 200/1/453 186/4/453
f 208/1/452 183/4/452 182/2/452
f 202/1/451 179/4/451 178/2/451
f 209/3/450 207/1/450 175/4/450
f 201/3/449 210/1/449 168/4/449
f 211/1/487 169/4/602 168/2/488
f 38/1/490 211/4/603 210/2/491
f 57/3/449 39/1/449 210/4/449
f 70/3/450 65/1/450 207/4/450
f 17/1/451 202/4/451 205/2/451
f 190/1/452 208/4/452 203/2/452
f 65/3/453 64/1/453 200/4/453
f 16/3/493 15/1/604 204/4/494
f 15/3/496 18/1/605 205/4/497
f 191/1/479 203/4/479 202/2/479
f 64/3/480 57/1/480 201/4/480
f 16/1/499 206/4/495 211/2/500
f 70/1/450 209/4/450 208/2/450
f 209/1/450 174/4/450 183/2/450
f 206/1/486 198/4/486 169/2/486
f 198/1/475 196/4/475 170/2/475
f 197/1/471 195/4/471 177/2/471
f 197/3/470 170/1/470 196/4/470
f 174/1/450 177/4/450 184/2/450
f 162/1/502 167/4/503 159/2/503
f 163/3/505 154/1/606 166/4/506
f 52/3/508 157/1/508 162/4/508
f 11/3/509 67/1/439 157/4/510
f 66/1/512 152/4/607 155/2/513
f 152/1/515 154/4/515 163/2/515
f 189/3/248 61/1/248 70/4/248
f 42/1/239 54/4/239 60/2/239
f 34/1/238 67/4/238 62/2/238
f 51/1/60 58/4/60 66/2/60
f 189/3/234 35/1/234 62/4/234
f 23/3/233 22/1/233 60/4/233
f 56/1/60 55/4/60 58/2/60
f 59/1/229 55/4/229 54/2/229
f 13/1/516 16/4/608 38/2/517
f 192/1/7 212/4/7 213/2/7
f 192/3/7 180/1/7 214/4/7
f 194/1/7 213/4/7 214/2/7
usemtl F44336
f 233/1/609 235/2/609 232/3/609
f 237/1/610 239/2/611 236/3/612
f 240/3/613 242/4/614 243/2/615
f 244/3/616 246/4/617 247/2/618
f 235/1/619 249/2/619 232/3/619
f 249/1/620 251/2/620 250/3/620
f 236/1/621 234/2/622 233/3/623
f 250/1/624 253/2/624 252/3/624
f 245/3/625 253/4/625 246/2/625
f 254/3/626 256/4/626 257/2/626
f 259/1/627 240/2/628 258/3/629
f 240/1/630 244/2/631 237/3/632
f 243/3/633 260/4/634 261/2/635
f 262/1/636 255/2/636 254/3/636
f 265/1/637 262/2/637 264/3/637
f 256/1/638 258/2/639 257/3/640
f 266/3/641 265/4/641 264/2/641
f 260/1/642 266/2/642 261/3/642
f 236/1/643 240/2/644 237/3/645
f 232/3/646 257/4/646 233/2/646
f 263/1/647 251/2/647 248/3/647
f 232/3/648 262/4/648 254/2/648
f 244/3/649 261/4/650 245/2/651
f 265/1/652 253/2/653 251/3/652
f 247/1/654 241/2/655 238/3/656
f 257/1/657 236/2/658 233/3/659
f 239/3/660 241/4/661 259/2/662
f 256/1/663 235/2/663 234/3/663
f 261/1/664 252/2/664 245/3/664
f 235/1/665 263/2/666 248/3/666
f 260/1/667 247/2/668 246/3/669
f 239/3/670 256/4/671 234/2/672
f 264/1/673 249/2/674 250/3/673
f 253/3/675 260/4/675 246/2/675
f 252/3/676 264/4/676 250/2/676
f 237/1/677 247/2/678 238/3/679
f 233/1/609 234/4/609 235/2/609
f 237/1/610 238/4/680 239/2/611
f 240/3/613 241/1/681 242/4/614
f 244/3/616 245/1/682 246/4/617
f 235/1/619 248/4/619 249/2/619
f 249/1/620 248/4/620 251/2/620
f 236/1/621 239/4/683 234/2/622
f 250/1/624 251/4/624 253/2/624
f 245/3/625 252/1/625 253/4/625
f 254/3/626 255/1/626 256/4/626
f 259/1/627 241/4/684 240/2/628
f 240/1/630 243/4/631 244/2/631
f 243/3/633 242/1/685 260/4/634
f 262/1/636 263/4/636 255/2/636
f 265/1/637 263/4/637 262/2/637
f 256/1/638 259/4/686 258/2/639
f 266/3/641 267/1/641 265/4/641
f 260/1/642 267/4/642 266/2/642
f 236/1/643 258/4/643 240/2/644
f 232/3/646 254/1/646 257/4/646
f 263/1/647 265/4/647 251/2/647
f 232/3/648 249/1/648 262/4/648
f 244/3/649 243/1/649 261/4/650
f 265/1/652 267/4/653 253/2/653
f 247/1/654 242/4/687 241/2/655
f 257/1/657 258/4/658 236/2/658
f 239/3/660 238/1/688 241/4/661
f 256/1/663 255/4/663 235/2/663
f 261/1/664 266/4/664 252/2/664
f 235/1/665 255/4/665 263/2/666
f 260/1/667 242/4/668 247/2/668
f 239/3/670 259/1/670 256/4/671
f 264/1/673 262/4/674 249/2/674
f 253/3/675 267/1/675 260/4/675
f 252/3/676 266/1/676 264/4/676
f 237/1/677 244/4/689 247/2/678
