# Blender 4.5.4 LTS
# www.blender.org
mtllib floorFull.mtl
o floorFull
v 0.500000 -0.013191 -0.500000
v 0.500000 -0.063191 -0.500000
v 0.500000 -0.013191 0.500000
v 0.500000 -0.063191 0.500000
v -0.500000 -0.013191 -0.500000
v -0.500000 -0.013191 0.500000
v -0.500000 -0.063191 0.500000
v -0.500000 -0.063191 -0.500000
vn 0.5773 -0.5774 -0.5773
vn 0.5774 0.5774 -0.5774
vn 0.5773 0.5774 0.5773
vn 0.5774 -0.5774 0.5774
vn -0.5773 0.5774 -0.5773
vn -0.5774 0.5774 0.5774
vn -0.5773 -0.5774 0.5773
vn -0.5774 -0.5774 -0.5774
vt 0.000000 0.000000
vt 0.000000 1.968504
vt -39.370079 1.968504
vt -39.370079 0.000000
vt 0.000000 39.370079
vt 39.370079 0.000000
vt 39.370079 39.370079
vt -39.370079 39.370079
vt 39.370079 1.968504
s 1
usemtl wood.003
f 2/1/1 1/2/2 3/3/3
f 3/3/3 4/4/4 2/1/1
f 3/5/3 1/1/2 5/6/5
f 5/6/5 6/7/6 3/5/3
f 2/1/1 4/5/4 7/8/7
f 7/8/7 8/4/8 2/1/1
f 7/4/7 4/1/4 3/2/3
f 3/2/3 6/3/6 7/4/7
f 2/1/1 8/6/8 5/9/5
f 5/9/5 1/2/2 2/1/1
f 5/2/5 8/1/8 7/6/7
f 7/6/7 6/9/6 5/2/5
o floorFull.001
v 0.500000 -0.008191 -0.500000
v 0.500000 -0.018191 -0.500000
v 0.500000 -0.008191 0.500000
v 0.500000 -0.018191 0.500000
v -0.500000 -0.008191 -0.500000
v -0.500000 -0.018191 -0.500000
v -0.500000 -0.008191 0.500000
v -0.500000 -0.018191 0.500000
v 0.495000 -0.013191 0.495000
v -0.495000 -0.013191 0.495000
v -0.495000 -0.013191 -0.495000
v 0.495000 -0.013191 -0.495000
vn -0.0000 0.7071 -0.7071
vn -0.0000 -0.7071 -0.7071
vn 0.7071 0.7071 -0.0000
vn 0.7071 -0.7071 -0.0000
vn -0.0000 0.7071 0.7071
vn -0.0000 -0.7071 0.7071
vn -0.7071 0.7071 -0.0000
vn -0.7071 -0.7071 -0.0000
vt 0.000000 0.000000
s 1
usemtl 材质
f 17/10/9 18/10/9 15/10/9 11/10/9
f 18/10/10 17/10/10 12/10/10 16/10/10
f 18/10/11 19/10/11 13/10/11 15/10/11
f 19/10/12 18/10/12 16/10/12 14/10/12
f 19/10/13 20/10/13 9/10/13 13/10/13
f 20/10/14 19/10/14 14/10/14 10/10/14
f 20/10/15 17/10/15 11/10/15 9/10/15
f 17/10/16 20/10/16 10/10/16 12/10/16
