# Blender 4.5.4 LTS
# www.blender.org
mtllib arrow_arc_mesh.mtl
o arrow_arc_mesh
v 0.000000 0.000000 0.040000
v 0.000000 0.000000 -0.040000
v 0.041000 0.078638 0.040000
v 0.041000 0.078638 -0.040000
v 0.082000 0.150552 0.040000
v 0.082000 0.150552 -0.040000
v 0.123000 0.215742 0.040000
v 0.123000 0.215742 -0.040000
v 0.164000 0.274208 0.040000
v 0.164000 0.274208 -0.040000
v 0.205000 0.325950 0.040000
v 0.205000 0.325950 -0.040000
v 0.246000 0.370968 0.040000
v 0.246000 0.370968 -0.040000
v 0.287000 0.409262 0.040000
v 0.287000 0.409262 -0.040000
v 0.328000 0.440832 0.040000
v 0.328000 0.440832 -0.040000
v 0.369000 0.465678 0.040000
v 0.369000 0.465678 -0.040000
v 0.410000 0.483800 0.040000
v 0.410000 0.483800 -0.040000
v 0.451000 0.495198 0.040000
v 0.451000 0.495198 -0.040000
v 0.492000 0.499872 0.040000
v 0.492000 0.499872 -0.040000
v 0.533000 0.497822 0.040000
v 0.533000 0.497822 -0.040000
v 0.574000 0.489048 0.040000
v 0.574000 0.489048 -0.040000
v 0.615000 0.473550 0.040000
v 0.615000 0.473550 -0.040000
v 0.656000 0.451328 0.040000
v 0.656000 0.451328 -0.040000
v 0.697000 0.422382 0.040000
v 0.697000 0.422382 -0.040000
v 0.738000 0.386712 0.040000
v 0.738000 0.386712 -0.040000
v 0.779000 0.344318 0.040000
v 0.779000 0.344318 -0.040000
v 0.820000 0.295200 0.040000
v 0.820000 0.295200 -0.040000
v 0.820000 0.295200 0.110000
v 0.820000 0.295200 -0.110000
v 1.000000 0.000000 0.000000
vn -0.8867 0.4623 -0.0000
vn -0.8687 0.4953 -0.0000
vn -0.8465 0.5324 -0.0000
vn -0.8187 0.5742 -0.0000
vn -0.7838 0.6211 -0.0000
vn -0.7393 0.6733 -0.0000
vn -0.6826 0.7308 -0.0000
vn -0.6101 0.7923 -0.0000
vn -0.5183 0.8552 -0.0000
vn -0.4043 0.9146 -0.0000
vn -0.2678 0.9635 -0.0000
vn -0.1133 0.9936 -0.0000
vn 0.0499 0.9988 -0.0000
vn 0.2093 0.9779 -0.0000
vn 0.3536 0.9354 -0.0000
vn 0.4765 0.8792 -0.0000
vn 0.5767 0.8169 -0.0000
vn 0.6564 0.7544 -0.0000
vn 0.7188 0.6952 -0.0000
vn 0.7677 0.6408 -0.0000
vn -0.8538 -0.5206 -0.0000
s 0
f 1//1 3//1 4//1 2//1
f 3//2 5//2 6//2 4//2
f 5//3 7//3 8//3 6//3
f 7//4 9//4 10//4 8//4
f 9//5 11//5 12//5 10//5
f 11//6 13//6 14//6 12//6
f 13//7 15//7 16//7 14//7
f 15//8 17//8 18//8 16//8
f 17//9 19//9 20//9 18//9
f 19//10 21//10 22//10 20//10
f 21//11 23//11 24//11 22//11
f 23//12 25//12 26//12 24//12
f 25//13 27//13 28//13 26//13
f 27//14 29//14 30//14 28//14
f 29//15 31//15 32//15 30//15
f 31//16 33//16 34//16 32//16
f 33//17 35//17 36//17 34//17
f 35//18 37//18 38//18 36//18
f 37//19 39//19 40//19 38//19
f 39//20 41//20 42//20 40//20
f 43//21 44//21 45//21
