# Blender 4.5.4 LTS
# www.blender.org
mtllib bookcaseClosedDoors.mtl
o bookcaseClosedDoors
v -0.515818 1.830000 0.233361
v -0.515818 2.460000 0.233361
v -0.515818 1.830000 -0.276639
v -0.515818 2.460000 -0.276639
v -0.515818 0.390000 0.233361
v -0.515818 1.020000 0.233361
v -0.515818 0.390000 -0.276639
v -0.515818 1.020000 -0.276639
v 0.564182 1.110000 -0.276639
v 0.504182 1.110000 -0.276639
v 0.564182 1.740000 -0.276639
v 0.504182 1.740000 -0.276639
v 0.564182 0.390000 -0.276639
v 0.504182 0.390000 -0.276639
v 0.564182 1.020000 -0.276639
v 0.504182 1.020000 -0.276639
v 0.504182 0.000000 0.233361
v 0.624182 0.000000 0.233361
v 0.504182 0.300000 0.233361
v 0.624182 0.300000 0.233361
v 0.504182 0.390000 0.233361
v 0.564182 0.390000 0.233361
v 0.504182 1.020000 0.233361
v 0.564182 1.020000 0.233361
v -0.455818 1.830000 -0.276639
v -0.455818 2.460000 -0.276639
v 0.504182 1.110000 0.233361
v 0.564182 1.110000 0.233361
v 0.504182 1.740000 0.233361
v 0.564182 1.740000 0.233361
v 0.504182 1.830000 0.233361
v 0.564182 1.830000 0.233361
v 0.504182 2.460000 0.233361
v 0.564182 2.460000 0.233361
v -0.455818 0.000000 -0.276639
v -0.575818 0.000000 -0.276639
v -0.455818 0.300000 -0.276639
v -0.575818 0.300000 -0.276639
v 0.564182 1.830000 -0.276639
v 0.504182 1.830000 -0.276639
v 0.564182 2.460000 -0.276639
v 0.504182 2.460000 -0.276639
v -0.455818 0.390000 0.233361
v -0.455818 1.020000 0.233361
v 0.504182 1.110000 -0.336639
v -0.455818 1.110000 -0.336639
v 0.504182 1.740000 -0.336639
v -0.455818 1.740000 -0.336639
v 0.504182 0.390000 -0.336639
v -0.455818 0.390000 -0.336639
v 0.504182 1.020000 -0.336639
v -0.455818 1.020000 -0.336639
v -0.515818 1.110000 0.233361
v -0.515818 1.740000 0.233361
v -0.515818 1.110000 -0.276639
v -0.515818 1.740000 -0.276639
v -0.455818 1.830000 0.233361
v -0.455818 2.460000 0.233361
v -0.455818 1.110000 0.233361
v -0.455818 1.740000 0.233361
v -0.455818 0.390000 -0.276639
v -0.455818 1.020000 -0.276639
v -0.455818 1.110000 -0.276639
v -0.455818 1.740000 -0.276639
v 0.504182 0.300000 -0.276639
v 0.504182 0.000000 -0.276639
v 0.504182 0.300000 -0.396639
v 0.504182 0.000000 -0.396639
v 0.504182 1.830000 -0.336639
v -0.455818 1.830000 -0.336639
v 0.504182 2.460000 -0.336639
v -0.455818 2.460000 -0.336639
v -0.575818 0.000000 0.233361
v -0.455818 0.000000 0.233361
v -0.575818 0.300000 0.233361
v -0.455818 0.300000 0.233361
v -0.575818 2.550000 0.353361
v -0.575818 2.550000 -0.396639
v 0.624182 2.550000 0.353361
v 0.624182 2.550000 -0.396639
v -0.575818 0.000000 0.353361
v -0.455818 0.000000 0.353361
v 0.624182 0.000000 -0.396639
v 0.624182 0.000000 -0.276639
v -0.575818 0.000000 -0.396639
v 0.504182 2.460000 0.353361
v -0.455818 2.460000 0.353361
v 0.624182 0.300000 -0.276639
v 0.624182 0.000000 0.353361
v -0.455818 0.000000 -0.396639
v -0.455818 0.300000 -0.396639
v -0.455818 0.390000 -0.396639
v -0.455818 1.020000 -0.396639
v -0.455818 1.110000 -0.396639
v 0.504182 1.020000 -0.396639
v -0.455818 1.740000 -0.396639
v -0.455818 1.830000 -0.396639
v 0.504182 1.740000 -0.396639
v -0.455818 2.460000 -0.396639
v 0.504182 2.460000 -0.396639
v 0.504182 0.390000 -0.396639
v 0.504182 1.110000 -0.396639
v 0.504182 1.830000 -0.396639
v 0.504182 0.000000 0.353361
v 0.504182 0.300000 0.293361
v -0.455818 0.300000 0.293361
v 0.504182 0.345000 0.293361
v 0.504182 0.345000 0.233361
v -0.455818 0.345000 0.233361
v -0.455818 0.345000 0.293361
v -0.455818 0.390000 -0.366639
v 0.504182 0.390000 -0.366639
v -0.455818 1.020000 -0.366639
v 0.504182 1.020000 -0.366639
v 0.504182 2.460000 -0.366639
v 0.504182 1.830000 -0.366639
v -0.455818 2.460000 -0.366639
v -0.455818 1.110000 -0.366639
v 0.504182 1.110000 -0.366639
v -0.455818 1.740000 -0.366639
v 0.504182 1.740000 -0.366639
v -0.455818 1.830000 -0.366639
v -0.042496 1.179218 0.293361
v 0.024182 0.345000 0.293361
v 0.024182 2.460000 0.293361
v -0.042496 1.354841 0.293361
v -0.102496 1.354841 0.293361
v -0.102496 1.179218 0.293361
v -0.455818 2.460000 0.293361
v -0.455818 2.460000 0.233361
v 0.024182 0.345000 0.233361
v 0.024182 2.460000 0.233361
v -0.055546 1.200333 0.353361
v -0.089446 1.200333 0.353361
v -0.055546 1.333725 0.353361
v -0.089446 1.333725 0.353361
v 0.137810 1.200333 0.353361
v 0.103910 1.200333 0.353361
v 0.137810 1.333725 0.353361
v 0.103910 1.333725 0.353361
v 0.090860 1.354841 0.293361
v 0.090860 1.179218 0.293361
v 0.150860 1.179218 0.293361
v 0.150860 1.354841 0.293361
v 0.504182 2.460000 0.293361
v 0.504182 2.460000 0.233361
vn 1.0000 -0.0000 -0.0000
vn -0.0000 -0.0000 1.0000
vn -0.0000 -0.0000 -1.0000
vn 0.3004 0.3798 0.8750
vn 0.0828 -0.1009 -0.9914
vn -0.8001 -0.3314 -0.5000
vn 0.4486 -0.5466 -0.7071
vn 0.8001 0.3314 -0.5000
vn -0.9203 0.0856 -0.3816
vn -0.1113 -0.6344 -0.7650
vn -1.0000 -0.0000 -0.0000
vn -0.0000 1.0000 -0.0000
vn -0.0000 -1.0000 -0.0000
vn -0.0000 -0.0000 -0.0000
vn 0.4957 -0.0652 -0.8660
vn -0.0828 0.1009 -0.9914
vn 0.2091 -0.3054 0.9290
vn 0.9772 -0.0000 0.2125
vn -0.0000 0.9433 0.3320
vn -0.9772 -0.0000 0.2125
vn -0.0000 -0.9433 0.3320
vt 8.267716 24.015751
vt 8.267716 32.283470
vt 1.574803 32.283470
vt 1.574803 13.385830
vt 1.574803 5.118110
vt 8.267716 5.118110
vt 8.267716 13.385830
vt 14.173230 14.566930
vt 14.960630 14.566930
vt 14.960630 22.834650
vt 14.173230 5.118110
vt 14.960630 5.118110
vt 14.960630 13.385830
vt 14.173230 13.385830
vt -15.748030 0.000000
vt -14.173230 0.000000
vt -14.173230 3.937008
vt -15.748030 3.937008
vt -14.960630 5.118110
vt -14.173230 5.118110
vt -14.173230 13.385830
vt -14.960630 13.385830
vt 0.787402 32.283470
vt 0.787402 24.015751
vt -14.960630 14.566930
vt -14.173230 14.566930
vt -14.173230 22.834650
vt 0.000000 0.000000
vt 1.574803 0.000000
vt 1.574803 3.937008
vt 0.000000 3.937008
vt 14.960630 32.283470
vt 14.173230 32.283470
vt 14.173230 24.015751
vt -0.787402 13.385830
vt -1.574803 13.385830
vt -1.574803 5.118110
vt 1.574803 14.566930
vt 14.173230 22.834650
vt 1.574803 22.834650
vt -1.574803 24.015751
vt -0.787402 24.015751
vt -0.787402 32.283470
vt 0.787402 5.118110
vt 0.787402 13.385830
vt -1.574803 32.283470
vt -8.267716 32.283470
vt -8.267716 0.000000
vt -8.267716 3.937008
vt -9.842520 3.937008
vt -9.842520 0.000000
vt -1.574803 14.566930
vt -1.574803 22.834650
vt -8.267716 22.834650
vt -1.574803 3.937008
vt -1.574803 0.000000
vt 0.000000 9.842520
vt 15.748030 0.000000
vt 15.748030 9.842520
vt -1.574803 1.574803
vt -14.173230 8.267716
vt -14.173230 9.842520
vt -15.748030 9.842520
vt -15.748030 8.267716
vt -9.842520 33.464569
vt -8.267716 -0.000000
vt -9.842520 -0.000000
vt 14.173230 1.574803
vt 14.173230 8.267716
vt 14.173230 9.055119
vt -14.173230 1.574803
vt -14.960630 8.267716
vt -14.960630 1.574803
vt -14.173230 -0.000000
vt -14.173230 9.055119
vt -1.574803 8.267716
vt -0.787402 1.574803
vt -0.787402 8.267716
vt 8.267716 3.937008
vt 8.267716 -0.000000
vt 9.842520 -0.000000
vt 9.842520 33.464569
vt -0.000000 33.464569
vt -14.173230 32.283470
vt -15.748030 33.464569
vt -15.748030 -0.000000
vt -14.173230 -0.000000
vt -14.173230 24.015751
vt -1.574803 9.842520
vt 0.000000 8.267716
vt 14.173230 0.000000
vt 15.748030 33.464569
vt 0.000000 33.464569
vt -1.574803 9.055119
vt 8.267716 0.000000
vt 9.842520 0.000000
vt 9.842520 3.937008
vt -14.173230 0.787402
vt 0.000000 1.574803
vt 0.000000 32.283470
vt -0.787402 4.527559
vt -1.574803 4.527559
vt -0.787402 3.937008
vt 14.960630 1.574803
vt 14.960630 8.267716
vt 1.574803 9.055119
vt 1.574803 8.267716
vt 1.574803 1.574803
vt 0.787402 8.267716
vt 0.787402 1.574803
vt 15.748030 3.937008
vt 14.173230 3.937008
vt 1.574803 24.015751
vt 0.787402 3.937008
vt 0.787402 4.527559
vt 1.574803 4.527559
vt -9.055119 22.834650
vt -9.055119 14.566930
vt -8.267716 14.566930
vt -9.055119 32.283470
vt -9.055119 24.015751
vt -8.267716 24.015751
vt 9.448819 13.385830
vt 9.448819 5.118110
vt 9.842520 5.118110
vt 9.842520 13.385830
vt -1.574803 9.448819
vt -14.173230 9.448819
vt -9.448819 24.015751
vt -9.448819 32.283470
vt -9.842520 32.283470
vt -9.842520 24.015751
vt 1.574803 9.842520
vt 1.574803 9.448819
vt 14.173230 9.448819
vt 14.173230 9.842520
vt -9.842520 22.834650
vt -9.842520 14.566930
vt -9.448819 14.566930
vt -9.842520 13.385830
vt -9.842520 5.118110
vt -9.448819 5.118110
vt 9.842520 14.566930
vt 9.842520 22.834650
vt 9.448819 22.834650
vt 14.173230 4.527559
vt 1.574803 0.787402
vt 14.173230 0.787402
vt -14.960630 22.834650
vt -14.960630 24.015751
vt -14.960630 32.283470
vt 14.960630 24.015751
vt -0.787402 5.118110
vt 8.267716 14.566930
vt 8.267716 22.834650
vt -0.787402 14.566930
vt -0.787402 22.834650
vt 0.787402 14.566930
vt 0.787402 22.834650
vt -8.267716 13.385830
vt -8.267716 5.118110
vt 9.055119 5.118110
vt 9.055119 13.385830
vt -9.055119 13.385830
vt -9.055119 5.118110
vt 9.055119 14.566930
vt 9.055119 22.834650
vt -1.574803 -0.000000
vt -1.574803 -0.000000
vt -0.000000 33.464569
vt 1.574803 -0.000000
vt -0.000000 -0.000000
vt -1.574803 -0.000000
vt -0.000000 -0.000000
vt -15.748030 1.574803
vt 0.000000 9.842520
vt -1.574803 0.787402
vt 9.055119 24.015751
vt 9.055119 32.283470
vt 9.448819 32.283470
vt 9.448819 24.015751
vt 9.842520 24.015751
vt 9.842520 32.283470
vt -9.448819 22.834650
vt -9.448819 13.385830
vt 9.448819 14.566930
vt 5.424172 10.947740
vt 6.299212 0.000000
vt 6.299212 27.755911
vt 5.424172 13.252500
vt 4.636770 13.252500
vt 4.636770 10.947740
vt 0.000000 27.755911
vt -0.787402 27.755911
vt -0.787402 0.000000
vt -6.299212 0.000000
vt -6.299212 27.755911
vt 0.787402 0.000000
vt 0.787402 27.755911
vt 0.000000 0.787402
vt -6.299212 0.787402
vt 6.299212 0.787402
vt 4.808030 11.224840
vt 5.252912 11.224840
vt 5.252912 12.975400
vt 4.808030 12.975400
vt 0.346994 12.975400
vt 0.346994 11.224840
vt 1.152805 10.947740
vt 1.152805 13.252500
vt 5.424172 4.399373
vt 4.636770 4.399373
vt 4.808030 3.564635
vt 5.252912 3.564635
vt 1.791269 11.224840
vt 1.791269 12.975400
vt 0.985458 13.252500
vt 0.985458 10.947740
vt 4.808030 4.469009
vt 4.636770 3.634271
vt 5.424172 3.634271
vt 5.252912 4.469009
vt -5.252912 11.224840
vt -4.808030 11.224840
vt -4.808030 12.975400
vt -5.252912 12.975400
vt -0.346994 11.224840
vt -0.346994 12.975400
vt -1.152805 13.252500
vt -1.152805 10.947740
vt -5.252912 4.469009
vt -5.424172 3.634271
vt -4.636770 3.634271
vt -4.808030 4.469009
vt -1.791269 12.975400
vt -1.791269 11.224840
vt -0.985458 10.947740
vt -0.985458 13.252500
vt -4.636770 4.399373
vt -5.424172 4.399373
vt -5.252912 3.564635
vt -4.808030 3.564635
vt -4.636770 10.947740
vt -4.636770 13.252500
vt -5.424172 13.252500
vt -5.424172 10.947740
s 1
usemtl wood
f 3/1/1 4/2/1 2/3/1
f 6/4/1 5/5/1 7/6/1
f 7/6/1 8/7/1 6/4/1
f 10/8/2 9/9/2 11/10/2
f 14/11/2 13/12/2 15/13/2
f 15/13/2 16/14/2 14/11/2
f 18/15/3 17/16/3 19/17/3
f 19/17/3 20/18/3 18/15/3
f 22/19/3 21/20/4 23/21/5
f 23/21/5 24/22/3 22/19/3
f 26/3/2 4/23/2 3/24/2
f 28/25/3 27/26/6 29/27/7
f 36/28/2 35/29/2 37/30/2
f 37/30/2 38/31/2 36/28/2
f 41/32/2 42/33/2 40/34/2
f 6/35/3 44/36/8 43/37/9
f 46/38/2 45/8/2 47/39/2
f 47/39/2 48/40/2 46/38/2
f 51/14/2 52/4/2 50/5/2
f 57/41/10 1/42/3 2/43/3
f 7/44/2 61/5/2 62/4/2
f 62/4/2 8/45/2 7/44/2
f 32/41/11 34/46/11 41/47/11
f 66/48/11 65/49/11 67/50/11
f 67/50/11 68/51/11 66/48/11
f 28/52/11 30/53/11 11/54/11
f 75/31/3 76/55/3 74/56/3
f 78/57/12 77/28/12 79/58/12
f 79/58/12 80/59/12 78/57/12
f 74/60/13 82/56/13 81/28/13
f 66/61/13 68/62/13 83/63/13
f 83/63/13 84/64/13 66/61/13
f 78/65/11 38/49/11 75/55/11
f 78/65/11 36/66/11 38/49/11
f 78/65/11 85/67/11 36/66/11
f 31/68/12 40/69/12 69/70/12
f 33/71/13 42/61/13 41/72/13
f 41/72/13 34/73/13 33/71/13
f 42/61/13 33/71/13 86/74/2
f 71/75/13 42/61/13 86/74/2
f 71/75/13 58/60/13 26/76/13
f 26/76/13 58/60/13 2/77/13
f 2/77/13 4/78/13 26/76/13
f 88/79/1 84/80/1 83/81/1
f 83/81/1 80/82/1 88/79/1
f 78/83/3 94/52/3 93/36/3
f 97/41/3 98/27/3 96/53/3
f 78/83/3 100/84/3 99/46/3
f 67/17/3 101/20/3 80/85/3
f 101/20/3 95/21/3 80/85/3
f 100/84/3 78/83/3 80/85/3
f 67/17/3 80/85/3 83/86/3
f 83/86/3 68/87/3 67/17/3
f 95/21/3 102/26/3 80/85/3
f 95/21/3 94/52/3 102/26/3
f 98/27/3 103/88/3 80/85/3
f 47/75/13 60/60/13 64/76/13
f 47/75/13 29/71/13 60/60/13
f 12/61/13 11/72/13 29/71/13
f 11/72/13 30/73/13 29/71/13
f 64/76/13 60/60/13 54/77/13
f 54/77/13 56/78/13 64/76/13
f 90/89/13 35/76/13 36/90/13
f 104/91/2 89/58/2 79/92/2
f 87/3/2 79/92/2 77/93/2
f 81/28/2 82/29/2 87/3/2
f 62/76/13 52/94/13 51/75/13
f 51/75/13 44/60/13 62/76/13
f 51/75/13 23/71/13 44/60/13
f 51/75/13 16/61/13 23/71/13
f 37/79/1 35/95/1 90/96/1
f 90/96/1 91/97/1 37/79/1
f 65/61/14 19/71/13 105/98/3
f 67/62/14 65/61/14 105/98/3
f 37/76/13 76/60/13 75/99/13
f 75/99/13 38/90/13 37/76/13
f 104/28/11 86/100/11 33/46/11
f 33/46/11 107/101/11 104/28/11
f 33/46/15 31/41/6 108/102/13
f 31/41/6 29/53/7 108/102/13
f 29/53/7 27/52/6 108/102/13
f 105/103/11 17/56/11 104/28/11
f 105/103/11 19/55/11 17/56/11
f 10/69/12 27/68/12 28/104/12
f 28/104/12 9/105/12 10/69/12
f 27/68/12 45/70/12 46/106/12
f 27/68/12 46/106/12 63/107/12
f 59/108/12 27/68/12 63/107/12
f 21/68/12 14/69/12 49/70/12
f 21/68/12 49/70/12 50/106/12
f 43/108/12 21/68/12 61/107/12
f 43/108/12 61/107/12 7/109/12
f 7/109/12 5/110/12 43/108/12
f 66/91/2 84/58/2 88/111/2
f 88/111/2 65/112/2 66/91/2
f 44/4/2 23/14/2 27/8/2
f 27/8/2 59/38/2 44/4/2
f 60/40/2 29/39/2 31/34/2
f 31/34/2 57/113/2 60/40/2
f 106/114/1 87/100/1 82/28/1
f 110/115/1 58/3/1 87/100/1
f 110/115/1 109/116/1 58/3/1
f 59/38/16 60/40/17 58/3/3
f 47/117/11 45/118/11 10/119/11
f 71/120/11 69/121/11 40/122/11
f 112/20/3 111/37/3 113/36/3
f 113/123/1 111/124/1 92/125/1
f 92/125/1 93/126/1 113/123/1
f 113/127/13 93/89/13 95/62/13
f 95/62/13 114/128/13 113/127/13
f 116/129/11 115/130/11 100/131/11
f 100/131/11 103/132/11 116/129/11
f 117/127/13 99/89/13 100/62/13
f 100/62/13 115/128/13 117/127/13
f 117/46/3 115/84/3 116/88/3
f 97/133/12 122/134/12 116/135/12
f 116/135/12 103/136/12 97/133/12
f 120/127/13 96/89/13 98/62/13
f 98/62/13 121/128/13 120/127/13
f 98/137/11 102/138/11 119/139/11
f 95/140/11 101/141/11 112/142/11
f 94/133/12 118/134/12 119/135/12
f 94/143/1 96/144/1 120/145/1
f 112/135/12 101/136/12 92/133/12
f 106/30/2 105/112/2 107/146/2
f 107/146/2 110/116/2 106/30/2
f 109/108/12 110/147/12 107/148/12
f 107/148/12 108/68/12 109/108/12
f 2/3/1 1/113/1 3/1/1
f 11/10/2 12/39/2 10/8/2
f 3/24/2 25/113/2 26/3/2
f 29/27/7 30/149/3 28/25/3
f 32/150/3 31/88/6 33/84/15
f 33/84/15 34/151/3 32/150/3
f 40/34/2 39/152/2 41/32/2
f 43/37/9 5/153/3 6/35/3
f 50/5/2 49/11/2 51/14/2
f 54/40/1 53/38/1 55/154/1
f 55/154/1 56/155/1 54/40/1
f 2/43/3 58/46/3 57/41/10
f 59/52/16 53/156/3 54/157/3
f 54/157/3 60/53/17 59/52/16
f 55/158/2 63/38/2 64/40/2
f 64/40/2 56/159/2 55/158/2
f 22/37/11 24/36/11 15/160/11
f 15/160/11 13/161/11 22/37/11
f 62/7/1 61/6/1 50/162/1
f 50/162/1 52/163/1 62/7/1
f 41/47/11 39/122/11 32/41/11
f 14/161/11 16/160/11 51/164/11
f 51/164/11 49/165/11 14/161/11
f 64/155/1 63/154/1 46/166/1
f 46/166/1 48/167/1 64/155/1
f 70/113/2 69/34/2 71/33/2
f 71/33/2 72/3/2 70/113/2
f 11/54/11 9/119/11 28/52/11
f 74/56/3 73/28/3 75/31/3
f 81/28/13 73/99/13 74/60/13
f 81/28/11 77/93/11 78/65/11
f 78/65/11 75/55/11 81/28/11
f 81/28/11 75/55/11 73/168/11
f 40/69/12 31/68/12 32/104/12
f 32/104/12 39/105/12 40/69/12
f 31/68/12 69/70/12 70/106/12
f 31/68/12 70/106/12 25/107/12
f 57/108/12 31/68/12 25/107/12
f 57/108/12 25/107/12 3/109/12
f 3/109/12 1/110/12 57/108/12
f 71/75/13 86/74/13 87/169/13
f 71/75/13 87/169/13 58/60/13
f 26/76/13 72/94/13 71/75/13
f 20/30/1 88/79/1 80/82/1
f 20/30/1 80/82/1 79/170/1
f 18/171/1 20/30/1 79/170/1
f 79/170/1 89/172/1 18/171/1
f 90/173/3 85/174/3 78/83/3
f 78/83/3 91/55/3 90/173/3
f 78/83/3 92/37/3 91/55/3
f 92/37/3 67/17/3 91/55/3
f 78/83/3 93/36/3 92/37/3
f 94/52/3 95/21/3 93/36/3
f 78/83/3 96/53/3 94/52/3
f 78/83/3 97/41/3 96/53/3
f 78/83/3 99/46/3 97/41/3
f 67/17/3 92/37/3 101/20/3
f 102/26/3 98/27/3 80/85/3
f 98/27/3 97/41/3 103/88/3
f 103/88/3 100/84/3 80/85/3
f 64/76/13 48/94/13 47/75/13
f 47/75/13 12/61/13 29/71/13
f 104/16/13 17/71/13 18/175/13
f 18/175/13 89/15/13 104/16/13
f 36/90/13 85/176/13 90/89/13
f 79/92/2 86/33/2 104/91/2
f 79/92/2 87/3/2 86/33/2
f 87/3/2 77/93/2 81/28/2
f 16/61/13 15/72/13 23/71/13
f 15/72/13 24/73/13 23/71/13
f 62/76/13 44/60/13 6/77/13
f 6/77/13 8/78/13 62/76/13
f 19/71/13 65/61/13 88/64/13
f 88/64/13 20/175/13 19/71/13
f 67/62/13 105/98/13 106/177/13
f 67/62/13 106/177/13 76/60/13
f 67/62/13 76/60/13 37/76/13
f 37/76/13 91/89/13 67/62/13
f 33/46/11 108/102/11 107/101/11
f 27/52/6 23/36/5 108/102/13
f 23/36/5 21/37/4 108/102/13
f 104/28/11 107/101/11 105/103/11
f 27/68/12 10/69/12 45/70/12
f 59/108/12 63/107/12 55/109/12
f 55/109/12 53/110/12 59/108/12
f 14/69/12 21/68/12 22/104/12
f 22/104/12 13/105/12 14/69/12
f 21/68/12 50/106/12 61/107/12
f 109/116/2 108/146/2 21/11/2
f 21/11/2 43/5/2 109/116/2
f 82/28/1 74/29/1 106/114/1
f 74/29/1 76/30/1 106/114/1
f 87/100/1 106/114/1 110/115/1
f 109/116/1 43/5/9 58/3/3
f 43/5/9 44/4/8 58/3/3
f 44/4/8 59/38/16 58/3/3
f 60/40/17 57/113/10 58/3/3
f 10/119/11 12/54/11 47/117/11
f 26/2/1 25/1/1 70/178/1
f 70/178/1 72/179/1 26/2/1
f 40/122/11 42/47/11 71/120/11
f 113/36/3 114/21/3 112/20/3
f 119/26/3 118/52/3 120/53/3
f 120/53/3 121/27/3 119/26/3
f 116/88/3 122/41/3 117/46/3
f 117/180/1 122/181/1 97/182/1
f 97/182/1 99/183/1 117/180/1
f 119/139/11 121/184/11 98/137/11
f 112/142/11 114/185/11 95/140/11
f 119/135/12 102/136/12 94/133/12
f 120/145/1 118/186/1 94/143/1
f 92/133/12 111/134/12 112/135/12
f 123/187/2 110/28/2 124/188/2
f 124/188/2 125/189/2 123/187/2
f 125/189/2 126/190/2 123/187/2
f 125/189/2 127/191/2 126/190/2
f 110/28/2 123/187/2 128/192/2
f 128/192/2 129/193/2 110/28/2
f 128/192/2 127/191/2 129/193/2
f 127/191/2 125/189/2 129/193/2
f 110/28/11 129/193/11 130/194/11
f 130/194/11 109/195/11 110/28/11
f 131/196/3 109/28/3 130/193/3
f 130/193/3 132/197/3 131/196/3
f 125/193/1 124/28/1 131/198/1
f 131/198/1 132/199/1 125/193/1
f 110/28/13 109/200/13 131/201/13
f 131/201/13 124/196/13 110/28/13
f 130/200/12 129/28/12 125/188/12
f 125/188/12 132/202/12 130/200/12
f 124/188/13 131/202/13 108/200/13
f 108/200/13 107/28/13 124/188/13
f 124/28/11 125/193/11 132/194/11
f 132/194/11 131/195/11 124/28/11
f 132/201/12 125/196/12 145/28/12
f 145/28/12 146/200/12 132/201/12
f 108/28/3 131/188/3 132/189/3
f 132/189/3 146/193/3 108/28/3
f 145/193/1 107/28/1 108/198/1
f 108/198/1 146/199/1 145/193/1
f 124/196/2 107/28/2 145/193/2
f 145/193/2 143/243/2 124/196/2
f 145/193/2 144/244/2 143/243/2
f 145/193/2 141/245/2 144/244/2
f 124/196/2 143/243/2 142/246/2
f 142/246/2 125/197/2 124/196/2
f 142/246/2 141/245/2 125/197/2
f 141/245/2 145/193/2 125/197/2
usemtl metal
f 134/203/2 133/204/2 135/205/2
f 135/205/2 136/206/2 134/203/2
f 135/207/18 133/208/18 123/209/18
f 123/209/18 126/210/18 135/207/18
f 126/211/19 127/212/19 136/213/19
f 136/213/19 135/214/19 126/211/19
f 134/215/20 136/216/20 127/217/20
f 127/217/20 128/218/20 134/215/20
f 134/219/21 128/220/21 123/221/21
f 123/221/21 133/222/21 134/219/21
f 138/223/2 137/224/2 139/225/2
f 139/225/2 140/226/2 138/223/2
f 138/227/20 140/228/20 141/229/20
f 141/229/20 142/230/20 138/227/20
f 138/231/21 142/232/21 143/233/21
f 143/233/21 137/234/21 138/231/21
f 139/235/18 137/236/18 143/237/18
f 143/237/18 144/238/18 139/235/18
f 144/239/19 141/240/19 140/241/19
f 140/241/19 139/242/19 144/239/19
