# Blender 4.5.4 LTS
# www.blender.org
mtllib coatRackStanding.mtl
o coatRackStanding
v -0.061200 0.208800 -0.061200
v 0.061200 0.208800 -0.061200
v -0.061200 0.310800 -0.061200
v 0.061200 0.310800 -0.061200
v 0.409200 -0.000000 -0.061200
v 0.327600 -0.000000 -0.061200
v -0.327600 -0.000000 -0.061200
v -0.409200 -0.000000 -0.061200
v -0.061200 2.106000 -0.061200
v -0.030600 1.789800 -0.061200
v -0.030600 1.871400 -0.061200
v -0.030600 2.004000 -0.061200
v 0.030600 1.871400 -0.061200
v -0.030600 2.106000 -0.061200
v 0.030600 1.789800 -0.061200
v 0.061200 2.106000 -0.061200
v 0.030600 2.004000 -0.061200
v 0.030600 2.106000 -0.061200
v 0.061200 0.208800 0.061200
v -0.061200 0.208800 0.061200
v 0.061200 2.106000 -0.030600
v 0.061200 2.106000 0.031200
v 0.061200 2.106000 0.061200
v 0.030600 2.106000 0.061200
v -0.030600 2.106000 0.061200
v -0.061200 2.106000 0.061200
v -0.061200 2.106000 -0.030600
v -0.061200 2.106000 0.030600
v 0.030600 2.310000 0.285600
v -0.030600 2.310000 0.285600
v 0.061200 -0.000000 -0.327600
v -0.061200 -0.000000 -0.327600
v -0.327600 0.000000 0.061200
v -0.409200 0.000000 0.061200
v 0.061200 0.000000 0.409200
v 0.061200 0.000000 0.327600
v -0.061200 0.000000 0.409200
v -0.061200 0.000000 0.327600
v 0.409200 0.000000 0.061200
v 0.061200 0.310800 0.061200
v -0.061200 0.310800 0.061200
v 0.327600 0.000000 0.061200
v 0.030600 1.789800 0.061200
v 0.030600 1.871400 0.061200
v 0.030600 2.004000 0.061200
v -0.030600 1.871400 0.061200
v -0.030600 1.789800 0.061200
v -0.030600 2.004000 0.061200
v -0.061200 -0.000000 -0.409200
v -0.061200 1.789800 -0.030600
v -0.061200 1.789800 0.030600
v -0.061200 1.871400 0.030600
v -0.061200 2.004000 0.030600
v -0.061200 2.004000 -0.030600
v -0.061200 1.871400 -0.030600
v 0.061200 -0.000000 -0.409200
v 0.061200 1.789800 -0.030600
v 0.061200 2.004000 -0.030600
v 0.061200 1.871400 -0.030600
v 0.061200 2.004000 0.031200
v 0.061200 1.871400 0.030600
v 0.061200 1.789800 0.030600
v 0.030600 2.269200 0.326400
v -0.030600 2.269200 0.326400
v 0.030600 1.789800 -0.367200
v -0.030600 1.789800 -0.367200
v -0.030600 2.269200 -0.326400
v 0.030600 2.269200 -0.326400
v 0.326400 2.269200 0.031200
v 0.326400 2.269200 -0.030600
v 0.285600 2.310000 -0.030600
v 0.285600 2.310000 0.031200
v -0.326400 2.269200 0.030600
v -0.326400 2.269200 -0.030600
v -0.285600 2.310000 -0.030600
v -0.285600 2.310000 0.030600
v 0.367200 1.871400 -0.030600
v 0.367200 1.789800 -0.030600
v 0.367200 1.871400 0.030600
v 0.367200 1.789800 0.030600
v 0.030600 1.789800 0.367200
v -0.030600 1.789800 0.367200
v 0.030600 1.871400 0.367200
v -0.030600 1.871400 0.367200
v -0.367200 1.789800 -0.030600
v -0.367200 1.871400 -0.030600
v -0.367200 1.789800 0.030600
v -0.367200 1.871400 0.030600
v 0.030600 2.310000 -0.285600
v -0.030600 2.310000 -0.285600
v -0.030600 1.871400 -0.367200
v 0.030600 1.871400 -0.367200
vn -0.0000 -0.0000 -1.0000
vn -0.0000 1.0000 -0.0000
vn -0.0000 -0.0000 -0.0000
vn -0.0000 0.7399 -0.6727
vn -0.0000 -0.7871 0.6169
vn -0.0000 -1.0000 -0.0000
vn 0.6661 0.7458 -0.0000
vn -0.0000 -0.0000 1.0000
vn -1.0000 -0.0000 -0.0000
vn -0.0000 0.7458 -0.6661
vn 1.0000 -0.0000 -0.0000
vn -0.6661 0.7458 -0.0000
vn -0.6169 -0.7871 -0.0000
vn 0.6169 -0.7871 -0.0000
vn -0.0000 0.7458 0.6661
vn -0.0000 -0.7871 -0.6169
vn -0.0000 -0.7071 -0.7071
vn 0.7071 -0.7071 -0.0000
vn -0.7071 -0.7071 -0.0000
vn 0.6727 0.7399 -0.0000
vn -0.0000 0.7071 -0.7071
vn 0.7071 0.7071 -0.0000
vn -0.7071 0.7071 -0.0000
vn -0.0000 -0.7071 0.7071
vn -0.6727 0.7399 -0.0000
vn -0.0000 0.7399 0.6727
vn -0.0000 0.7071 0.7071
vt -0.803150 2.740157
vt 0.803150 2.740157
vt 0.803150 4.078740
vt -0.803150 4.078740
vt -5.370079 0.000000
vt -4.299212 0.000000
vt 4.299212 0.000000
vt 5.370079 0.000000
vt 0.803150 27.637791
vt 0.401575 23.488190
vt -0.401575 23.488190
vt -0.401575 24.559059
vt -0.401575 26.299210
vt -0.803150 27.637791
vt 0.401575 26.299210
vt -0.401575 27.637791
vt -0.803150 -0.401575
vt -0.803150 -0.803150
vt -0.401575 -0.803150
vt -0.803150 0.409449
vt 0.401575 0.803150
vt -0.401575 0.803150
vt 0.401575 -0.803150
vt 0.803150 -0.803150
vt 0.803150 0.803150
vt 0.803150 -0.401575
vt 0.803150 0.401575
vt -0.401575 23.165371
vt -0.401575 19.185480
vt 0.401575 19.185480
vt 0.401575 23.165371
vt -0.803150 1.058229
vt -0.803150 -3.383721
vt 0.803150 -3.383721
vt 0.803150 4.299212
vt 0.803150 5.370079
vt -0.803150 5.370079
vt -0.803150 4.299212
vt -0.803150 -4.005254
vt 0.803150 -4.005254
vt 0.803150 2.117896
vt -0.803150 2.117896
vt 0.401575 24.559059
vt -0.803150 0.803150
vt 0.401575 27.637791
vt -0.409449 26.299210
vt 5.370079 -0.803150
vt 5.370079 0.803150
vt 4.299212 0.803150
vt 4.299212 -0.803150
vt 0.803150 1.058229
vt -0.803150 -4.299212
vt -0.803150 -5.370079
vt 0.803150 -5.370079
vt 0.401575 -4.818898
vt -0.401575 -4.818898
vt 0.401575 24.086170
vt -0.401575 24.086170
vt -0.401575 19.164261
vt -0.409449 19.164261
vt 0.401575 19.164261
vt 4.818898 -0.401575
vt 4.818898 0.401575
vt 0.803150 23.488190
vt 4.818898 23.488190
vt 4.818898 24.559059
vt 0.803150 24.559059
vt 0.401575 4.818898
vt -0.401575 4.818898
vt -0.803150 23.488190
vt -0.803150 24.559059
vt -4.818898 24.559059
vt -4.818898 23.488190
vt 0.401575 18.028440
vt 0.401575 18.785660
vt -0.401575 18.785660
vt -0.409449 18.785660
vt -0.409449 18.028440
vt -0.401575 18.028440
vt -0.803150 26.299210
vt -3.748031 30.314960
vt 0.803150 26.299210
vt 4.283464 29.779530
vt 3.748031 30.314960
vt -4.283464 29.779530
vt -4.299212 -0.803150
vt -4.299212 0.803150
vt -5.370079 0.803150
vt -5.370079 -0.803150
vt -0.409449 27.637791
vt 0.803150 -4.299212
vt -0.409449 24.086170
vt 0.409449 23.165371
vt 0.409449 19.185480
vt -0.803150 0.401575
vt -4.818898 0.401575
vt -4.818898 -0.401575
s 0
usemtl wood.001
f 2/1/1 1/2/1 3/3/1
f 3/3/1 4/4/1 2/1/1
f 2/1/1 4/4/1 5/5/1
f 5/5/1 6/6/1 2/1/1
f 3/3/1 1/2/1 7/7/1
f 7/7/1 8/8/1 3/3/1
f 4/4/1 3/3/1 9/9/1
f 4/4/1 10/10/1 15/11/1
f 13/12/1 17/13/1 16/14/1
f 13/12/1 12/15/1 17/13/1
f 17/13/1 18/16/1 16/14/1
f 21/17/2 16/18/2 18/19/2
f 18/19/2 22/20/2 21/17/2
f 18/19/2 25/21/2 24/22/2
f 18/19/2 14/23/2 25/21/2
f 14/23/2 9/24/2 26/25/2
f 9/24/3 27/26/3 26/25/3
f 27/26/2 28/27/2 26/25/2
f 29/28/4 24/29/4 25/30/4
f 25/30/4 30/31/4 29/28/4
f 1/32/5 32/33/5 31/34/5
f 36/35/6 35/36/6 37/37/6
f 37/37/6 38/38/6 36/35/6
f 39/39/7 5/40/7 4/41/7
f 4/41/7 40/42/7 39/39/7
f 20/1/8 41/4/8 34/5/8
f 41/4/8 40/3/8 23/9/8
f 23/9/8 44/43/8 43/10/8
f 23/9/8 45/15/8 44/43/8
f 45/15/8 46/12/8 44/43/8
f 47/11/8 26/14/8 41/4/8
f 40/44/2 4/18/2 3/24/2
f 38/7/9 37/8/9 41/3/9
f 20/2/9 41/3/9 3/4/9
f 3/4/9 1/1/9 20/2/9
f 3/4/9 49/5/9 32/6/9
f 41/3/9 50/11/9 9/14/9
f 41/3/9 52/43/9 51/10/9
f 41/3/9 53/15/9 52/43/9
f 41/3/9 28/45/9 53/15/9
f 41/3/9 26/9/9 28/45/9
f 52/43/9 53/15/9 54/13/9
f 54/13/9 55/12/9 52/43/9
f 55/12/9 27/16/9 9/14/9
f 4/42/10 56/39/10 49/40/10
f 4/3/11 2/2/11 31/7/11
f 19/1/11 40/4/11 35/5/11
f 57/10/11 40/4/11 4/3/11
f 21/45/11 57/10/11 4/3/11
f 21/45/11 58/15/11 57/10/11
f 60/46/11 61/12/11 59/43/11
f 60/46/11 62/11/11 61/12/11
f 57/10/11 62/11/11 40/4/11
f 60/46/11 23/14/11 40/4/11
f 8/39/12 34/40/12 41/41/12
f 5/47/6 39/48/6 42/49/6
f 42/49/6 6/50/6 5/47/6
f 19/51/13 2/32/13 6/33/13
f 33/33/14 7/34/14 1/51/14
f 32/52/6 49/53/6 56/54/6
f 35/40/15 40/41/15 41/42/15
f 41/42/15 37/39/15 35/40/15
f 19/32/16 36/33/16 38/34/16
f 38/34/16 20/51/16 19/32/16
f 65/55/6 15/23/6 10/19/6
f 10/19/6 66/56/6 65/55/6
f 67/57/17 68/58/17 17/59/17
f 60/60/18 58/61/18 70/57/18
f 73/57/19 74/58/19 54/59/19
f 28/29/20 27/30/20 75/31/20
f 75/31/20 76/28/20 28/29/20
f 78/10/11 77/43/11 79/12/11
f 79/12/11 80/11/11 78/10/11
f 78/62/6 80/63/6 62/27/6
f 62/64/8 80/65/8 79/66/8
f 79/66/8 61/67/8 62/64/8
f 43/21/6 81/68/6 82/69/6
f 82/69/6 47/22/6 43/21/6
f 43/70/11 44/71/11 83/72/11
f 83/72/11 81/73/11 43/70/11
f 83/69/2 44/22/2 46/21/2
f 46/21/2 84/68/2 83/69/2
f 78/73/1 57/70/1 59/71/1
f 46/67/9 47/64/9 82/65/9
f 82/65/9 84/66/9 46/67/9
f 87/73/8 51/70/8 52/71/8
f 91/43/1 92/12/1 65/11/1
f 82/11/8 81/10/8 83/43/8
f 83/43/8 84/12/8 82/11/8
f 91/72/9 66/73/9 10/70/9
f 10/70/9 11/71/9 91/72/9
f 67/74/21 90/75/21 89/76/21
f 70/74/22 71/75/22 72/77/22
f 72/77/22 69/78/22 70/74/22
f 75/76/23 74/79/23 73/74/23
f 45/80/11 24/14/11 29/81/11
f 22/9/8 60/82/8 69/83/8
f 69/83/8 72/84/8 22/9/8
f 70/85/1 58/80/1 21/14/1
f 21/14/1 71/81/1 70/85/1
f 27/9/1 54/82/1 74/83/1
f 74/83/1 75/84/1 27/9/1
f 90/81/9 67/85/9 12/80/9
f 64/83/9 30/84/9 25/9/9
f 9/9/1 10/10/1 4/4/1
f 9/9/1 11/43/1 10/10/1
f 9/9/1 12/15/1 11/43/1
f 12/15/1 13/12/1 11/43/1
f 9/9/1 14/45/1 12/15/1
f 15/11/1 16/14/1 4/4/1
f 15/11/1 13/12/1 16/14/1
f 2/24/6 19/25/6 20/44/6
f 20/44/6 1/18/6 2/24/6
f 18/19/2 23/44/2 22/20/2
f 18/19/2 24/22/2 23/44/2
f 14/23/2 26/25/2 25/21/2
f 31/34/5 2/51/5 1/32/5
f 7/86/6 33/87/6 34/88/6
f 34/88/6 8/89/6 7/86/6
f 20/1/8 19/2/8 40/3/8
f 40/3/8 41/4/8 20/1/8
f 40/3/8 19/2/8 42/7/8
f 42/7/8 39/8/8 40/3/8
f 34/5/8 33/6/8 20/1/8
f 23/9/8 43/10/8 41/4/8
f 23/9/8 24/45/8 45/15/8
f 41/4/8 43/10/8 47/11/8
f 47/11/8 46/12/8 26/14/8
f 46/12/8 48/13/8 26/14/8
f 46/12/8 45/15/8 48/13/8
f 48/13/8 25/16/8 26/14/8
f 3/24/2 41/25/2 40/44/2
f 41/3/9 20/2/9 38/7/9
f 32/6/9 1/1/9 3/4/9
f 9/14/9 3/4/9 41/3/9
f 41/3/9 51/10/9 50/11/9
f 9/14/9 50/11/9 55/12/9
f 55/12/9 54/13/9 27/16/9
f 49/40/10 3/41/10 4/42/10
f 2/2/11 4/3/11 40/4/11
f 40/4/11 19/1/11 2/2/11
f 31/7/11 56/8/11 4/3/11
f 35/5/11 36/6/11 19/1/11
f 4/3/11 16/9/11 21/45/11
f 58/15/11 59/43/11 57/10/11
f 59/43/11 58/15/11 60/46/11
f 62/11/11 60/46/11 40/4/11
f 60/46/11 22/90/11 23/14/11
f 41/41/12 3/42/12 8/39/12
f 6/33/13 42/34/13 19/51/13
f 1/51/14 20/32/14 33/33/14
f 56/54/6 31/91/6 32/52/6
f 45/61/24 63/57/24 64/58/24
f 64/58/24 48/59/24 45/61/24
f 17/59/17 12/61/17 67/57/17
f 70/57/18 69/92/18 60/60/18
f 72/93/25 71/28/25 21/29/25
f 21/29/25 22/94/25 72/93/25
f 54/59/19 53/61/19 73/57/19
f 62/27/6 57/26/6 78/62/6
f 86/12/9 85/11/9 87/10/9
f 87/10/9 88/43/9 86/12/9
f 50/64/1 85/65/1 86/66/1
f 86/66/1 55/67/1 50/64/1
f 50/17/6 51/95/6 87/96/6
f 87/96/6 85/97/6 50/17/6
f 52/27/2 55/26/2 86/62/2
f 86/62/2 88/63/2 52/27/2
f 18/30/26 89/31/26 90/28/26
f 90/28/26 14/29/26 18/30/26
f 79/96/2 77/97/2 59/17/2
f 59/17/2 61/95/2 79/96/2
f 59/71/1 77/72/1 78/73/1
f 52/71/8 88/72/8 87/73/8
f 65/11/1 66/10/1 91/43/1
f 65/65/11 92/66/11 13/67/11
f 13/67/11 15/64/11 65/65/11
f 13/19/2 92/56/2 91/55/2
f 91/55/2 11/23/2 13/19/2
f 89/76/21 68/79/21 67/74/21
f 73/74/23 76/75/23 75/76/23
f 64/79/27 63/74/27 29/75/27
f 29/75/27 30/76/27 64/79/27
f 29/81/11 63/85/11 45/80/11
f 73/85/8 53/80/8 28/14/8
f 28/14/8 76/81/8 73/85/8
f 17/82/11 68/83/11 89/84/11
f 89/84/11 18/9/11 17/82/11
f 12/80/9 14/14/9 90/81/9
f 25/9/9 48/82/9 64/83/9
