# Blender 4.5.4 LTS
# www.blender.org
mtllib loungeSofa.mtl
o loungeSofa
v 1.209060 0.990000 0.477076
v 1.209060 0.690000 0.477076
v 1.209060 1.110000 0.357078
v 1.209060 0.690000 -0.422409
v 1.209060 1.110000 -0.422409
v -1.295167 1.260000 -0.422409
v -1.295167 1.110000 -0.422409
v -1.295167 1.260000 -0.692922
v -1.295167 1.110000 -0.692922
v 1.314318 1.260000 -0.422409
v 1.194318 1.380000 -0.422409
v 1.314317 1.260000 -0.692924
v 1.194318 1.380000 -0.692922
v 1.479575 1.110000 0.357076
v 1.314318 1.110000 -0.422409
v 1.314317 1.110000 -0.692924
v 1.479575 1.110000 -0.692924
v 1.479575 0.990000 0.477076
v -1.175168 1.380000 -0.422409
v -1.175168 1.380000 -0.692922
v 1.479575 0.150000 0.477077
v 1.479575 0.150000 0.357076
v 1.479575 0.150000 -0.572924
v 1.479575 0.150000 -0.692923
v -1.460425 0.990000 0.477078
v -1.460425 0.150000 0.477078
v -1.460425 1.110000 0.357078
v -1.460425 0.150000 0.357078
v -1.460425 1.110000 -0.692922
v -1.460425 0.150000 -0.572922
v -1.460425 0.150000 -0.692922
v -1.340425 0.150000 -0.692922
v 1.359574 0.150000 -0.692923
v -1.340425 0.150000 -0.572922
v 1.359574 0.150000 0.357076
v 1.359574 0.150000 -0.572924
v 1.359574 0.150000 0.477077
v -1.340425 0.150000 0.477078
v -1.340425 0.150000 0.357078
v -1.189911 0.690000 0.537078
v -1.189911 0.690000 0.477078
v 1.209060 0.690000 0.537076
v -1.189911 0.690000 -0.422409
v 1.209060 0.434444 0.537076
v -1.189911 0.434444 0.537078
v -1.189911 0.434444 0.477078
v 1.209060 0.434444 0.477077
v -1.189911 0.990000 0.477078
v -1.189911 1.110000 0.357078
v -1.189911 1.110000 -0.422409
v 1.359574 -0.000000 -0.692923
v 1.359574 -0.000000 -0.572924
v 1.479575 -0.000000 -0.692923
v 1.479575 -0.000000 -0.572924
v 1.479575 0.000000 0.477077
v 1.359574 0.000000 0.477077
v -1.340425 -0.000000 -0.572922
v -1.460425 -0.000000 -0.572922
v -1.460425 -0.000000 -0.692922
v -1.460425 0.000000 0.357078
v -1.460425 0.000000 0.477078
v -1.340425 0.000000 0.357078
v -1.340425 0.000000 0.477078
v 1.359574 0.000000 0.357076
v 1.479575 0.000000 0.357076
v -1.340425 -0.000000 -0.692922
vn -1.0000 -0.0000 -0.0000
vn 0.7071 0.7071 -0.0000
vn -0.0000 1.0000 -0.0000
vn -0.0000 0.7071 0.7071
vn 1.0000 -0.0000 -0.0000
vn -0.0000 -0.0000 -1.0000
vn -0.0000 -1.0000 -0.0000
vn -0.3638 0.9315 -0.0000
vn -0.0000 -0.0000 -0.0000
vn -0.0000 -0.0000 1.0000
vn -0.5219 0.1962 0.8301
vn 0.3828 0.3536 -0.8535
vn -0.7071 0.7071 -0.0000
vn -0.0000 1.0000 0.0001
vt -0.787402 9.055119
vt -0.787402 12.992130
vt -2.362205 14.566930
vt -12.591680 9.055119
vt -12.591680 14.566930
vt -12.591680 16.535431
vt -16.141729 16.535431
vt -16.141729 14.566930
vt 12.591680 -11.829120
vt 12.591680 -14.056230
vt 16.141729 -14.056230
vt 16.141729 -11.829120
vt 35.032619 12.591680
vt 35.032619 2.362205
vt 38.582680 2.362205
vt 36.413952 12.591680
vt 36.413952 16.141729
vt 38.582680 16.141729
vt 35.032619 9.743597
vt 38.582680 9.743597
vt 38.582680 11.970710
vt 35.032619 11.970710
vt 3.743532 16.141729
vt 3.743532 12.591680
vt 34.839149 12.591680
vt 34.839149 16.141729
vt 0.787402 12.992130
vt 0.787402 1.968504
vt 2.362205 1.968504
vt 2.362205 14.566930
vt 14.566930 1.968504
vt 16.141729 14.566930
vt -0.787402 1.968504
vt -2.362205 1.968504
vt -14.566930 1.968504
vt -16.141729 1.968504
vt -2.168729 16.535431
vt -36.413952 16.535431
vt -36.413952 14.566930
vt -3.743532 18.110241
vt -34.839149 18.110241
vt -37.007870 14.566930
vt -38.582680 2.362205
vt -37.007870 2.362205
vt -38.582680 14.566930
vt -1.574803 14.566930
vt -37.007870 0.787402
vt -1.574803 0.787402
vt -1.574803 2.362205
vt -0.000000 14.566930
vt -0.000000 2.362205
vt 35.032619 0.000000
vt 3.550057 12.591680
vt 3.550057 0.787402
vt 35.032619 0.787402
vt 3.550057 5.701352
vt 35.032619 5.701352
vt 35.032619 9.055119
vt 0.787402 5.701352
vt 0.787402 9.055119
vt 0.000000 9.055119
vt 37.007870 1.968504
vt -0.000000 16.141729
vt 3.550057 2.362205
vt -16.141729 15.452950
vt -16.141729 13.225840
vt -12.591680 13.225840
vt 35.032619 14.566930
vt 36.413952 14.566930
vt 36.413952 16.535431
vt 3.550057 14.566930
vt 3.550057 9.055119
vt 12.591680 16.535431
vt 12.591680 14.566930
vt 16.141729 1.968504
vt -1.574803 1.968504
vt -0.000000 1.968504
vt -37.007870 1.968504
vt -2.168729 14.566930
vt -38.582680 1.968504
vt -1.574803 16.141729
vt -37.007870 16.141729
vt 3.550057 0.000000
vt -3.550057 0.000000
vt -3.550057 0.787402
vt -35.032619 0.787402
vt -35.032619 0.000000
vt 0.000000 5.701352
vt -0.787402 5.701352
vt 38.582680 1.968504
vt 38.582680 12.992130
vt 35.032619 12.992130
vt 1.574803 1.968504
vt 0.000000 12.992130
vt 3.550057 12.992130
vt 2.168729 12.591680
vt 2.168729 16.141729
vt 0.000000 9.743597
vt 3.550057 9.743597
vt 3.550057 11.970710
vt 0.000000 11.970710
vt 12.591680 9.055119
vt -12.591680 15.452950
vt 2.168729 14.566930
vt 2.168729 16.535431
vt 34.839149 18.110241
vt 3.743532 18.110241
vt 16.141729 16.535431
vt -38.582680 16.141729
vt -38.582680 0.000000
vt -14.566930 0.000000
vt 37.007870 0.000000
vt 38.582680 0.000000
vt 0.000000 0.787402
vt -0.787402 0.000000
vt -2.362205 0.000000
vt -37.007870 0.000000
vt -1.574803 0.000000
vt 0.787402 0.000000
vt 2.362205 0.000000
vt -38.582680 0.787402
vt 14.566930 0.000000
vt 16.141729 0.000000
vt 0.000000 0.000000
vt 1.574803 0.000000
vt -16.141729 0.000000
s 1
usemtl carpet.001
f 2/1/1 1/2/1 3/3/1
f 3/3/1 4/4/1 2/1/1
f 3/3/1 5/5/1 4/4/1
f 7/5/1 6/6/1 8/7/1
f 8/7/1 9/8/1 7/5/1
f 11/9/2 10/10/2 12/11/2
f 12/11/2 13/12/2 11/9/2
f 5/13/3 3/14/3 14/15/3
f 14/15/3 15/16/3 5/13/3
f 14/15/3 16/17/3 15/16/3
f 14/15/3 17/18/3 16/17/3
f 1/19/4 18/20/4 14/21/4
f 14/21/4 3/22/4 1/19/4
f 20/23/3 19/24/3 11/25/3
f 11/25/3 13/26/3 20/23/3
f 18/27/5 21/28/5 22/29/5
f 22/29/5 14/30/5 18/27/5
f 22/29/5 23/31/5 14/30/5
f 23/31/5 17/32/5 14/30/5
f 26/33/1 25/2/1 27/3/1
f 27/3/1 28/34/1 26/33/1
f 27/3/1 29/8/1 28/34/1
f 29/8/1 30/35/1 28/34/1
f 29/8/1 31/36/1 30/35/1
f 8/37/6 12/38/6 16/39/6
f 20/40/6 13/41/6 12/38/6
f 36/42/7 22/43/7 35/44/7
f 36/42/7 23/45/7 22/43/7
f 34/46/7 35/44/7 37/47/7
f 34/46/7 37/47/7 38/48/7
s 0
f 34/46/8 38/48/8 39/49/8
s 1
f 30/50/7 34/46/7 39/49/7
f 39/49/7 28/51/7 30/50/7
f 42/52/3 43/53/3 41/54/3
f 42/52/3 4/13/3 43/53/3
s 0
f 42/52/9 2/55/9 4/13/9
s 1
f 45/56/10 44/57/10 42/58/10
f 47/59/5 2/60/11 42/61/12
f 37/62/10 47/57/10 46/56/10
f 29/63/3 27/51/3 49/64/3
f 20/65/13 8/66/13 6/67/13
f 5/68/10 15/69/10 10/70/10
f 10/70/10 50/71/10 5/68/10
f 5/68/10 50/71/10 43/72/10
f 10/73/5 15/74/5 16/32/5
f 23/31/5 24/75/5 17/32/5
f 32/76/6 31/77/6 29/50/6
f 29/50/6 33/78/6 32/76/6
f 29/50/6 9/79/6 33/78/6
f 33/78/6 9/79/6 17/45/6
f 17/45/6 24/80/6 33/78/6
f 9/79/3 16/39/3 17/45/3
f 16/39/6 9/79/6 8/37/6
f 8/37/6 20/40/6 12/38/6
f 34/46/7 32/81/7 33/82/7
f 33/82/7 35/44/7 34/46/7
s 0
f 33/82/9 36/42/9 35/44/9
s 1
f 41/54/3 40/83/3 42/52/3
f 42/58/10 40/72/10 45/56/10
f 45/84/7 46/85/7 47/86/7
f 47/86/7 44/87/7 45/84/7
f 42/61/12 44/88/5 47/59/5
f 45/88/1 40/61/1 41/1/1
f 41/1/1 46/89/1 45/88/1
f 37/62/10 21/90/10 18/91/10
f 18/91/10 47/57/10 37/62/10
f 18/91/10 2/58/10 47/57/10
f 18/91/10 1/92/10 2/58/10
f 37/62/10 46/56/10 26/77/10
f 26/77/14 38/93/14 37/62/14
f 46/56/10 25/94/10 26/77/10
f 46/56/10 41/72/10 25/94/10
f 41/72/10 48/95/10 25/94/10
f 49/64/3 7/96/3 29/63/3
f 49/64/3 50/53/3 7/96/3
f 29/63/3 7/96/3 9/97/3
f 25/98/4 48/99/4 49/100/4
f 49/100/4 27/101/4 25/98/4
f 48/27/5 41/60/5 43/102/5
f 43/102/5 49/30/5 48/27/5
f 43/102/5 50/74/5 49/30/5
f 6/67/13 19/103/13 20/65/13
f 10/70/10 7/104/10 50/71/10
f 10/70/10 6/105/10 7/104/10
f 10/70/10 11/106/10 6/105/10
f 11/106/10 19/107/10 6/105/10
f 43/72/10 4/58/10 5/68/10
f 16/32/5 12/108/5 10/73/5
usemtl wood.002
f 53/109/7 54/45/7 52/42/7
f 33/78/6 24/80/6 53/110/6
f 52/111/1 36/35/1 33/36/1
f 56/112/10 55/113/10 21/90/10
f 21/90/10 37/62/10 56/112/10
f 62/49/7 63/48/7 61/114/7
f 56/115/1 37/33/1 35/34/1
f 61/115/1 26/33/1 28/34/1
f 28/34/1 60/116/1 61/115/1
f 65/110/6 64/117/6 35/78/6
f 35/78/6 22/80/6 65/110/6
f 28/77/6 39/76/6 62/118/6
f 38/28/5 63/119/5 62/120/5
f 62/120/5 39/29/5 38/28/5
f 21/28/5 55/119/5 65/120/5
f 56/47/7 64/44/7 65/43/7
f 65/43/7 55/121/7 56/47/7
f 34/31/5 57/122/5 66/123/5
f 58/50/7 59/63/7 66/81/7
f 66/81/7 57/46/7 58/50/7
f 61/124/10 63/125/10 38/93/10
f 38/93/10 26/77/10 61/124/10
f 52/42/7 51/82/7 53/109/7
f 53/110/6 51/117/6 33/78/6
f 23/31/5 54/122/5 53/123/5
f 53/123/5 24/75/5 23/31/5
f 52/112/10 54/113/10 23/90/10
f 23/90/10 36/62/10 52/112/10
f 33/36/1 51/126/1 52/111/1
f 58/124/10 57/125/10 34/93/10
f 34/93/10 30/77/10 58/124/10
f 58/111/1 30/35/1 31/36/1
f 31/36/1 59/126/1 58/111/1
f 61/114/7 60/51/7 62/49/7
f 35/34/1 64/116/1 56/115/1
f 62/118/6 60/124/6 28/77/6
f 65/120/5 22/29/5 21/28/5
f 66/118/6 59/124/6 31/77/6
f 31/77/6 32/76/6 66/118/6
f 66/123/5 32/75/5 34/31/5
