# Blender 4.5.4 LTS
# www.blender.org
mtllib ring_line.mtl
o 圆环
v 0.000000 0.000000 -1.000000
v -0.049068 0.000000 -0.998795
v -0.098017 0.000000 -0.995185
v -0.146730 0.000000 -0.989177
v -0.195090 0.000000 -0.980785
v -0.242980 0.000000 -0.970031
v -0.290285 0.000000 -0.956940
v -0.336890 0.000000 -0.941544
v -0.382683 0.000000 -0.923880
v -0.427555 0.000000 -0.903989
v -0.471397 0.000000 -0.881921
v -0.514103 0.000000 -0.857729
v -0.555570 0.000000 -0.831470
v -0.595699 0.000000 -0.803208
v -0.634393 0.000000 -0.773010
v -0.671559 0.000000 -0.740951
v -0.707107 0.000000 -0.707107
v -0.740951 0.000000 -0.671559
v -0.773010 0.000000 -0.634393
v -0.803208 0.000000 -0.595699
v -0.831470 0.000000 -0.555570
v -0.857729 0.000000 -0.514103
v -0.881921 0.000000 -0.471397
v -0.903989 0.000000 -0.427555
v -0.923880 0.000000 -0.382683
v -0.941544 0.000000 -0.336890
v -0.956940 0.000000 -0.290285
v -0.970031 0.000000 -0.242980
v -0.980785 0.000000 -0.195090
v -0.989177 0.000000 -0.146730
v -0.995185 0.000000 -0.098017
v -0.998795 0.000000 -0.049068
v -1.000000 0.000000 0.000000
v -0.998795 0.000000 0.049068
v -0.995185 0.000000 0.098017
v -0.989177 0.000000 0.146730
v -0.980785 0.000000 0.195090
v -0.970031 0.000000 0.242980
v -0.956940 0.000000 0.290285
v -0.941544 0.000000 0.336890
v -0.923880 0.000000 0.382683
v -0.903989 0.000000 0.427555
v -0.881921 0.000000 0.471397
v -0.857729 0.000000 0.514103
v -0.831470 0.000000 0.555570
v -0.803208 0.000000 0.595699
v -0.773010 0.000000 0.634393
v -0.740951 0.000000 0.671559
v -0.707107 0.000000 0.707107
v -0.671559 0.000000 0.740951
v -0.634393 0.000000 0.773010
v -0.595699 0.000000 0.803208
v -0.555570 0.000000 0.831470
v -0.514103 0.000000 0.857729
v -0.471397 0.000000 0.881921
v -0.427555 0.000000 0.903989
v -0.382683 0.000000 0.923880
v -0.336890 0.000000 0.941544
v -0.290285 0.000000 0.956940
v -0.242980 0.000000 0.970031
v -0.195090 0.000000 0.980785
v -0.146730 0.000000 0.989177
v -0.098017 0.000000 0.995185
v -0.049068 0.000000 0.998795
v 0.000000 0.000000 1.000000
v 0.049068 0.000000 0.998795
v 0.098017 0.000000 0.995185
v 0.146730 0.000000 0.989177
v 0.195090 0.000000 0.980785
v 0.242980 0.000000 0.970031
v 0.290285 0.000000 0.956940
v 0.336890 0.000000 0.941544
v 0.382683 0.000000 0.923880
v 0.427555 0.000000 0.903989
v 0.471397 0.000000 0.881921
v 0.514103 0.000000 0.857729
v 0.555570 0.000000 0.831470
v 0.595699 0.000000 0.803208
v 0.634393 0.000000 0.773010
v 0.671559 0.000000 0.740951
v 0.707107 0.000000 0.707107
v 0.740951 0.000000 0.671559
v 0.773010 0.000000 0.634393
v 0.803208 0.000000 0.595699
v 0.831470 0.000000 0.555570
v 0.857729 0.000000 0.514103
v 0.881921 0.000000 0.471397
v 0.903989 0.000000 0.427555
v 0.923880 0.000000 0.382683
v 0.941544 0.000000 0.336890
v 0.956940 0.000000 0.290285
v 0.970031 0.000000 0.242980
v 0.980785 0.000000 0.195090
v 0.989177 0.000000 0.146730
v 0.995185 0.000000 0.098017
v 0.998795 0.000000 0.049068
v 1.000000 0.000000 0.000000
v 0.998795 0.000000 -0.049068
v 0.995185 0.000000 -0.098017
v 0.989177 0.000000 -0.146730
v 0.980785 0.000000 -0.195090
v 0.970031 0.000000 -0.242980
v 0.956940 0.000000 -0.290285
v 0.941544 0.000000 -0.336890
v 0.923880 0.000000 -0.382683
v 0.903989 0.000000 -0.427555
v 0.881921 0.000000 -0.471397
v 0.857729 0.000000 -0.514103
v 0.831470 0.000000 -0.555570
v 0.803208 0.000000 -0.595699
v 0.773010 0.000000 -0.634393
v 0.740951 0.000000 -0.671559
v 0.707107 0.000000 -0.707107
v 0.671559 0.000000 -0.740951
v 0.634393 0.000000 -0.773010
v 0.595699 0.000000 -0.803208
v 0.555570 0.000000 -0.831470
v 0.514103 0.000000 -0.857729
v 0.471397 0.000000 -0.881921
v 0.427555 0.000000 -0.903989
v 0.382683 0.000000 -0.923880
v 0.336890 0.000000 -0.941544
v 0.290285 0.000000 -0.956940
v 0.242980 0.000000 -0.970031
v 0.195090 0.000000 -0.980785
v 0.146730 0.000000 -0.989177
v 0.098017 0.000000 -0.995185
v 0.049068 0.000000 -0.998795
v 0.000000 0.000000 -0.995000
v -0.048822 0.000000 -0.993801
v -0.097527 0.000000 -0.990209
v -0.145997 0.000000 -0.984231
v -0.194115 0.000000 -0.975881
v -0.241765 0.000000 -0.965181
v -0.288833 0.000000 -0.952156
v -0.335205 0.000000 -0.936836
v -0.380770 0.000000 -0.919260
v -0.425417 0.000000 -0.899469
v -0.469040 0.000000 -0.877512
v -0.511532 0.000000 -0.853440
v -0.552792 0.000000 -0.827312
v -0.592721 0.000000 -0.799191
v -0.631221 0.000000 -0.769145
v -0.668201 0.000000 -0.737246
v -0.703571 0.000000 -0.703571
v -0.737246 0.000000 -0.668201
v -0.769145 0.000000 -0.631221
v -0.799191 0.000000 -0.592721
v -0.827312 0.000000 -0.552792
v -0.853440 0.000000 -0.511532
v -0.877512 0.000000 -0.469040
v -0.899469 0.000000 -0.425417
v -0.919260 0.000000 -0.380770
v -0.936836 0.000000 -0.335205
v -0.952156 0.000000 -0.288833
v -0.965181 0.000000 -0.241765
v -0.975881 0.000000 -0.194115
v -0.984231 0.000000 -0.145997
v -0.990209 0.000000 -0.097527
v -0.993801 0.000000 -0.048822
v -0.995000 0.000000 0.000000
v -0.993801 0.000000 0.048822
v -0.990209 0.000000 0.097527
v -0.984231 0.000000 0.145997
v -0.975881 0.000000 0.194115
v -0.965181 0.000000 0.241765
v -0.952156 0.000000 0.288833
v -0.936836 0.000000 0.335205
v -0.919260 0.000000 0.380770
v -0.899469 0.000000 0.425417
v -0.877512 0.000000 0.469040
v -0.853440 0.000000 0.511532
v -0.827312 0.000000 0.552792
v -0.799191 0.000000 0.592721
v -0.769145 0.000000 0.631221
v -0.737246 0.000000 0.668201
v -0.703571 0.000000 0.703571
v -0.668201 0.000000 0.737246
v -0.631221 0.000000 0.769145
v -0.592721 0.000000 0.799191
v -0.552792 0.000000 0.827312
v -0.511532 0.000000 0.853440
v -0.469040 0.000000 0.877512
v -0.425417 0.000000 0.899469
v -0.380770 0.000000 0.919260
v -0.335205 0.000000 0.936836
v -0.288833 0.000000 0.952156
v -0.241765 0.000000 0.965181
v -0.194115 0.000000 0.975881
v -0.145997 0.000000 0.984231
v -0.097527 0.000000 0.990209
v -0.048822 0.000000 0.993801
v 0.000000 0.000000 0.995000
v 0.048822 0.000000 0.993801
v 0.097527 0.000000 0.990209
v 0.145997 0.000000 0.984231
v 0.194115 0.000000 0.975881
v 0.241765 0.000000 0.965181
v 0.288833 0.000000 0.952156
v 0.335205 0.000000 0.936836
v 0.380770 0.000000 0.919260
v 0.425417 0.000000 0.899469
v 0.469040 0.000000 0.877512
v 0.511532 0.000000 0.853440
v 0.552792 0.000000 0.827312
v 0.592721 0.000000 0.799191
v 0.631221 0.000000 0.769145
v 0.668201 0.000000 0.737246
v 0.703571 0.000000 0.703571
v 0.737246 0.000000 0.668201
v 0.769145 0.000000 0.631221
v 0.799191 0.000000 0.592721
v 0.827312 0.000000 0.552792
v 0.853440 0.000000 0.511532
v 0.877512 0.000000 0.469040
v 0.899469 0.000000 0.425417
v 0.919260 0.000000 0.380770
v 0.936836 0.000000 0.335205
v 0.952156 0.000000 0.288833
v 0.965181 0.000000 0.241765
v 0.975881 0.000000 0.194115
v 0.984231 0.000000 0.145997
v 0.990209 0.000000 0.097527
v 0.993801 0.000000 0.048822
v 0.995000 0.000000 0.000000
v 0.993801 0.000000 -0.048822
v 0.990209 0.000000 -0.097527
v 0.984231 0.000000 -0.145997
v 0.975881 0.000000 -0.194115
v 0.965181 0.000000 -0.241765
v 0.952156 0.000000 -0.288833
v 0.936836 0.000000 -0.335205
v 0.919260 0.000000 -0.380770
v 0.899469 0.000000 -0.425417
v 0.877512 0.000000 -0.469040
v 0.853440 0.000000 -0.511532
v 0.827312 0.000000 -0.552792
v 0.799191 0.000000 -0.592721
v 0.769145 0.000000 -0.631221
v 0.737246 0.000000 -0.668201
v 0.703571 0.000000 -0.703571
v 0.668201 0.000000 -0.737246
v 0.631221 0.000000 -0.769145
v 0.592721 0.000000 -0.799191
v 0.552792 0.000000 -0.827312
v 0.511532 0.000000 -0.853440
v 0.469040 0.000000 -0.877512
v 0.425417 0.000000 -0.899469
v 0.380770 0.000000 -0.919260
v 0.335205 0.000000 -0.936836
v 0.288833 0.000000 -0.952156
v 0.241765 0.000000 -0.965181
v 0.194115 0.000000 -0.975881
v 0.145997 0.000000 -0.984231
v 0.097527 0.000000 -0.990209
v 0.048822 0.000000 -0.993801
vn -0.0000 1.0000 -0.0000
vt 0.000000 0.000000
s 0
f 94/1/1 222/1/1 221/1/1 93/1/1
f 43/1/1 171/1/1 170/1/1 42/1/1
f 95/1/1 223/1/1 222/1/1 94/1/1
f 44/1/1 172/1/1 171/1/1 43/1/1
f 96/1/1 224/1/1 223/1/1 95/1/1
f 45/1/1 173/1/1 172/1/1 44/1/1
f 97/1/1 225/1/1 224/1/1 96/1/1
f 46/1/1 174/1/1 173/1/1 45/1/1
f 98/1/1 226/1/1 225/1/1 97/1/1
f 47/1/1 175/1/1 174/1/1 46/1/1
f 99/1/1 227/1/1 226/1/1 98/1/1
f 48/1/1 176/1/1 175/1/1 47/1/1
f 100/1/1 228/1/1 227/1/1 99/1/1
f 49/1/1 177/1/1 176/1/1 48/1/1
f 101/1/1 229/1/1 228/1/1 100/1/1
f 50/1/1 178/1/1 177/1/1 49/1/1
f 102/1/1 230/1/1 229/1/1 101/1/1
f 51/1/1 179/1/1 178/1/1 50/1/1
f 103/1/1 231/1/1 230/1/1 102/1/1
f 52/1/1 180/1/1 179/1/1 51/1/1
f 104/1/1 232/1/1 231/1/1 103/1/1
f 53/1/1 181/1/1 180/1/1 52/1/1
f 2/1/1 130/1/1 129/1/1 1/1/1
f 105/1/1 233/1/1 232/1/1 104/1/1
f 54/1/1 182/1/1 181/1/1 53/1/1
f 3/1/1 131/1/1 130/1/1 2/1/1
f 106/1/1 234/1/1 233/1/1 105/1/1
f 55/1/1 183/1/1 182/1/1 54/1/1
f 4/1/1 132/1/1 131/1/1 3/1/1
f 107/1/1 235/1/1 234/1/1 106/1/1
f 56/1/1 184/1/1 183/1/1 55/1/1
f 5/1/1 133/1/1 132/1/1 4/1/1
f 108/1/1 236/1/1 235/1/1 107/1/1
f 57/1/1 185/1/1 184/1/1 56/1/1
f 6/1/1 134/1/1 133/1/1 5/1/1
f 109/1/1 237/1/1 236/1/1 108/1/1
f 58/1/1 186/1/1 185/1/1 57/1/1
f 7/1/1 135/1/1 134/1/1 6/1/1
f 110/1/1 238/1/1 237/1/1 109/1/1
f 59/1/1 187/1/1 186/1/1 58/1/1
f 8/1/1 136/1/1 135/1/1 7/1/1
f 111/1/1 239/1/1 238/1/1 110/1/1
f 60/1/1 188/1/1 187/1/1 59/1/1
f 9/1/1 137/1/1 136/1/1 8/1/1
f 112/1/1 240/1/1 239/1/1 111/1/1
f 61/1/1 189/1/1 188/1/1 60/1/1
f 10/1/1 138/1/1 137/1/1 9/1/1
f 113/1/1 241/1/1 240/1/1 112/1/1
f 62/1/1 190/1/1 189/1/1 61/1/1
f 11/1/1 139/1/1 138/1/1 10/1/1
f 114/1/1 242/1/1 241/1/1 113/1/1
f 63/1/1 191/1/1 190/1/1 62/1/1
f 12/1/1 140/1/1 139/1/1 11/1/1
f 115/1/1 243/1/1 242/1/1 114/1/1
f 64/1/1 192/1/1 191/1/1 63/1/1
f 13/1/1 141/1/1 140/1/1 12/1/1
f 116/1/1 244/1/1 243/1/1 115/1/1
f 65/1/1 193/1/1 192/1/1 64/1/1
f 14/1/1 142/1/1 141/1/1 13/1/1
f 117/1/1 245/1/1 244/1/1 116/1/1
f 66/1/1 194/1/1 193/1/1 65/1/1
f 15/1/1 143/1/1 142/1/1 14/1/1
f 118/1/1 246/1/1 245/1/1 117/1/1
f 67/1/1 195/1/1 194/1/1 66/1/1
f 16/1/1 144/1/1 143/1/1 15/1/1
f 119/1/1 247/1/1 246/1/1 118/1/1
f 68/1/1 196/1/1 195/1/1 67/1/1
f 17/1/1 145/1/1 144/1/1 16/1/1
f 120/1/1 248/1/1 247/1/1 119/1/1
f 69/1/1 197/1/1 196/1/1 68/1/1
f 18/1/1 146/1/1 145/1/1 17/1/1
f 121/1/1 249/1/1 248/1/1 120/1/1
f 70/1/1 198/1/1 197/1/1 69/1/1
f 19/1/1 147/1/1 146/1/1 18/1/1
f 122/1/1 250/1/1 249/1/1 121/1/1
f 71/1/1 199/1/1 198/1/1 70/1/1
f 20/1/1 148/1/1 147/1/1 19/1/1
f 123/1/1 251/1/1 250/1/1 122/1/1
f 72/1/1 200/1/1 199/1/1 71/1/1
f 21/1/1 149/1/1 148/1/1 20/1/1
f 124/1/1 252/1/1 251/1/1 123/1/1
f 73/1/1 201/1/1 200/1/1 72/1/1
f 22/1/1 150/1/1 149/1/1 21/1/1
f 125/1/1 253/1/1 252/1/1 124/1/1
f 74/1/1 202/1/1 201/1/1 73/1/1
f 23/1/1 151/1/1 150/1/1 22/1/1
f 126/1/1 254/1/1 253/1/1 125/1/1
f 75/1/1 203/1/1 202/1/1 74/1/1
f 24/1/1 152/1/1 151/1/1 23/1/1
f 127/1/1 255/1/1 254/1/1 126/1/1
f 76/1/1 204/1/1 203/1/1 75/1/1
f 25/1/1 153/1/1 152/1/1 24/1/1
f 128/1/1 256/1/1 255/1/1 127/1/1
f 77/1/1 205/1/1 204/1/1 76/1/1
f 26/1/1 154/1/1 153/1/1 25/1/1
f 1/1/1 129/1/1 256/1/1 128/1/1
f 78/1/1 206/1/1 205/1/1 77/1/1
f 27/1/1 155/1/1 154/1/1 26/1/1
f 79/1/1 207/1/1 206/1/1 78/1/1
f 28/1/1 156/1/1 155/1/1 27/1/1
f 80/1/1 208/1/1 207/1/1 79/1/1
f 29/1/1 157/1/1 156/1/1 28/1/1
f 81/1/1 209/1/1 208/1/1 80/1/1
f 30/1/1 158/1/1 157/1/1 29/1/1
f 82/1/1 210/1/1 209/1/1 81/1/1
f 31/1/1 159/1/1 158/1/1 30/1/1
f 83/1/1 211/1/1 210/1/1 82/1/1
f 32/1/1 160/1/1 159/1/1 31/1/1
f 84/1/1 212/1/1 211/1/1 83/1/1
f 33/1/1 161/1/1 160/1/1 32/1/1
f 85/1/1 213/1/1 212/1/1 84/1/1
f 34/1/1 162/1/1 161/1/1 33/1/1
f 86/1/1 214/1/1 213/1/1 85/1/1
f 35/1/1 163/1/1 162/1/1 34/1/1
f 87/1/1 215/1/1 214/1/1 86/1/1
f 36/1/1 164/1/1 163/1/1 35/1/1
f 88/1/1 216/1/1 215/1/1 87/1/1
f 37/1/1 165/1/1 164/1/1 36/1/1
f 89/1/1 217/1/1 216/1/1 88/1/1
f 38/1/1 166/1/1 165/1/1 37/1/1
f 90/1/1 218/1/1 217/1/1 89/1/1
f 39/1/1 167/1/1 166/1/1 38/1/1
f 91/1/1 219/1/1 218/1/1 90/1/1
f 40/1/1 168/1/1 167/1/1 39/1/1
f 92/1/1 220/1/1 219/1/1 91/1/1
f 41/1/1 169/1/1 168/1/1 40/1/1
f 93/1/1 221/1/1 220/1/1 92/1/1
f 42/1/1 170/1/1 169/1/1 41/1/1
