# Blender 4.5.4 LTS
# www.blender.org
mtllib ring_line_attack.mtl
o ThickWireCircle
v 0.470000 0.000000 0.000000
v 0.500000 0.000000 0.000000
v 0.467737 0.000000 -0.046068
v 0.497592 0.000000 -0.049009
v 0.460969 0.000000 -0.091692
v 0.490393 0.000000 -0.097545
v 0.449762 0.000000 -0.136434
v 0.478470 0.000000 -0.145142
v 0.434223 0.000000 -0.179861
v 0.461940 0.000000 -0.191342
v 0.414503 0.000000 -0.221556
v 0.440961 0.000000 -0.235698
v 0.390791 0.000000 -0.261118
v 0.415735 0.000000 -0.277785
v 0.363315 0.000000 -0.298165
v 0.386505 0.000000 -0.317197
v 0.332340 0.000000 -0.332340
v 0.353553 0.000000 -0.353553
v 0.298165 0.000000 -0.363315
v 0.317197 0.000000 -0.386505
v 0.261118 0.000000 -0.390791
v 0.277785 0.000000 -0.415735
v 0.221556 0.000000 -0.414503
v 0.235698 0.000000 -0.440961
v 0.179861 0.000000 -0.434223
v 0.191342 0.000000 -0.461940
v 0.136434 0.000000 -0.449762
v 0.145142 0.000000 -0.478470
v 0.091692 0.000000 -0.460969
v 0.097545 0.000000 -0.490393
v 0.046068 0.000000 -0.467737
v 0.049009 0.000000 -0.497592
v 0.000000 0.000000 -0.470000
v 0.000000 0.000000 -0.500000
v -0.046068 0.000000 -0.467737
v -0.049009 0.000000 -0.497592
v -0.091692 0.000000 -0.460969
v -0.097545 0.000000 -0.490393
v -0.136434 0.000000 -0.449762
v -0.145142 0.000000 -0.478470
v -0.179861 0.000000 -0.434223
v -0.191342 0.000000 -0.461940
v -0.221556 0.000000 -0.414503
v -0.235698 0.000000 -0.440961
v -0.261118 0.000000 -0.390791
v -0.277785 0.000000 -0.415735
v -0.298165 0.000000 -0.363315
v -0.317197 0.000000 -0.386505
v -0.332340 0.000000 -0.332340
v -0.353553 0.000000 -0.353553
v -0.363315 0.000000 -0.298165
v -0.386505 0.000000 -0.317197
v -0.390791 0.000000 -0.261118
v -0.415735 0.000000 -0.277785
v -0.414503 0.000000 -0.221556
v -0.440961 0.000000 -0.235698
v -0.434223 0.000000 -0.179861
v -0.461940 0.000000 -0.191342
v -0.449762 0.000000 -0.136434
v -0.478470 0.000000 -0.145142
v -0.460969 0.000000 -0.091692
v -0.490393 0.000000 -0.097545
v -0.467737 0.000000 -0.046068
v -0.497592 0.000000 -0.049009
v -0.470000 0.000000 -0.000000
v -0.500000 0.000000 -0.000000
v -0.467737 0.000000 0.046068
v -0.497592 0.000000 0.049009
v -0.460969 0.000000 0.091692
v -0.490393 0.000000 0.097545
v -0.449762 0.000000 0.136434
v -0.478470 0.000000 0.145142
v -0.434223 0.000000 0.179861
v -0.461940 0.000000 0.191342
v -0.414503 0.000000 0.221556
v -0.440961 0.000000 0.235698
v -0.390791 0.000000 0.261118
v -0.415735 0.000000 0.277785
v -0.363315 0.000000 0.298165
v -0.386505 0.000000 0.317197
v -0.332340 0.000000 0.332340
v -0.353553 0.000000 0.353553
v -0.298165 0.000000 0.363315
v -0.317197 0.000000 0.386505
v -0.261118 0.000000 0.390791
v -0.277785 0.000000 0.415735
v -0.221556 0.000000 0.414503
v -0.235698 0.000000 0.440961
v -0.179861 0.000000 0.434223
v -0.191342 0.000000 0.461940
v -0.136434 0.000000 0.449762
v -0.145142 0.000000 0.478470
v -0.091692 0.000000 0.460969
v -0.097545 0.000000 0.490393
v -0.046068 0.000000 0.467737
v -0.049009 0.000000 0.497592
v -0.000000 0.000000 0.470000
v -0.000000 0.000000 0.500000
v 0.046068 0.000000 0.467737
v 0.049009 0.000000 0.497592
v 0.091692 0.000000 0.460969
v 0.097545 0.000000 0.490393
v 0.136434 0.000000 0.449762
v 0.145142 0.000000 0.478470
v 0.179861 0.000000 0.434223
v 0.191342 0.000000 0.461940
v 0.221556 0.000000 0.414503
v 0.235698 0.000000 0.440961
v 0.261118 0.000000 0.390791
v 0.277785 0.000000 0.415735
v 0.298165 0.000000 0.363315
v 0.317197 0.000000 0.386505
v 0.332340 0.000000 0.332340
v 0.353553 0.000000 0.353553
v 0.363315 0.000000 0.298165
v 0.386505 0.000000 0.317197
v 0.390791 0.000000 0.261118
v 0.415735 0.000000 0.277785
v 0.414503 0.000000 0.221556
v 0.440961 0.000000 0.235698
v 0.434223 0.000000 0.179861
v 0.461940 0.000000 0.191342
v 0.449762 0.000000 0.136434
v 0.478470 0.000000 0.145142
v 0.460969 0.000000 0.091692
v 0.490393 0.000000 0.097545
v 0.467737 0.000000 0.046068
v 0.497592 0.000000 0.049009
vn -0.0000 1.0000 -0.0000
vt 0.735000 0.500000
vt 0.750000 0.500000
vt 0.748796 0.524504
vt 0.733868 0.523034
vt 0.745196 0.548773
vt 0.730485 0.545846
vt 0.739235 0.572571
vt 0.724881 0.568217
vt 0.730970 0.595671
vt 0.717112 0.589931
vt 0.720480 0.617849
vt 0.707251 0.610778
vt 0.707867 0.638893
vt 0.695395 0.630559
vt 0.693253 0.658598
vt 0.681657 0.649082
vt 0.676777 0.676777
vt 0.666170 0.666170
vt 0.658598 0.693253
vt 0.649082 0.681657
vt 0.638893 0.707867
vt 0.630559 0.695395
vt 0.617849 0.720480
vt 0.610778 0.707251
vt 0.595671 0.730970
vt 0.589931 0.717112
vt 0.572571 0.739235
vt 0.568217 0.724881
vt 0.548773 0.745196
vt 0.545846 0.730485
vt 0.524504 0.748796
vt 0.523034 0.733868
vt 0.500000 0.750000
vt 0.500000 0.735000
vt 0.475496 0.748796
vt 0.476966 0.733868
vt 0.451227 0.745196
vt 0.454154 0.730485
vt 0.427429 0.739235
vt 0.431783 0.724881
vt 0.404329 0.730970
vt 0.410069 0.717112
vt 0.382151 0.720480
vt 0.389222 0.707251
vt 0.361107 0.707867
vt 0.369441 0.695395
vt 0.341402 0.693253
vt 0.350918 0.681657
vt 0.323223 0.676777
vt 0.333830 0.666170
vt 0.306747 0.658598
vt 0.318343 0.649082
vt 0.292133 0.638893
vt 0.304605 0.630559
vt 0.279520 0.617849
vt 0.292749 0.610778
vt 0.269030 0.595671
vt 0.282888 0.589931
vt 0.260765 0.572571
vt 0.275119 0.568217
vt 0.254804 0.548773
vt 0.269515 0.545846
vt 0.251204 0.524504
vt 0.266132 0.523034
vt 0.250000 0.500000
vt 0.265000 0.500000
vt 0.251204 0.475496
vt 0.266132 0.476966
vt 0.254804 0.451227
vt 0.269515 0.454154
vt 0.260765 0.427429
vt 0.275119 0.431783
vt 0.269030 0.404329
vt 0.282888 0.410069
vt 0.279520 0.382151
vt 0.292749 0.389222
vt 0.292133 0.361107
vt 0.304605 0.369441
vt 0.306747 0.341402
vt 0.318343 0.350918
vt 0.323223 0.323223
vt 0.333830 0.333830
vt 0.341402 0.306747
vt 0.350918 0.318343
vt 0.361107 0.292133
vt 0.369441 0.304605
vt 0.382151 0.279520
vt 0.389222 0.292749
vt 0.404329 0.269030
vt 0.410069 0.282888
vt 0.427429 0.260765
vt 0.431783 0.275119
vt 0.451227 0.254804
vt 0.454154 0.269515
vt 0.475496 0.251204
vt 0.476966 0.266132
vt 0.500000 0.250000
vt 0.500000 0.265000
vt 0.524504 0.251204
vt 0.523034 0.266132
vt 0.548773 0.254804
vt 0.545846 0.269515
vt 0.572571 0.260765
vt 0.568217 0.275119
vt 0.595671 0.269030
vt 0.589931 0.282888
vt 0.617849 0.279520
vt 0.610778 0.292749
vt 0.638893 0.292133
vt 0.630559 0.304605
vt 0.658598 0.306747
vt 0.649082 0.318343
vt 0.676777 0.323223
vt 0.666170 0.333830
vt 0.693253 0.341402
vt 0.681657 0.350918
vt 0.707867 0.361107
vt 0.695395 0.369441
vt 0.720480 0.382151
vt 0.707251 0.389222
vt 0.730970 0.404329
vt 0.717112 0.410069
vt 0.739235 0.427429
vt 0.724881 0.431783
vt 0.745196 0.451227
vt 0.730485 0.454154
vt 0.748796 0.475496
vt 0.733868 0.476966
s 0
f 1/1/1 2/2/1 4/3/1 3/4/1
f 3/4/1 4/3/1 6/5/1 5/6/1
f 5/6/1 6/5/1 8/7/1 7/8/1
f 7/8/1 8/7/1 10/9/1 9/10/1
f 9/10/1 10/9/1 12/11/1 11/12/1
f 11/12/1 12/11/1 14/13/1 13/14/1
f 13/14/1 14/13/1 16/15/1 15/16/1
f 15/16/1 16/15/1 18/17/1 17/18/1
f 17/18/1 18/17/1 20/19/1 19/20/1
f 19/20/1 20/19/1 22/21/1 21/22/1
f 21/22/1 22/21/1 24/23/1 23/24/1
f 23/24/1 24/23/1 26/25/1 25/26/1
f 25/26/1 26/25/1 28/27/1 27/28/1
f 27/28/1 28/27/1 30/29/1 29/30/1
f 29/30/1 30/29/1 32/31/1 31/32/1
f 31/32/1 32/31/1 34/33/1 33/34/1
f 33/34/1 34/33/1 36/35/1 35/36/1
f 35/36/1 36/35/1 38/37/1 37/38/1
f 37/38/1 38/37/1 40/39/1 39/40/1
f 39/40/1 40/39/1 42/41/1 41/42/1
f 41/42/1 42/41/1 44/43/1 43/44/1
f 43/44/1 44/43/1 46/45/1 45/46/1
f 45/46/1 46/45/1 48/47/1 47/48/1
f 47/48/1 48/47/1 50/49/1 49/50/1
f 49/50/1 50/49/1 52/51/1 51/52/1
f 51/52/1 52/51/1 54/53/1 53/54/1
f 53/54/1 54/53/1 56/55/1 55/56/1
f 55/56/1 56/55/1 58/57/1 57/58/1
f 57/58/1 58/57/1 60/59/1 59/60/1
f 59/60/1 60/59/1 62/61/1 61/62/1
f 61/62/1 62/61/1 64/63/1 63/64/1
f 63/64/1 64/63/1 66/65/1 65/66/1
f 65/66/1 66/65/1 68/67/1 67/68/1
f 67/68/1 68/67/1 70/69/1 69/70/1
f 69/70/1 70/69/1 72/71/1 71/72/1
f 71/72/1 72/71/1 74/73/1 73/74/1
f 73/74/1 74/73/1 76/75/1 75/76/1
f 75/76/1 76/75/1 78/77/1 77/78/1
f 77/78/1 78/77/1 80/79/1 79/80/1
f 79/80/1 80/79/1 82/81/1 81/82/1
f 81/82/1 82/81/1 84/83/1 83/84/1
f 83/84/1 84/83/1 86/85/1 85/86/1
f 85/86/1 86/85/1 88/87/1 87/88/1
f 87/88/1 88/87/1 90/89/1 89/90/1
f 89/90/1 90/89/1 92/91/1 91/92/1
f 91/92/1 92/91/1 94/93/1 93/94/1
f 93/94/1 94/93/1 96/95/1 95/96/1
f 95/96/1 96/95/1 98/97/1 97/98/1
f 97/98/1 98/97/1 100/99/1 99/100/1
f 99/100/1 100/99/1 102/101/1 101/102/1
f 101/102/1 102/101/1 104/103/1 103/104/1
f 103/104/1 104/103/1 106/105/1 105/106/1
f 105/106/1 106/105/1 108/107/1 107/108/1
f 107/108/1 108/107/1 110/109/1 109/110/1
f 109/110/1 110/109/1 112/111/1 111/112/1
f 111/112/1 112/111/1 114/113/1 113/114/1
f 113/114/1 114/113/1 116/115/1 115/116/1
f 115/116/1 116/115/1 118/117/1 117/118/1
f 117/118/1 118/117/1 120/119/1 119/120/1
f 119/120/1 120/119/1 122/121/1 121/122/1
f 121/122/1 122/121/1 124/123/1 123/124/1
f 123/124/1 124/123/1 126/125/1 125/126/1
f 125/126/1 126/125/1 128/127/1 127/128/1
f 127/128/1 128/127/1 2/2/1 1/1/1
