# Blender 4.5.4 LTS
# www.blender.org
mtllib tableCloth.mtl
o tableCloth
v 1.129684 0.145511 -0.156300
v 1.129684 0.291021 -0.156300
v -1.103759 0.145511 -0.156300
v -1.103759 0.291021 -0.156300
v -1.103759 0.145511 -0.001580
v -1.103759 0.291021 -0.001580
v 1.129684 0.145511 -0.001580
v 1.129684 0.291021 -0.001580
v 1.129684 0.834692 0.592120
v 1.129684 0.834692 0.437400
v 0.834172 0.834692 0.592120
v 0.834172 0.834691 -0.750000
v 1.129684 0.834691 -0.750000
v 1.129684 0.834691 -0.595280
v 1.275194 0.834692 0.437400
v 1.275194 0.834691 -0.595280
v -0.808247 0.834692 0.592120
v -0.808247 0.834691 -0.750000
v -1.103759 0.834692 0.592120
v -1.103759 0.834692 0.437400
v -1.103759 0.834691 -0.750000
v -1.103759 0.834691 -0.595280
v -1.249269 0.834692 0.437400
v -1.249269 0.834691 -0.595280
v 1.202439 0.145511 0.437400
v 1.202439 0.145511 -0.595280
v 1.129684 0.145511 0.437400
v 1.129684 0.145511 -0.595280
v -1.176514 0.145511 0.437400
v -1.103759 0.145511 0.437400
v -1.176514 0.145511 -0.595280
v -1.103759 0.145511 -0.595280
v 1.202439 0.291021 -0.595280
v 1.202439 0.291021 0.437400
v 1.129684 0.291021 -0.595280
v 1.129684 0.291021 0.437400
v -1.176514 0.291021 0.437400
v -1.103759 0.291021 0.437400
v -1.176514 0.291021 -0.595280
v -1.103759 0.291021 -0.595280
v -1.103759 0.000000 -0.750000
v -1.103759 0.000000 -0.595280
v -1.249269 0.000000 0.437400
v -1.249269 0.000000 0.592120
v -1.249269 0.980202 0.592120
v -1.249269 0.980202 -0.750000
v -1.249269 0.000000 -0.595280
v -1.249269 0.000000 -0.750000
v -1.103759 0.000000 0.592120
v -1.103759 0.000000 0.437400
v 1.275194 0.000000 -0.595280
v 1.275194 0.000000 -0.750000
v 1.129684 0.000000 -0.595280
v 1.129684 0.000000 -0.750000
v 1.275194 0.000000 0.592120
v 1.275194 0.000000 0.437400
v 1.129684 0.000000 0.592120
v 1.129684 0.000000 0.437400
v -0.808247 0.980202 0.592120
v 1.275194 0.980202 -0.750000
v 1.275194 0.980202 0.592120
v -0.808247 0.980202 -0.750000
v 0.834172 0.980202 0.592120
v 0.834172 0.980202 -0.750000
v 0.834172 0.689181 -0.750000
v -0.808247 0.689181 -0.750000
v -0.808247 0.689181 0.592120
v 0.834172 0.689181 0.592120
vn -0.0000 -0.0000 -1.0000
vn -0.0000 -0.0000 1.0000
vn -0.0000 -1.0000 -0.0000
vn -0.0000 1.0000 -0.0000
vn 1.0000 -0.0000 -0.0000
vn -1.0000 -0.0000 -0.0000
vn -0.0000 -0.0000 -0.0000
vt 1.909586 3.819173
vt 1.909586 1.909586
vt 31.219860 1.909586
vt 31.219860 3.819173
vt -31.219860 3.819173
vt -31.219860 1.909586
vt -1.909586 1.909586
vt -1.909586 3.819173
vt -1.909586 15.582680
vt -1.909586 17.613119
vt -5.787695 17.613119
vt -0.000000 15.582680
vt -1.909586 2.030446
vt -0.000000 2.030446
vt -27.341749 17.613119
vt -5.787695 0.000000
vt -27.341749 0.000000
vt -31.219860 15.582680
vt -31.219860 0.000000
vt -33.129452 15.582680
vt -33.129452 2.030446
vt -31.219860 2.030446
vt -0.954793 2.030446
vt -0.954793 15.582680
vt 0.954793 15.582680
vt 0.954793 2.030446
vt 1.909586 2.030446
vt 1.909586 15.582680
vt 31.219860 7.791339
vt 31.219860 9.821785
vt 1.909586 9.821785
vt 32.174660 2.030446
vt 32.174660 15.582680
vt 0.000000 0.000000
vt 0.000000 10.953960
vt -2.030446 10.953960
vt -2.030446 3.819173
vt -2.030446 1.909586
vt -2.030446 0.000000
vt -7.791339 3.819173
vt -7.791339 1.909586
vt 2.030446 10.953960
vt 17.613119 12.863540
vt -0.000000 12.863540
vt -15.582680 3.819173
vt -15.582680 10.953960
vt -17.613119 10.953960
vt -15.582680 1.909586
vt -17.613119 0.000000
vt -15.582680 0.000000
vt -9.821785 1.909586
vt -9.821785 3.819173
vt 15.582680 3.819173
vt 2.030446 3.819173
vt 2.030446 1.909586
vt 15.582680 1.909586
vt -1.909586 0.000000
vt -0.000000 0.000000
vt 32.174660 1.909586
vt 31.219860 0.000000
vt 33.129452 0.000000
vt 33.129452 10.953960
vt 32.174660 3.819173
vt 31.219860 10.953960
vt -0.000000 15.582680
vt -32.174660 1.909586
vt -32.174660 3.819173
vt -33.129452 10.953960
vt -31.219860 10.953960
vt 7.791339 1.909586
vt 2.030446 0.000000
vt 0.000000 10.953960
vt 0.000000 0.000000
vt -31.219860 0.000000
vt -33.129452 0.000000
vt 9.821785 1.909586
vt 15.582680 0.000000
vt 15.582680 10.953960
vt 17.613119 0.000000
vt 17.613119 10.953960
vt -33.129452 -0.000000
vt -31.219860 -0.000000
vt -33.129452 12.863540
vt -27.341749 10.953960
vt -27.341749 12.863540
vt -17.613119 12.863540
vt -17.613119 0.000000
vt -15.582680 0.000000
vt -0.000000 0.000000
vt 5.787695 -0.000000
vt 5.787695 17.613119
vt 0.000000 0.000000
vt 1.909586 -0.000000
vt 1.909586 10.953960
vt 0.000000 12.863540
vt 5.787695 10.953960
vt 5.787695 12.863540
vt -1.909586 10.953960
vt -1.909586 0.000000
vt 0.000000 0.000000
vt 0.000000 12.863540
vt -5.787695 12.863540
vt -5.787695 10.953960
vt 27.341749 17.613119
vt 27.341749 0.000000
vt 27.341749 10.953960
vt 27.341749 12.863540
vt 5.787695 9.044370
vt 27.341749 9.044370
vt -1.909586 0.000000
vt -31.219860 17.613119
vt -1.909586 9.821785
vt -1.909586 7.791339
vt -31.219860 7.791339
vt -31.219860 9.821785
vt -32.174660 15.582680
vt -32.174660 2.030446
vt 1.909586 7.791339
vt 31.219860 15.582680
vt 31.219860 2.030446
vt 15.582680 0.000000
vt 17.613119 0.000000
vt 2.030446 0.000000
vt -0.000000 0.000000
vt -33.129452 17.613119
vt -0.000000 2.030446
vt -0.000000 17.613119
vt -1.909586 -0.000000
vt -0.000000 0.000000
vt -0.954793 1.909586
vt -0.000000 10.953960
vt -0.954793 3.819173
vt -33.129452 0.000000
vt -31.219860 0.000000
vt -0.000000 0.000000
vt 1.909586 0.000000
vt 0.954793 1.909586
vt -0.000000 10.953960
vt 0.954793 3.819173
vt 7.791339 3.819173
vt 9.821785 3.819173
vt -0.000000 12.863540
vt -2.030446 0.000000
vt -0.000000 0.000000
vt 33.129452 17.613119
vt 33.129452 0.000000
vt 31.219860 0.000000
vt 33.129452 0.000000
vt 33.129452 12.863540
vt -0.000000 17.613119
s 0
usemtl wood.003
f 2/1/1 1/2/1 3/3/1
f 3/3/1 4/4/1 2/1/1
f 6/5/2 5/6/2 7/7/2
f 7/7/2 8/8/2 6/5/2
f 10/9/3 9/10/3 11/11/3
f 15/12/3 10/9/3 14/13/3
f 14/13/3 16/14/3 15/12/3
f 11/11/3 17/15/3 12/16/3
f 17/15/3 18/17/3 12/16/3
f 20/18/3 21/19/3 18/17/3
f 23/20/3 24/21/3 22/22/3
f 26/23/3 25/24/3 27/9/3
f 34/25/4 33/26/4 35/27/4
f 35/27/4 36/28/4 34/25/4
f 4/29/4 6/30/4 8/31/4
f 4/29/4 39/32/4 37/33/4
f 41/34/5 21/35/5 22/36/5
f 40/37/5 32/38/5 42/39/5
f 40/37/5 4/40/5 32/38/5
f 4/40/5 3/41/5 32/38/5
f 24/42/6 45/43/6 46/44/6
f 38/45/5 20/46/5 19/47/5
f 19/47/5 30/48/5 38/45/5
f 30/48/5 19/47/5 49/49/5
f 49/49/5 50/50/5 30/48/5
f 5/51/5 6/52/5 38/45/5
f 37/53/6 39/54/6 31/55/6
f 31/55/6 29/56/6 37/53/6
f 53/13/3 54/57/3 52/58/3
f 29/59/1 50/60/1 43/61/1
f 43/61/1 23/62/1 29/59/1
f 23/62/1 37/63/1 29/59/1
f 23/62/1 38/4/1 37/63/1
f 23/62/1 20/64/1 38/4/1
f 57/10/3 58/9/3 56/65/3
f 31/66/2 39/67/2 24/68/2
f 40/5/2 22/69/2 24/68/2
f 35/54/6 28/55/6 1/70/6
f 53/71/6 28/55/6 14/42/6
f 53/71/6 14/42/6 13/72/6
f 13/72/6 54/73/6 53/71/6
f 41/74/3 42/22/3 47/21/3
f 47/21/3 48/75/3 41/74/3
f 7/76/6 27/56/6 36/53/6
f 27/56/6 58/77/6 10/78/6
f 57/79/6 9/80/6 10/78/6
f 44/81/2 49/82/2 19/69/2
f 19/69/2 45/83/2 44/81/2
f 19/69/2 17/84/2 45/83/2
f 17/84/2 59/85/2 45/83/2
f 61/86/5 55/87/5 56/88/5
f 60/89/4 64/90/4 63/91/4
f 52/92/1 54/93/1 13/94/1
f 13/94/1 60/95/1 52/92/1
f 12/96/1 64/97/1 60/95/1
f 9/98/2 57/99/2 55/100/2
f 55/100/2 61/101/2 9/98/2
f 61/101/2 63/102/2 9/98/2
f 11/103/2 9/98/2 63/102/2
f 10/9/3 11/11/3 12/16/3
f 10/9/3 12/16/3 13/110/3
f 10/9/3 13/110/3 14/13/3
f 17/15/3 19/111/3 18/17/3
f 19/111/3 20/18/3 18/17/3
f 20/18/3 22/22/3 21/19/3
f 22/22/3 20/18/3 23/20/3
f 27/9/3 7/112/3 26/23/3
f 7/112/3 1/113/3 26/23/3
f 1/113/3 28/13/3 26/23/3
f 3/114/3 1/113/3 7/112/3
f 7/112/3 5/115/3 3/114/3
f 29/116/3 3/114/3 5/115/3
f 5/115/3 30/18/3 29/116/3
f 29/116/3 31/117/3 3/114/3
f 32/22/3 3/114/3 31/117/3
f 35/27/7 2/118/7 36/28/7
f 2/118/4 8/31/4 36/28/4
f 2/118/4 4/29/4 8/31/4
f 6/30/4 4/29/4 37/33/4
f 37/33/4 38/119/4 6/30/4
f 4/29/4 40/120/4 39/32/4
f 22/36/5 42/39/5 41/34/5
f 22/36/5 40/37/5 42/39/5
f 23/78/6 43/121/6 44/122/6
f 23/78/6 44/122/6 45/43/6
f 24/42/6 23/78/6 45/43/6
f 47/123/6 24/42/6 46/44/6
f 46/44/6 48/124/6 47/123/6
f 38/45/5 30/48/5 5/51/5
f 50/18/3 49/111/3 44/125/3
f 44/125/3 43/20/3 50/18/3
f 52/58/3 51/126/3 53/13/3
f 50/60/1 29/59/1 30/3/1
f 26/38/5 33/37/5 34/45/5
f 34/45/5 25/48/5 26/38/5
f 56/65/3 55/127/3 57/10/3
f 28/7/2 53/128/2 51/129/2
f 51/129/2 26/130/2 28/7/2
f 51/129/2 16/131/2 26/130/2
f 16/131/2 33/132/2 26/130/2
f 16/131/2 14/98/2 33/132/2
f 35/8/2 33/132/2 14/98/2
f 47/133/2 42/134/2 32/6/2
f 32/6/2 31/66/2 47/133/2
f 24/68/2 47/133/2 31/66/2
f 39/67/2 40/5/2 24/68/2
f 56/135/1 58/136/1 27/2/1
f 27/2/1 25/137/1 56/135/1
f 15/138/1 56/135/1 25/137/1
f 25/137/1 34/139/1 15/138/1
f 34/139/1 36/1/1 15/138/1
f 36/1/1 10/94/1 15/138/1
f 1/70/6 2/140/6 35/54/6
f 28/55/6 35/54/6 14/42/6
f 36/53/6 8/141/6 7/76/6
f 27/56/6 10/78/6 36/53/6
f 58/77/6 57/79/6 10/78/6
f 16/36/5 60/142/5 61/86/5
f 61/86/5 15/46/5 16/36/5
f 61/86/5 56/88/5 15/46/5
f 60/142/5 16/36/5 51/143/5
f 51/143/5 52/144/5 60/142/5
f 45/145/4 59/104/4 62/105/4
f 62/105/4 46/146/4 45/145/4
f 41/147/1 48/148/1 46/149/1
f 46/149/1 21/64/1 41/147/1
f 21/64/1 46/149/1 62/107/1
f 62/107/1 18/106/1 21/64/1
f 63/91/4 61/150/4 60/89/4
f 13/94/1 12/96/1 60/95/1
usemtl carpet
f 59/104/4 63/91/4 64/90/4
f 64/90/4 62/105/4 59/104/4
f 12/96/1 18/106/1 62/107/1
f 62/107/1 64/97/1 12/96/1
f 18/106/2 65/108/2 12/96/2
f 17/84/2 11/103/2 63/102/2
f 63/102/2 59/85/2 17/84/2
f 68/108/2 17/106/2 67/109/2
f 17/106/2 68/108/2 11/96/2
f 65/108/2 18/106/2 66/109/2
