# Blender 4.5.4 LTS
# www.blender.org
mtllib Mouse_01.mtl
o Cube.024
v 0.000000 0.272434 0.257197
v 0.000000 0.344988 0.246217
v -0.225071 0.344988 0.225071
v -0.236051 0.272434 0.236052
v -0.236051 0.059176 0.236052
v -0.236052 0.272434 -0.236051
v -0.236052 0.059176 -0.236051
v 0.161016 0.059176 -0.236051
v 0.154526 0.272434 -0.236051
v 0.236051 0.272434 -0.236052
v 0.236051 0.059176 -0.236052
v 0.236051 0.272434 0.236051
v 0.236052 0.059176 0.236051
v 0.236052 0.000000 0.236051
v 0.161016 -0.000000 -0.236051
v 0.236051 -0.000000 -0.236052
v -0.178492 0.650241 -0.160161
v -0.178492 0.652777 0.178492
v -0.117218 0.960600 0.088783
v -0.117218 0.963136 -0.090267
v 0.225071 0.344988 0.225071
v 0.225071 0.344504 -0.221575
v 0.178491 0.650241 -0.160161
v 0.178491 0.652777 0.178491
v -0.225071 0.344504 -0.221575
v -0.147338 0.344504 -0.221575
v -0.076944 0.589516 -0.172359
v 0.117218 0.963136 -0.090267
v 0.117218 0.960600 0.088783
v 0.000000 0.652777 0.199637
v 0.000000 0.976224 0.109929
v -0.027730 0.779368 -0.409662
v -0.042226 0.705346 -0.415485
v 0.042225 0.705346 -0.415485
v 0.027730 0.779368 -0.409662
v -0.236051 0.000000 0.236052
v -0.236052 -0.000000 -0.236051
v 0.000000 0.978761 -0.090267
v 0.000000 0.779368 -0.409662
v 0.147338 0.344504 -0.221575
v 0.076944 0.589516 -0.172359
v 0.000000 0.092706 0.239162
v 0.033529 0.059176 0.236051
v -0.154526 0.272434 -0.236051
v -0.161016 0.059176 -0.236051
v -0.161016 -0.000000 -0.236051
v -0.033529 0.059176 0.236051
v -0.033529 0.000000 0.236051
v 0.033529 0.000000 0.236051
v -0.298927 1.055045 0.024538
v -0.272733 1.035663 0.017277
v -0.296872 0.946235 0.004347
v -0.329662 0.941186 0.008075
v -0.250706 0.867634 -0.016576
v -0.270883 0.841111 -0.018565
v -0.157023 0.813443 -0.039776
v -0.161278 0.845904 -0.033236
v -0.080974 0.893772 -0.035874
v -0.054779 0.874390 -0.043134
v -0.024045 0.988249 -0.026671
v -0.056834 0.983200 -0.022943
v -0.103000 1.061800 -0.002020
v -0.082823 1.088324 -0.000031
v -0.196683 1.115992 0.021180
v -0.192428 1.083531 0.014640
v -0.159354 0.843423 -0.019675
v -0.079050 0.891292 -0.022312
v -0.294949 0.943755 0.017909
v -0.248783 0.865154 -0.003015
v -0.270809 1.033182 0.030839
v -0.101076 1.059320 0.011542
v -0.190504 1.081051 0.028202
v -0.054910 0.980719 -0.009382
v -0.294773 1.043923 0.087165
v -0.325508 0.930064 0.077278
v -0.292718 0.935113 0.075040
v -0.268579 1.024541 0.082805
v -0.266729 0.829989 0.061280
v -0.246552 0.856513 0.062474
v -0.152869 0.802322 0.048541
v -0.050625 0.863268 0.046525
v -0.076820 0.882650 0.050885
v -0.157124 0.834782 0.052469
v -0.019891 0.977127 0.056411
v -0.078669 1.077202 0.072410
v -0.098846 1.050678 0.071216
v -0.052680 0.972078 0.058650
v -0.192529 1.104870 0.085149
v -0.188274 1.072410 0.081221
v -0.169887 0.949970 0.078750
v 0.302430 1.078253 0.028187
v 0.336233 0.954284 0.002046
v 0.300043 0.959952 -0.001060
v 0.273493 1.057320 0.019472
v 0.271238 0.845788 -0.032574
v 0.248994 0.874737 -0.028251
v 0.145519 0.816320 -0.055391
v 0.032720 0.883142 -0.053041
v 0.061657 0.904076 -0.044326
v 0.150252 0.851592 -0.046172
v -0.001082 1.007111 -0.026900
v 0.063913 1.115608 0.007719
v 0.086157 1.086659 0.003396
v 0.035108 1.001444 -0.023795
v 0.189632 1.145076 0.030537
v 0.184899 1.109804 0.021318
v 0.059822 0.900458 -0.029544
v 0.148417 0.847975 -0.031390
v 0.247159 0.871119 -0.013468
v 0.298208 0.956335 0.013722
v 0.271658 1.053702 0.034254
v 0.183064 1.106186 0.036100
v 0.084322 1.083041 0.018178
v 0.033273 0.997826 -0.009012
v 0.298468 1.064676 0.090939
v 0.269531 1.043742 0.085705
v 0.296080 0.946374 0.073375
v 0.332270 0.940707 0.075240
v 0.245032 0.861159 0.057046
v 0.267276 0.832210 0.054450
v 0.141557 0.802742 0.040746
v 0.146289 0.838014 0.046283
v 0.057695 0.890498 0.047391
v 0.028758 0.869565 0.042158
v -0.005044 0.993534 0.057857
v 0.031146 0.987866 0.059722
v 0.082194 1.073081 0.076051
v 0.059950 1.102030 0.078647
v 0.185669 1.131498 0.092351
v 0.180937 1.096226 0.086814
v 0.160931 0.961832 0.079525
v -0.163408 0.265488 -0.261499
v -0.159072 0.290389 -0.283103
v 0.161015 -0.001102 -0.300042
v 0.236051 -0.001102 -0.300042
v 0.030975 0.719055 -0.449825
v 0.020341 0.773354 -0.445554
v -0.020342 0.773354 -0.445554
v -0.030975 0.719055 -0.449825
v 0.000000 0.773354 -0.445554
v 0.000000 0.719055 -0.449825
v 0.000000 0.705346 -0.415485
v -0.161016 -0.001103 -0.300042
v -0.161016 0.024824 -0.300042
v 0.159072 0.290389 -0.283103
v 0.163408 0.265488 -0.261499
v -0.236052 -0.001103 -0.300042
v -0.236052 0.024824 -0.300042
v 0.161015 0.024824 -0.300042
v 0.236051 0.024824 -0.300042
v 0.228189 0.265488 -0.261499
v 0.222797 0.290389 -0.283103
v -0.228189 0.265488 -0.261499
v -0.222798 0.290388 -0.283103
v -0.002157 0.059176 0.247498
v -0.060983 0.000000 0.303303
v -0.060983 0.059176 0.303303
v 0.039671 0.000000 0.374334
v 0.039671 0.059176 0.374334
v 0.147816 0.059176 0.378506
v 0.147816 0.000000 0.378506
v 0.005825 0.059176 0.297502
v 0.005825 0.000000 0.297502
v 0.115009 0.059176 0.435444
v 0.115009 0.000000 0.435444
v 0.207237 0.000000 0.456586
v 0.207237 0.059176 0.456586
v 0.002356 0.059176 0.417673
v 0.002356 0.000000 0.417673
v 0.256045 0.000000 0.410600
v 0.256045 0.059176 0.410600
v 0.304119 0.059176 0.523566
v 0.304119 0.000000 0.523566
v 0.237747 0.059176 0.513990
v 0.180694 0.059176 0.574931
v 0.211565 0.059176 0.634461
v 0.237747 0.000000 0.513990
v 0.180694 0.000000 0.574931
v 0.085491 0.001069 0.553877
v 0.085491 0.058107 0.553877
v 0.211565 0.000000 0.634461
v 0.065891 0.001069 0.615470
v 0.065891 0.058107 0.615470
v -0.010960 0.053896 0.628303
v -0.010960 0.005280 0.628303
v -0.043222 0.053896 0.583645
v -0.043222 0.005280 0.583645
v -0.099333 0.009394 0.691374
v -0.099333 0.049782 0.691374
v -0.057326 0.020251 0.797436
v -0.057326 0.038925 0.797436
v -0.055257 0.009394 0.703707
v -0.055257 0.049782 0.703707
v -0.040938 0.020251 0.784046
v -0.040938 0.038925 0.784046
v -0.172117 0.958612 0.024086
v 0.163058 0.971793 0.023962
v 0.000000 0.589516 -0.196766
v 0.000000 0.344504 -0.245982
v 0.000000 -0.000000 -0.260458
v 0.000000 0.000000 0.202522
v 0.000000 0.059176 -0.260458
v 0.000000 0.272434 -0.260458
v 0.109711 0.860490 -0.192701
v 0.112624 0.842012 -0.199713
v 0.064155 0.825949 -0.177520
v 0.061242 0.844428 -0.170508
v 0.121323 0.825450 -0.192701
v 0.130711 0.820508 -0.175774
v 0.082242 0.804445 -0.153581
v 0.072854 0.809388 -0.170508
v 0.135290 0.830079 -0.158847
v 0.132377 0.848557 -0.151836
v 0.083908 0.832495 -0.129643
v 0.086821 0.814017 -0.136654
v 0.123678 0.865119 -0.158847
v 0.114290 0.870061 -0.175774
v 0.065821 0.853999 -0.153581
v 0.075209 0.849056 -0.136654
v 0.122501 0.845284 -0.175774
v -0.109712 0.860490 -0.192701
v -0.061242 0.844428 -0.170508
v -0.064156 0.825949 -0.177520
v -0.112625 0.842012 -0.199713
v -0.121323 0.825450 -0.192701
v -0.072854 0.809388 -0.170508
v -0.082243 0.804445 -0.153581
v -0.130712 0.820508 -0.175774
v -0.135291 0.830079 -0.158847
v -0.086821 0.814017 -0.136654
v -0.083908 0.832495 -0.129643
v -0.132377 0.848557 -0.151835
v -0.123679 0.865119 -0.158847
v -0.075209 0.849056 -0.136654
v -0.065821 0.853999 -0.153581
v -0.114290 0.870061 -0.175774
v -0.122501 0.845284 -0.175774
vn 0.9741 -0.1635 -0.1565
vn 0.9731 -0.1677 -0.1580
vn 0.9896 -0.0738 -0.1238
vn -0.0000 -0.9999 0.0172
vn 0.9514 0.2044 -0.2301
vn 0.9515 0.2044 -0.2301
vn -0.9515 0.2044 -0.2301
vn -0.9514 0.2044 -0.2301
vn -0.0000 0.9863 -0.1653
vn -0.0000 0.0784 -0.9969
vn -0.0000 -0.9287 -0.3708
vn 1.0000 -0.0000 -0.0000
vn -0.9741 -0.1635 -0.1565
vn -0.9731 -0.1677 -0.1580
vn -0.9098 -0.3508 -0.2218
vn -0.0000 -0.0000 -1.0000
vn -0.0000 -0.6553 -0.7553
vn -1.0000 -0.0000 -0.0000
vn -0.0000 -0.9647 0.2633
vn -0.0000 0.7509 -0.6604
vn -0.0000 0.8811 -0.4730
vn 0.9667 0.1179 -0.2273
vn 0.9667 0.1174 -0.2275
vn 0.9619 0.1867 -0.1997
vn -0.9667 0.1179 -0.2273
vn -0.9667 0.1174 -0.2275
vn -0.9577 -0.0399 -0.2850
vn -0.3321 0.2476 0.9102
vn -0.9258 -0.0000 -0.3779
vn 0.0385 -0.0000 -0.9993
vn -0.0000 1.0000 -0.0000
vn 0.9116 -0.0000 0.4110
vn -0.0000 -1.0000 -0.0000
vn -0.2234 -0.0000 0.9747
vn -0.1558 -0.0000 0.9878
vn 0.9201 -0.0000 -0.3916
vn 0.2843 -0.0000 -0.9587
vn -0.0081 1.0000 0.0021
vn -0.8830 -0.0000 0.4693
vn 0.2159 -0.0000 -0.9764
vn -0.7300 -0.0000 -0.6834
vn -0.0081 -1.0000 0.0021
vn -0.0001 -1.0000 0.0006
vn 0.7677 -0.0000 0.6408
vn 0.1647 -0.0000 0.9863
vn -0.0096 -1.0000 -0.0008
vn -0.0105 -0.9999 -0.0033
vn -0.1293 -0.0000 0.9916
vn -0.0001 1.0000 0.0006
vn -0.0096 1.0000 -0.0008
vn -0.8869 -0.0000 -0.4619
vn -0.0383 0.9993 -0.0010
vn -0.0429 0.9990 0.0150
vn -0.0488 0.9982 0.0353
vn -0.2253 -0.0000 -0.9743
vn -0.0383 -0.9993 -0.0010
vn -0.0429 -0.9990 0.0150
vn -0.0353 -0.9993 -0.0112
vn -0.9297 -0.0000 0.3682
vn -0.0270 -0.9993 0.0274
vn -0.0192 -0.9991 0.0383
vn -0.0307 -0.9993 0.0222
vn 0.8622 -0.0000 0.5065
vn -0.0270 0.9993 0.0274
vn -0.0192 0.9991 0.0383
vn -0.0131 0.9988 0.0468
vn -0.8748 -0.0000 0.4845
vn 0.9151 -0.0000 -0.4031
vn 0.6327 -0.0000 0.7744
vn -0.0195 -0.9932 0.1146
vn 0.0555 -0.9917 0.1161
vn -0.0320 -0.9929 0.1143
vn 0.9845 -0.0000 -0.1755
vn -0.0195 0.9932 0.1146
vn 0.0555 0.9917 0.1161
vn 0.0953 0.9886 0.1166
vn -0.2883 0.0846 -0.9538
vn -0.0485 0.0263 -0.9985
vn -0.0902 0.3449 -0.9343
vn -0.3056 0.2166 -0.9272
vn -0.1818 0.0058 -0.9833
vn 0.0336 0.1341 -0.9904
vn 0.0163 0.2661 -0.9638
vn -0.2236 0.3244 -0.9191
vn 0.2704 0.1419 -0.9522
vn 0.0299 0.0855 -0.9959
vn 0.0721 0.3999 -0.9137
vn 0.2879 0.2721 -0.9182
vn 0.1635 0.0646 -0.9844
vn -0.0522 0.1924 -0.9799
vn -0.0348 0.3226 -0.9459
vn 0.2057 0.3790 -0.9022
vn 0.2985 0.2121 0.9305
vn 0.9098 -0.3508 -0.2218
vn -0.9896 -0.0738 -0.1238
vn 0.9577 -0.0399 -0.2850
vn -0.9619 0.1867 -0.1997
vn -0.0105 0.9999 -0.0033
vn -0.0353 0.9993 -0.0112
vn -0.0488 -0.9982 0.0353
vn -0.0131 -0.9988 0.0468
vn -0.0307 0.9993 0.0222
vn 0.0953 -0.9886 0.1166
vn -0.0320 0.9929 0.1143
vn -0.1275 -0.8865 -0.4449
vn -0.0248 -0.8854 -0.4641
vn -0.0000 -0.8837 -0.4680
vn -0.1865 0.2285 -0.9555
vn -0.2530 0.2047 -0.9456
vn -0.2970 0.1881 -0.9362
vn 0.1511 0.0014 -0.9885
vn 0.1535 0.0019 -0.9882
vn 0.1499 0.0023 -0.9887
vn 0.1499 -0.0000 -0.9887
vn -0.1580 0.1987 -0.9672
vn -0.1547 0.2051 -0.9664
vn -0.1603 0.1944 -0.9677
vn -0.5009 -0.7514 -0.4295
vn 0.5009 -0.7514 -0.4295
vn 0.1580 0.1987 -0.9672
vn 0.1547 0.2051 -0.9664
vn 0.1526 0.2092 -0.9659
vn -0.1499 0.0023 -0.9887
vn -0.1499 -0.0000 -0.9887
vn -0.1535 0.0019 -0.9882
vn -0.1511 0.0014 -0.9885
vn 0.1865 0.2285 -0.9555
vn 0.2530 0.2047 -0.9456
vn 0.1587 0.2381 -0.9582
vn 0.1275 -0.8865 -0.4449
vn 0.0248 -0.8854 -0.4641
vn 0.1402 -0.8859 -0.4421
vn -0.1402 -0.8859 -0.4421
vn -0.1587 0.2381 -0.9582
vn 0.1560 -0.0000 -0.9878
vn -0.1526 0.2092 -0.9659
vn 0.1603 0.1944 -0.9677
vn -0.1560 -0.0000 -0.9878
vn 0.2970 0.1881 -0.9362
vn -0.4700 0.2474 -0.8473
vn 0.1458 -0.9250 -0.3509
vn 0.4700 -0.2474 0.8473
vn -0.1459 0.9250 0.3509
vn -0.4354 0.8290 -0.3510
vn -0.2292 -0.4791 -0.8473
vn 0.4354 -0.8290 0.3510
vn 0.2292 0.4791 0.8473
vn 0.8706 0.2885 -0.3986
vn 0.4700 0.2474 -0.8473
vn -0.1458 -0.9250 -0.3510
vn -0.1458 -0.9250 -0.3509
vn -0.4699 -0.2474 0.8473
vn 0.1458 0.9250 0.3510
vn 0.1458 0.9250 0.3509
vn 0.4354 0.8290 -0.3510
vn 0.2292 -0.4791 -0.8473
vn -0.4354 -0.8290 0.3510
vn -0.2292 0.4791 0.8473
vn -0.8706 0.2885 -0.3986
vn -0.8705 0.2885 -0.3986
vn 0.1458 -0.9250 -0.3510
vn -0.1458 0.9250 0.3510
vn -0.0916 0.1516 0.9842
vn -0.0968 0.1612 0.9822
vn -0.0880 0.1621 0.9828
vn -0.9811 0.1937 -0.0001
vn -0.9812 0.1932 0.0006
vn -0.9815 0.1916 0.0027
vn 0.9887 0.1498 -0.0004
vn 0.9887 0.1502 -0.0005
vn 0.9888 0.1495 -0.0011
vn -0.9887 0.1498 -0.0004
vn -0.9887 0.1502 -0.0005
vn -0.9886 0.1506 -0.0001
vn -0.0000 0.1969 -0.9804
vn 0.9811 0.1937 -0.0001
vn 0.9812 0.1932 0.0006
vn 0.9808 0.1948 -0.0015
vn 0.1336 0.2904 0.9475
vn 0.1781 0.2727 0.9455
vn 0.2050 0.2616 0.9432
vn -0.8804 0.2524 -0.4014
vn -0.8810 0.2314 -0.4126
vn -0.8811 0.2060 -0.4258
vn 0.8804 0.2524 -0.4014
vn 0.8810 0.2314 -0.4126
vn 0.8801 0.2610 -0.3967
vn 0.1074 0.8475 -0.5198
vn 0.0196 0.8489 -0.5282
vn -0.0000 0.8483 -0.5296
vn 0.1336 0.9909 0.0131
vn 0.1329 0.9910 0.0135
vn 0.1343 0.9909 0.0126
vn 0.0964 0.1534 0.9834
vn 0.1069 0.1541 0.9822
vn 0.1163 0.1486 0.9820
vn 0.0411 -0.0527 0.9978
vn -0.0020 -0.0990 0.9951
vn 0.0476 -0.0463 0.9978
vn -0.9887 0.1497 -0.0001
vn -0.9886 0.1506 -0.0000
vn 0.9887 0.1497 -0.0001
vn 0.9886 0.1506 -0.0001
vn -0.0000 -0.0000 1.0000
vn -0.0964 0.1534 0.9834
vn -0.1069 0.1541 0.9822
vn -0.1336 0.9909 0.0131
vn -0.1329 0.9910 0.0135
vn -0.1321 0.9911 0.0140
vn -0.1074 0.8475 -0.5198
vn -0.0196 0.8489 -0.5282
vn -0.1129 0.8472 -0.5191
vn -0.1336 0.2904 0.9475
vn -0.1781 0.2727 0.9455
vn -0.1123 0.2986 0.9478
vn -0.0418 -0.0460 0.9981
vn -0.0311 -0.0296 0.9991
vn -0.0637 -0.0664 0.9958
vn 0.0968 0.1612 0.9822
vn 0.0916 0.1516 0.9842
vn 0.0880 0.1621 0.9828
vn -0.1382 0.1782 -0.9742
vn -0.4936 0.8404 0.2238
vn -0.4936 0.8404 0.2237
vn 0.8586 0.5118 -0.0282
vn 0.9562 -0.2324 -0.1781
vn -0.2581 -0.9562 -0.1382
vn -0.9562 0.2324 0.1781
vn -0.9562 0.2323 0.1782
vn 0.2581 0.9562 0.1383
vn 0.4936 -0.8404 -0.2237
vn 0.4936 -0.8404 -0.2238
vn -0.8586 -0.5118 0.0282
vn 0.0844 -0.1088 0.9905
vn 0.1784 -0.0523 0.9826
vn 0.0291 -0.0158 0.9995
vn 0.0565 -0.2161 0.9747
vn 0.1924 -0.1363 0.9718
vn 0.1103 -0.0035 0.9939
vn -0.0203 -0.0810 0.9965
vn -0.0100 -0.1636 0.9865
vn 0.1415 -0.2053 0.9684
vn -0.9631 0.2493 0.1011
vn -0.9634 0.2469 0.1043
vn -0.9637 0.2446 0.1074
vn -0.8643 -0.5023 -0.0274
vn -0.8646 -0.5019 -0.0262
vn -0.8639 -0.5028 -0.0289
vn 0.5052 -0.8531 -0.1304
vn 0.5050 -0.8532 -0.1300
vn 0.5057 -0.8527 -0.1312
vn 0.8642 0.5024 0.0262
vn 0.8645 0.5021 0.0252
vn 0.8648 0.5016 0.0239
vn -0.5002 0.8465 0.1823
vn -0.4997 0.8471 0.1809
vn -0.4993 0.8476 0.1798
vn -0.2499 -0.9613 -0.1162
vn -0.2513 -0.9612 -0.1136
vn -0.2472 -0.9614 -0.1211
vn 0.9646 -0.2517 -0.0783
vn 0.9648 -0.2508 -0.0793
vn 0.9643 -0.2537 -0.0761
vn 0.2521 0.9569 0.1439
vn 0.2547 0.9571 0.1379
vn 0.2572 0.9573 0.1322
vn 0.1197 0.2360 -0.9644
vn 0.4957 0.8274 0.2640
vn -0.8602 0.5096 0.0179
vn -0.9588 -0.2247 -0.1740
vn 0.2578 -0.9454 -0.1994
vn 0.2579 -0.9455 -0.1989
vn 0.9588 0.2247 0.1740
vn -0.2578 0.9454 0.1993
vn -0.2578 0.9454 0.1994
vn -0.4957 -0.8274 -0.2640
vn 0.8602 -0.5096 -0.0179
vn -0.0736 -0.1450 0.9867
vn -0.0735 -0.1450 0.9867
vn -0.1675 -0.0879 0.9820
vn -0.0180 -0.0515 0.9985
vn -0.0458 -0.2540 0.9661
vn -0.1823 -0.1723 0.9680
vn -0.0992 -0.0392 0.9943
vn 0.0318 -0.1170 0.9926
vn 0.0216 -0.2006 0.9794
vn -0.1316 -0.2425 0.9612
vn 0.9640 0.2428 0.1081
vn 0.9636 0.2469 0.1027
vn 0.9644 0.2392 0.1126
vn 0.8616 -0.5057 -0.0443
vn 0.8621 -0.5050 -0.0420
vn 0.8627 -0.5042 -0.0394
vn -0.5062 -0.8507 -0.1416
vn -0.5064 -0.8506 -0.1418
vn -0.5067 -0.8503 -0.1424
vn -0.8622 0.5047 0.0431
vn -0.8616 0.5055 0.0457
vn -0.8628 0.5040 0.0404
vn 0.5007 0.8384 0.2153
vn 0.5002 0.8390 0.2140
vn 0.5010 0.8380 0.2162
vn 0.2434 -0.9607 -0.1335
vn 0.2451 -0.9607 -0.1305
vn 0.2479 -0.9606 -0.1255
vn -0.9652 -0.2492 -0.0792
vn -0.9648 -0.2502 -0.0814
vn -0.9660 -0.2475 -0.0755
vn -0.2509 0.9520 0.1753
vn -0.2470 0.9512 0.1852
vn -0.2538 0.9525 0.1682
vn -0.9808 0.1948 -0.0015
vn -0.9888 0.1495 -0.0011
vn 0.9815 0.1916 0.0027
vn 0.1123 0.2986 0.9478
vn -0.8801 0.2610 -0.3967
vn 0.8811 0.2060 -0.4258
vn 0.1129 0.8472 -0.5191
vn 0.1321 0.9911 0.0140
vn 0.0892 -0.0000 0.9960
vn -0.0075 -0.0998 0.9950
vn 0.9886 0.1506 -0.0000
vn -0.1163 0.1486 0.9820
vn -0.1343 0.9909 0.0126
vn -0.2050 0.2616 0.9432
vn -0.0888 -0.0995 0.9911
vn 0.9562 -0.2324 -0.1782
vn -0.9629 0.2514 0.0982
vn -0.8649 -0.5014 -0.0248
vn 0.5046 -0.8536 -0.1293
vn 0.8639 0.5030 0.0277
vn -0.5007 0.8460 0.1834
vn -0.2539 -0.9611 -0.1091
vn 0.9651 -0.2487 -0.0816
vn 0.2493 0.9567 0.1502
vn 0.9632 0.2501 0.0986
vn 0.8609 -0.5066 -0.0474
vn -0.5059 -0.8510 -0.1410
vn -0.8609 0.5064 0.0488
vn 0.4999 0.8394 0.2132
vn 0.2403 -0.9607 -0.1390
vn -0.9639 -0.2520 -0.0854
vn -0.2438 0.9504 0.1931
vt 1.000000 0.000000
vt 0.000000 1.000000
vt 0.000000 0.000000
vt 1.000000 1.000000
vt 0.975500 0.654500
vt 0.206100 0.095500
vt 0.024500 0.654500
vt 0.500000 1.000000
vt 0.793900 0.095500
s 1
usemtl F06292.004
f 44/1/1 133/2/2 26/3/3
f 16/3/4 134/4/4 135/2/4
f 35/3/5 136/4/6 137/2/5
f 32/1/7 139/2/7 33/3/8
f 39/3/9 137/4/9 140/2/9
f 141/3/10 138/4/10 140/2/10
f 142/3/11 139/4/11 141/2/11
f 46/1/12 144/2/12 45/3/12
f 9/3/13 145/4/14 146/2/15
f 148/1/16 143/2/16 147/3/16
f 134/3/16 150/4/16 135/2/16
f 146/1/17 152/2/17 151/3/17
f 132/3/17 154/4/17 133/2/17
f 15/3/18 149/4/18 134/2/18
f 37/3/18 148/4/18 147/2/18
f 46/3/4 147/4/4 143/2/4
f 6/1/19 132/2/19 44/3/19
f 10/3/19 146/4/19 151/2/19
f 16/1/12 150/2/12 11/3/12
f 22/1/20 145/2/20 40/3/20
f 45/1/21 148/2/21 7/3/21
f 10/1/22 152/2/23 22/3/24
f 25/3/20 133/4/20 154/2/20
f 11/1/21 149/2/21 8/3/21
f 6/3/25 154/4/26 153/2/27
f 142/1/11 136/2/11 34/3/11
f 141/1/10 137/2/10 136/3/10
f 39/1/9 138/2/9 32/3/9
f 47/3/28 155/1/28 42/4/28
f 47/3/29 156/4/29 157/2/29
f 158/3/30 160/4/30 161/2/30
f 155/1/31 162/2/31 43/3/31
f 43/1/32 163/2/32 49/3/32
f 48/3/33 163/4/33 156/2/33
f 164/3/34 166/4/34 167/2/34
f 159/3/31 164/4/31 160/2/31
f 168/3/35 165/4/35 164/2/35
f 158/1/33 165/2/33 169/3/33
f 171/1/36 173/2/36 170/3/36
f 161/1/33 166/2/33 165/3/33
f 160/1/37 170/2/37 161/3/37
f 160/3/31 167/4/31 171/2/31
f 174/1/31 176/2/38 172/3/31
f 171/3/31 174/4/31 172/2/31
f 167/3/39 177/4/39 174/2/39
f 170/1/33 177/2/33 166/3/33
f 178/1/40 180/2/40 175/3/40
f 177/1/41 175/2/41 174/3/41
f 177/3/33 181/4/42 178/2/43
f 173/3/44 176/4/44 181/2/44
f 183/1/45 185/2/45 182/3/45
f 178/3/43 182/4/46 179/2/47
f 176/1/48 182/2/48 181/3/48
f 175/1/49 183/2/50 176/3/38
f 187/1/51 189/2/51 186/3/51
f 183/3/52 186/4/53 184/2/54
f 179/1/55 186/2/55 180/3/55
f 182/1/56 187/2/57 179/3/58
f 189/3/59 190/4/59 191/2/59
f 185/1/60 188/2/61 187/3/62
f 184/1/63 192/2/63 185/3/63
f 184/3/64 189/4/65 193/2/66
f 156/3/33 158/4/33 169/2/33
f 156/1/67 168/2/67 157/3/67
f 157/1/31 159/2/31 162/3/31
f 162/1/68 158/2/68 163/3/68
f 191/3/69 194/4/69 195/2/69
f 192/1/70 190/2/71 188/3/72
f 193/1/73 194/2/73 192/3/73
f 193/3/74 191/4/75 195/2/76
f 73/3/77 196/1/77 71/4/77
f 72/3/78 196/1/78 70/4/78
f 69/3/79 196/1/79 66/4/79
f 67/3/80 196/1/80 73/4/80
f 71/3/81 196/1/81 72/4/81
f 70/3/82 196/1/82 68/4/82
f 68/3/83 196/1/83 69/4/83
f 66/3/84 196/1/84 67/4/84
f 114/3/85 113/1/85 197/4/85
f 112/3/86 111/1/86 197/4/86
f 109/3/87 108/1/87 197/4/87
f 107/3/88 114/1/88 197/4/88
f 113/3/89 112/1/89 197/4/89
f 111/3/90 110/1/90 197/4/90
f 110/3/91 109/1/91 197/4/91
f 108/3/92 107/1/92 197/4/92
f 157/3/31 155/1/31 47/4/31
f 42/3/93 155/1/93 43/4/93
f 44/1/1 132/4/94 133/2/2
f 16/3/4 15/1/4 134/4/4
f 35/3/5 34/1/6 136/4/6
f 32/1/7 138/4/7 139/2/7
f 39/3/9 35/1/9 137/4/9
f 141/3/10 139/1/10 138/4/10
f 142/3/11 33/1/11 139/4/11
f 46/1/12 143/4/12 144/2/12
f 9/3/13 40/1/95 145/4/14
f 148/1/16 144/4/16 143/2/16
f 134/3/16 149/1/16 150/4/16
f 146/1/17 145/4/17 152/2/17
f 132/3/17 153/1/17 154/4/17
f 15/3/18 8/1/18 149/4/18
f 37/3/18 7/1/18 148/4/18
f 46/3/4 37/1/4 147/4/4
f 6/1/19 153/4/19 132/2/19
f 10/3/19 9/1/19 146/4/19
f 16/1/12 135/4/12 150/2/12
f 22/1/20 152/4/20 145/2/20
f 45/1/21 144/4/21 148/2/21
f 10/1/22 151/4/96 152/2/23
f 25/3/20 26/1/20 133/4/20
f 11/1/21 150/4/21 149/2/21
f 6/3/25 25/1/97 154/4/26
f 142/1/11 141/4/11 136/2/11
f 141/1/10 140/4/10 137/2/10
f 39/1/9 140/4/9 138/2/9
f 47/3/29 48/1/29 156/4/29
f 158/3/30 159/1/30 160/4/30
f 155/1/31 157/4/31 162/2/31
f 43/1/32 162/4/32 163/2/32
f 48/3/33 49/1/33 163/4/33
f 164/3/34 165/1/34 166/4/34
f 159/3/31 168/1/31 164/4/31
f 168/3/35 169/1/35 165/4/35
f 158/1/33 161/4/33 165/2/33
f 171/1/36 172/4/36 173/2/36
f 161/1/33 170/4/33 166/2/33
f 160/1/37 171/4/37 170/2/37
f 160/3/31 164/1/31 167/4/31
f 174/1/31 175/4/49 176/2/38
f 171/3/31 167/1/31 174/4/31
f 167/3/39 166/1/39 177/4/39
f 170/1/33 173/4/33 177/2/33
f 178/1/40 179/4/40 180/2/40
f 177/1/41 178/4/41 175/2/41
f 177/3/33 173/1/33 181/4/42
f 173/3/44 172/1/44 176/4/44
f 183/1/45 184/4/45 185/2/45
f 178/3/43 181/1/42 182/4/46
f 176/1/48 183/4/48 182/2/48
f 175/1/49 180/4/98 183/2/50
f 187/1/51 188/4/51 189/2/51
f 183/3/52 180/1/99 186/4/53
f 179/1/55 187/4/55 186/2/55
f 182/1/56 185/4/100 187/2/57
f 189/3/59 188/1/59 190/4/59
f 185/1/60 192/4/101 188/2/61
f 184/1/63 193/4/63 192/2/63
f 184/3/64 186/1/102 189/4/65
f 156/3/33 163/1/33 158/4/33
f 156/1/67 169/4/67 168/2/67
f 157/1/31 168/4/31 159/2/31
f 162/1/68 159/4/68 158/2/68
f 191/3/69 190/1/69 194/4/69
f 192/1/70 194/4/103 190/2/71
f 193/1/73 195/4/73 194/2/73
f 193/3/74 189/1/104 191/4/75
usemtl FFFFFF.004
f 198/3/105 33/4/106 142/2/107
f 199/3/108 27/4/109 198/2/110
f 15/5/33 49/6/33 201/7/33
f 202/3/111 9/4/112 8/2/113
f 202/1/111 15/2/114 200/3/114
f 203/3/115 26/4/116 199/2/117
f 33/3/118 27/1/118 17/4/118
f 34/3/119 23/1/119 41/4/119
f 203/1/120 40/2/121 9/3/122
f 45/1/123 200/2/124 46/3/124
f 44/1/125 202/2/126 45/3/123
f 200/5/33 48/6/33 36/7/33
f 199/1/127 41/2/128 40/3/129
f 198/1/130 34/2/131 41/3/132
f 49/3/33 48/1/33 201/4/33
f 198/3/105 27/1/133 33/4/106
f 199/3/108 26/1/134 27/4/109
f 201/7/33 200/8/33 15/5/33
f 15/5/33 14/9/33 49/6/33
f 202/3/111 203/1/135 9/4/112
f 202/1/111 8/4/113 15/2/114
f 203/3/115 44/1/136 26/4/116
f 203/1/120 199/4/137 40/2/121
f 45/1/123 202/4/126 200/2/124
f 44/1/125 203/4/138 202/2/126
f 36/7/33 46/8/33 200/5/33
f 200/5/33 201/9/33 48/6/33
f 199/1/127 198/4/139 41/2/128
f 198/1/130 142/4/107 34/2/131
usemtl 1A1A1A.004
f 204/3/140 206/4/140 207/2/140
f 209/1/141 211/2/141 208/3/141
f 213/1/142 215/2/142 212/3/142
f 217/1/143 219/2/143 216/3/143
f 204/1/144 218/2/144 217/3/144
f 208/1/145 206/2/145 205/3/145
f 209/3/146 215/4/146 210/2/146
f 213/3/147 219/4/147 214/2/147
f 205/3/148 204/1/148 220/4/148
f 209/3/148 208/1/148 220/4/148
f 213/3/148 212/1/148 220/4/148
f 217/3/148 216/1/148 220/4/148
f 204/3/148 217/1/148 220/4/148
f 208/3/148 205/1/148 220/4/148
f 212/3/148 209/1/148 220/4/148
f 216/3/148 213/1/148 220/4/148
f 222/1/149 224/2/149 221/3/149
f 226/1/150 228/2/150 225/3/151
f 229/3/152 231/4/152 232/2/152
f 234/1/153 236/2/153 233/3/154
f 235/1/155 221/2/155 236/3/155
f 223/1/156 225/2/156 224/3/156
f 228/3/157 230/4/157 229/2/157
f 232/3/158 234/4/158 233/2/158
f 224/3/159 237/1/159 221/4/159
f 228/3/160 237/1/159 225/4/159
f 232/3/159 237/1/159 229/4/159
f 236/3/159 237/1/159 233/4/159
f 221/3/159 237/1/159 236/4/159
f 225/3/159 237/1/159 224/4/159
f 229/3/159 237/1/159 228/4/160
f 233/3/159 237/1/159 232/4/159
f 204/3/140 205/1/140 206/4/140
f 209/1/161 210/4/161 211/2/161
f 213/1/142 214/4/142 215/2/142
f 217/1/162 218/4/162 219/2/162
f 204/1/144 207/4/144 218/2/144
f 208/1/145 211/4/145 206/2/145
f 209/3/146 212/1/146 215/4/146
f 213/3/147 216/1/147 219/4/147
f 222/1/149 223/4/149 224/2/149
f 226/1/150 227/4/150 228/2/150
f 229/3/152 230/1/152 231/4/152
f 234/1/153 235/4/153 236/2/153
f 235/1/155 222/4/155 221/2/155
f 223/1/156 226/4/156 225/2/156
f 228/3/157 227/1/157 230/4/157
f 232/3/158 231/1/158 234/4/158
usemtl 455A64.002
f 1/3/163 3/4/164 4/2/165
f 4/1/18 7/2/18 5/3/18
f 8/3/16 10/4/16 11/2/16
f 10/1/12 13/2/12 11/3/12
f 14/3/33 15/1/33 16/4/33
f 17/3/166 19/4/167 20/2/168
f 21/3/169 23/4/170 24/2/171
f 3/1/172 17/2/173 25/3/174
f 25/1/175 27/2/175 26/3/175
f 11/1/12 14/2/12 16/3/12
f 23/1/176 29/2/177 24/3/178
f 30/3/179 29/4/180 31/2/181
f 17/3/182 32/4/183 33/2/184
f 23/1/185 35/2/186 28/3/187
f 5/1/18 37/2/18 36/3/18
f 38/3/188 35/4/189 39/2/190
f 29/1/191 38/2/192 31/3/193
f 2/3/194 24/4/195 30/2/196
f 22/3/175 41/4/175 23/2/175
f 1/5/197 43/6/198 13/7/199
f 6/1/16 45/2/16 7/3/16
f 36/3/33 37/1/33 46/4/33
f 4/1/200 25/2/174 6/3/201
f 12/3/202 22/4/203 21/2/169
f 5/1/204 48/2/204 47/3/204
f 2/1/205 18/2/206 3/3/164
f 19/3/207 38/4/208 20/2/209
f 38/1/210 32/2/211 20/3/212
f 30/1/213 19/2/214 18/3/215
f 4/5/216 47/6/217 42/7/218
f 21/1/219 1/2/220 12/3/221
f 43/1/204 14/2/204 13/3/204
f 50/3/222 52/4/222 53/2/222
f 52/1/222 55/2/222 53/3/222
f 57/1/222 59/2/222 56/3/222
f 60/3/222 62/4/222 63/2/222
f 65/1/222 50/2/222 64/3/222
f 55/3/222 57/4/222 56/2/222
f 59/3/222 61/4/222 60/2/222
f 62/1/222 64/2/222 63/3/222
f 57/1/223 67/2/224 58/3/224
f 52/1/225 69/2/225 54/3/225
f 51/1/226 68/2/226 52/3/226
f 65/3/227 71/4/227 72/2/227
f 58/1/228 73/2/229 61/3/229
f 54/1/230 66/2/230 57/3/230
f 65/1/231 70/2/232 51/3/232
f 61/1/233 71/2/233 62/3/233
f 74/3/234 76/4/234 77/2/234
f 75/3/234 79/4/234 76/2/234
f 81/1/234 83/2/234 80/3/234
f 84/3/234 86/4/234 87/2/234
f 74/1/234 89/2/234 88/3/234
f 80/1/234 79/2/234 78/3/234
f 81/3/234 87/4/234 82/2/234
f 88/1/234 86/2/234 85/3/234
f 87/3/235 86/1/235 90/4/235
f 89/3/236 77/1/236 90/4/236
f 79/3/237 83/1/237 90/4/237
f 82/3/238 87/1/238 90/4/238
f 86/3/239 89/1/239 90/4/239
f 77/3/240 76/1/240 90/4/240
f 76/3/241 79/1/241 90/4/241
f 83/3/242 82/1/242 90/4/242
f 53/1/243 74/2/244 50/3/245
f 53/3/246 78/4/247 75/2/248
f 56/3/249 81/4/250 80/2/251
f 63/1/252 84/2/253 60/3/254
f 50/1/255 88/2/256 64/3/257
f 55/3/258 80/4/259 78/2/260
f 59/3/261 84/4/262 81/2/263
f 64/1/264 85/2/265 63/3/266
f 92/1/267 94/2/267 91/3/267
f 92/3/267 96/4/267 93/2/267
f 98/1/267 100/2/267 97/3/267
f 101/3/267 103/4/267 104/2/267
f 91/1/267 106/2/267 105/3/267
f 95/3/267 100/4/267 96/2/267
f 101/1/267 99/2/267 98/3/267
f 102/3/267 106/4/267 103/2/267
f 99/3/268 108/4/268 100/2/268
f 96/3/269 110/4/269 93/2/269
f 110/1/270 94/2/270 93/3/270
f 106/3/271 113/4/271 103/2/272
f 104/3/273 107/4/273 99/2/273
f 108/1/274 96/2/275 100/3/274
f 94/3/276 112/4/276 106/2/276
f 103/3/277 114/4/277 104/2/277
f 115/3/278 117/4/278 118/2/278
f 117/1/278 120/2/278 118/3/278
f 121/3/278 123/4/279 124/2/279
f 126/1/278 128/2/278 125/3/278
f 129/3/278 116/4/278 115/2/278
f 119/1/278 121/2/278 120/3/278
f 124/3/279 126/4/278 125/2/278
f 127/1/278 129/2/278 128/3/278
f 126/3/280 131/1/280 127/4/280
f 130/3/281 131/1/281 116/4/281
f 119/3/282 131/1/282 122/4/282
f 123/3/283 131/1/283 126/4/283
f 127/3/284 131/1/284 130/4/284
f 116/3/285 131/1/285 117/4/285
f 117/3/286 131/1/286 119/4/286
f 122/3/287 131/1/287 123/4/287
f 115/1/288 92/2/289 91/3/290
f 92/3/291 120/4/292 95/2/293
f 97/3/294 124/4/295 98/2/296
f 125/1/297 102/2/298 101/3/299
f 129/1/300 91/2/301 105/3/302
f 95/3/303 121/4/304 97/2/305
f 124/1/306 101/2/307 98/3/308
f 128/1/309 105/2/310 102/3/311
f 1/3/163 2/1/205 3/4/164
f 4/1/18 6/4/18 7/2/18
f 8/3/16 9/1/16 10/4/16
f 10/1/12 12/4/12 13/2/12
f 17/3/166 18/1/312 19/4/167
f 21/3/169 22/1/203 23/4/170
f 3/1/172 18/4/313 17/2/173
f 25/1/175 17/4/175 27/2/175
f 11/1/12 13/4/12 14/2/12
f 23/1/176 28/4/314 29/2/177
f 30/3/179 24/1/315 29/4/180
f 17/3/182 20/1/316 32/4/183
f 23/1/185 34/4/317 35/2/186
f 5/1/18 7/4/18 37/2/18
f 38/3/188 28/1/318 35/4/189
f 29/1/191 28/4/319 38/2/192
f 2/3/194 21/1/219 24/4/195
f 22/3/175 40/1/175 41/4/175
f 13/7/199 12/8/320 1/5/197
f 1/5/197 42/9/321 43/6/198
f 6/1/16 44/4/16 45/2/16
f 4/1/200 3/4/172 25/2/174
f 12/3/202 10/1/322 22/4/203
f 5/1/204 36/4/204 48/2/204
f 2/1/205 30/4/323 18/2/206
f 19/3/207 31/1/324 38/4/208
f 38/1/210 39/4/190 32/2/211
f 30/1/213 31/4/325 19/2/214
f 42/7/218 1/8/326 4/5/216
f 4/5/216 5/9/204 47/6/217
f 21/1/219 2/4/194 1/2/220
f 43/1/204 49/4/204 14/2/204
f 50/3/222 51/1/222 52/4/222
f 52/1/222 54/4/222 55/2/222
f 57/1/222 58/4/222 59/2/222
f 60/3/222 61/1/222 62/4/222
f 65/1/222 51/4/222 50/2/222
f 55/3/222 54/1/222 57/4/222
f 59/3/222 58/1/222 61/4/222
f 62/1/222 65/4/222 64/2/222
f 57/1/223 66/4/223 67/2/224
f 52/1/225 68/4/225 69/2/225
f 51/1/226 70/4/327 68/2/226
f 65/3/227 62/1/227 71/4/227
f 58/1/228 67/4/228 73/2/229
f 54/1/230 69/4/230 66/2/230
f 65/1/231 72/4/231 70/2/232
f 61/1/233 73/4/233 71/2/233
f 74/3/234 75/1/234 76/4/234
f 75/3/234 78/1/234 79/4/234
f 81/1/234 82/4/234 83/2/234
f 84/3/234 85/1/234 86/4/234
f 74/1/234 77/4/234 89/2/234
f 80/1/234 83/4/234 79/2/234
f 81/3/234 84/1/234 87/4/234
f 88/1/234 89/4/234 86/2/234
f 53/1/243 75/4/328 74/2/244
f 53/3/246 55/1/329 78/4/247
f 56/3/249 59/1/330 81/4/250
f 63/1/252 85/4/331 84/2/253
f 50/1/255 74/4/332 88/2/256
f 55/3/258 56/1/333 80/4/259
f 59/3/261 60/1/334 84/4/262
f 64/1/264 88/4/335 85/2/265
f 92/1/267 93/4/267 94/2/267
f 92/3/267 95/1/267 96/4/267
f 98/1/267 99/4/267 100/2/267
f 101/3/267 102/1/267 103/4/267
f 91/1/267 94/4/267 106/2/267
f 95/3/267 97/1/267 100/4/267
f 101/1/267 104/4/267 99/2/267
f 102/3/267 105/1/267 106/4/267
f 99/3/268 107/1/268 108/4/268
f 96/3/269 109/1/269 110/4/269
f 110/1/270 111/4/270 94/2/270
f 106/3/271 112/1/271 113/4/271
f 104/3/273 114/1/273 107/4/273
f 108/1/274 109/4/275 96/2/275
f 94/3/276 111/1/276 112/4/276
f 103/3/277 113/1/277 114/4/277
f 115/3/278 116/1/278 117/4/278
f 117/1/278 119/4/278 120/2/278
f 121/3/278 122/1/278 123/4/279
f 126/1/278 127/4/278 128/2/278
f 129/3/278 130/1/278 116/4/278
f 119/1/278 122/4/278 121/2/278
f 124/3/279 123/1/279 126/4/278
f 127/1/278 130/4/278 129/2/278
f 115/1/288 118/4/336 92/2/289
f 92/3/291 118/1/337 120/4/292
f 97/3/294 121/1/338 124/4/295
f 125/1/297 128/4/339 102/2/298
f 129/1/300 115/4/340 91/2/301
f 95/3/303 120/1/341 121/4/304
f 124/1/306 125/4/342 101/2/307
f 128/1/309 129/4/343 105/2/310
